<?xml version="1.0" encoding="UTF-8"?>
<svg version="1.1" xmlns="http://www.w3.org/2000/svg" width="360" height="176">
<path d="M0 0 C118.8 0 237.6 0 360 0 C360 58.08 360 116.16 360 176 C241.2 176 122.4 176 0 176 C0 117.92 0 59.84 0 0 Z " fill="#F6F6F5" transform="translate(0,0)"/>
<path d="M0 0 C4.95 0 9.9 0 15 0 C15 4.95 15 9.9 15 15 C19.95 15 24.9 15 30 15 C30 19.95 30 24.9 30 30 C34.95 30 39.9 30 45 30 C45 34.95 45 39.9 45 45 C49.95 45 54.9 45 60 45 C60 49.95 60 54.9 60 60 C64.95 60 69.9 60 75 60 C75 84.75 75 109.5 75 135 C70.05 135 65.1 135 60 135 C60 130.05 60 125.1 60 120 C55.05 120 50.1 120 45 120 C45 124.95 45 129.9 45 135 C40.05 135 35.1 135 30 135 C30 130.05 30 125.1 30 120 C25.05 120 20.1 120 15 120 C15 124.95 15 129.9 15 135 C10.05 135 5.1 135 0 135 C0 130.05 0 125.1 0 120 C-4.95 120 -9.9 120 -15 120 C-15 124.95 -15 129.9 -15 135 C-19.95 135 -24.9 135 -30 135 C-30 130.05 -30 125.1 -30 120 C-34.95 120 -39.9 120 -45 120 C-45 124.95 -45 129.9 -45 135 C-49.95 135 -54.9 135 -60 135 C-60 130.05 -60 125.1 -60 120 C-64.95 120 -69.9 120 -75 120 C-75 115.05 -75 110.1 -75 105 C-79.95 105 -84.9 105 -90 105 C-90 100.05 -90 95.1 -90 90 C-94.95 90 -99.9 90 -105 90 C-105.33 88.35 -105.66 86.7 -106 85 C-106.53625 85.309375 -107.0725 85.61875 -107.625 85.9375 C-117.97140107 90.56615311 -136.43540529 89.49106849 -147 86 C-153.49479149 83.22454412 -156.80203676 79.19605378 -160 73 C-160.23074219 73.68707031 -160.46148437 74.37414062 -160.69921875 75.08203125 C-163.37309645 82.46954315 -163.37309645 82.46954315 -166.4375 85.0625 C-171.79489706 87.02252331 -177.0086965 87.18575626 -182.66796875 87.23828125 C-183.50282303 87.246353 -184.33767731 87.25442474 -185.1978302 87.26274109 C-186.96202547 87.27653713 -188.72624693 87.2872792 -190.49047852 87.29516602 C-192.2796216 87.30666499 -194.06873094 87.32708378 -195.85766602 87.35668945 C-216.32440248 87.69493577 -216.32440248 87.69493577 -223 83 C-226.17407296 79.30389037 -226.48015911 77.00471176 -226.26953125 72.23828125 C-225.74622503 67.8925644 -224.47367815 65.22207456 -221.078125 62.40625 C-213.32168055 56.94999253 -205.68998097 54.67149351 -196.375 53.4375 C-195.50560791 53.31383057 -194.63621582 53.19016113 -193.74047852 53.06274414 C-189.72751108 52.49463776 -185.71045216 51.9606109 -181.69140625 51.4375 C-179.83322266 51.19 -179.83322266 51.19 -177.9375 50.9375 C-176.85339844 50.80214844 -175.76929688 50.66679688 -174.65234375 50.52734375 C-171.78562449 50.13282553 -171.78562449 50.13282553 -169 48 C-169.18828772 45.55519921 -169.18828772 45.55519921 -170 43 C-173.67867402 40.20605537 -178.0861072 40.74712149 -182.484375 40.8046875 C-183.29996887 40.8075174 -184.11556274 40.81034729 -184.95587158 40.81326294 C-187.55406528 40.82443442 -190.15191095 40.84953325 -192.75 40.875 C-194.51431793 40.88503373 -196.27864128 40.89415889 -198.04296875 40.90234375 C-202.36211273 40.92436381 -206.68099741 40.95887267 -211 41 C-210.2578125 34.296875 -210.2578125 34.296875 -207.9375 31.625 C-197.05750802 25.60628103 -176.06217818 27.86369508 -164.31640625 30.30859375 C-159.61617046 31.71153091 -156.18648535 33.45756904 -153.125 37.4375 C-152.00955637 39.97823271 -151.39162152 42.25864938 -151 45 C-149.8553125 43.453125 -149.8553125 43.453125 -148.6875 41.875 C-141.61918851 33.71671524 -131.42365002 30.43690503 -121 29 C-104.63792487 28.00500894 -104.63792487 28.00500894 -99.0625 31.0625 C-97.33482198 34.21297168 -97.93915189 37.44575429 -98 41 C-99.07314453 41.02187378 -99.07314453 41.02187378 -100.16796875 41.04418945 C-103.44582436 41.11919213 -106.72271917 41.21567955 -110 41.3125 C-111.68802734 41.34633789 -111.68802734 41.34633789 -113.41015625 41.38085938 C-121.91284456 41.65433765 -129.83662925 42.50347408 -136 49 C-140.53801135 55.49361845 -141.57074749 61.38571482 -141.6640625 69.21484375 C-141.27290738 72.13841143 -141.27290738 72.13841143 -138.89916992 73.64208984 C-135.40133737 75.28040097 -132.80501127 75.42968061 -128.94921875 75.51171875 C-128.29041214 75.52966995 -127.63160553 75.54762115 -126.95283508 75.56611633 C-124.86445369 75.61996656 -122.7762974 75.65403108 -120.6875 75.6875 C-119.2649428 75.7206957 -117.84241521 75.75518744 -116.41992188 75.79101562 C-112.94683085 75.87567601 -109.47366087 75.9426077 -106 76 C-106.33 75.34 -106.66 74.68 -107 74 C-108.43133939 62.95823898 -104.88024596 52.35912995 -98.3125 43.5 C-91.11111418 35.27177492 -81.48134715 30.70772436 -70.63720703 29.68188477 C-66.91998191 29.5266019 -63.22032928 29.49235287 -59.5 29.5 C-58.24574219 29.47164062 -56.99148437 29.44328125 -55.69921875 29.4140625 C-47.8235685 29.39756899 -41.48658094 30.25850548 -35 35 C-32.8480563 38.22791555 -32.79913557 39.28400809 -33 43 C-32.34 43 -31.68 43 -31 43 C-30.814375 42.278125 -30.62875 41.55625 -30.4375 40.8125 C-27.18732784 34.45346752 -20.44689241 32.14896414 -14 30 C-14.33 30 -14.66 30 -15 30 C-15 25.05 -15 20.1 -15 15 C-10.05 15 -5.1 15 0 15 C0 10.05 0 5.1 0 0 Z " fill="#EFF0EE" transform="translate(285,30)"/>
<path d="M0 0 C2.46843288 3.20896274 3.43022551 6.01157857 4 10 C5.1446875 8.453125 5.1446875 8.453125 6.3125 6.875 C13.38081149 -1.28328476 23.57634998 -4.56309497 34 -6 C50.36207513 -6.99499106 50.36207513 -6.99499106 55.9375 -3.9375 C57.66517802 -0.78702832 57.06084811 2.44575429 57 6 C55.92685547 6.02187378 55.92685547 6.02187378 54.83203125 6.04418945 C51.55417564 6.11919213 48.27728083 6.21567955 45 6.3125 C43.87464844 6.33505859 42.74929687 6.35761719 41.58984375 6.38085938 C33.08715544 6.65433765 25.16337075 7.50347408 19 14 C14.46198865 20.49361845 13.42925251 26.38571482 13.3359375 34.21484375 C13.72709262 37.13841143 13.72709262 37.13841143 16.10083008 38.64208984 C19.59866263 40.28040097 22.19498873 40.42968061 26.05078125 40.51171875 C27.03899117 40.53864555 27.03899117 40.53864555 28.04716492 40.56611633 C30.13554631 40.61996656 32.2237026 40.65403108 34.3125 40.6875 C35.7350572 40.7206957 37.15758479 40.75518744 38.58007812 40.79101562 C42.05316915 40.87567601 45.52633913 40.9426077 49 41 C48.67 40.34 48.34 39.68 48 39 C46.56866061 27.95823898 50.11975404 17.35912995 56.6875 8.5 C63.88888582 0.27177492 73.51865285 -4.29227564 84.36279297 -5.31811523 C88.08001809 -5.4733981 91.77967072 -5.50764713 95.5 -5.5 C96.75425781 -5.52835938 98.00851563 -5.55671875 99.30078125 -5.5859375 C107.1764315 -5.60243101 113.51341906 -4.74149452 120 0 C122.1519437 3.22791555 122.20086443 4.28400809 122 8 C122.66 8 123.32 8 124 8 C124.185625 7.278125 124.37125 6.55625 124.5625 5.8125 C126.92841314 1.1835395 130.98183007 -1.01552686 135.5625 -3.25 C140.42622674 -4.7465313 145.16978475 -5.12737545 150.23828125 -5.1328125 C151.38748047 -5.13410156 152.53667969 -5.13539062 153.72070312 -5.13671875 C154.90599609 -5.13285156 156.09128906 -5.12898438 157.3125 -5.125 C159.11944336 -5.13080078 159.11944336 -5.13080078 160.96289062 -5.13671875 C162.67702148 -5.13478516 162.67702148 -5.13478516 164.42578125 -5.1328125 C165.99453003 -5.13112061 165.99453003 -5.13112061 167.5949707 -5.12939453 C170 -5 170 -5 171 -4 C171.35897436 2.46153846 171.35897436 2.46153846 169 6 C166.7409668 6.40063477 166.7409668 6.40063477 163.94921875 6.44140625 C162.43618164 6.48104492 162.43618164 6.48104492 160.89257812 6.52148438 C159.83490234 6.53501953 158.77722656 6.54855469 157.6875 6.5625 C155.60791676 6.59709565 153.52844914 6.63978945 151.44921875 6.69140625 C150.52455811 6.70373291 149.59989746 6.71605957 148.6472168 6.72875977 C145.74927497 7.02568989 143.60787706 7.71336105 141 9 C138.19424475 12.66855793 136.9288006 16.81060996 135.625 21.1875 C135.41439941 21.87368408 135.20379883 22.55986816 134.98681641 23.2668457 C133.81768341 27.11961125 132.72101922 30.98790519 131.671875 34.875 C131.45450684 35.67784424 131.23713867 36.48068848 131.01318359 37.30786133 C130.5968397 38.86031119 130.1879505 40.41478516 129.78759766 41.97143555 C127.60899568 50.15180002 127.60899568 50.15180002 125 53 C122.21400429 53.38060051 120.06627249 53.47962905 117.3125 53.3125 C116.61060547 53.28994141 115.90871094 53.26738281 115.18554688 53.24414062 C113.4561167 53.18531647 111.72778562 53.09563389 110 53 C108.87809648 49.63428944 109.12457304 48.79247222 110.109375 45.5 C110.36831543 44.61723389 110.62725586 43.73446777 110.89404297 42.82495117 C111.17650879 41.89271729 111.45897461 40.9604834 111.75 40 C112.31033849 38.10039093 112.8702383 36.20065241 113.4296875 34.30078125 C113.83719238 32.93107178 113.83719238 32.93107178 114.25292969 31.53369141 C115.57702585 27.04301495 116.79241974 22.52312958 118 18 C117.21625 18.7425 116.4325 19.485 115.625 20.25 C108.04165647 26.49930802 98.52157536 27.88185011 89.0625 29.1875 C87.95970703 29.35185547 86.85691406 29.51621094 85.72070312 29.68554688 C78.82979456 30.68970877 71.94128959 31.44730798 65 32 C65.52268466 34.76276177 66.10869587 37.3260876 67 40 C86.8 40.495 86.8 40.495 107 41 C106 49 106 49 104.46386719 50.97509766 C100.87138371 52.46947396 97.4051383 52.42802553 93.578125 52.3984375 C92.34990021 52.40274277 92.34990021 52.40274277 91.09686279 52.40713501 C89.36534941 52.40917402 87.63381291 52.4036555 85.90234375 52.39111328 C83.27290224 52.37513913 80.64501708 52.39092401 78.015625 52.41015625 C76.32812165 52.40817218 74.64061925 52.40432512 72.953125 52.3984375 C72.17575989 52.40451019 71.39839478 52.41058289 70.59747314 52.4168396 C63.82804879 52.33117493 57.06143091 50.85053796 52 46 C52 45.34 52 44.68 52 44 C51.34 44 50.68 44 50 44 C49.9175 44.94875 49.835 45.8975 49.75 46.875 C49 50 49 50 47.3125 51.3125 C35.26653425 54.89373306 17.34902248 54.99517051 5.7421875 50.03515625 C0.46632943 47.14414177 -2.27480794 43.28005962 -5 38 C-5.34611328 39.03060547 -5.34611328 39.03060547 -5.69921875 40.08203125 C-8.37309645 47.46954315 -8.37309645 47.46954315 -11.4375 50.0625 C-16.79489706 52.02252331 -22.0086965 52.18575626 -27.66796875 52.23828125 C-28.50282303 52.246353 -29.33767731 52.25442474 -30.1978302 52.26274109 C-31.96202547 52.27653713 -33.72624693 52.2872792 -35.49047852 52.29516602 C-37.2796216 52.30666499 -39.06873094 52.32708378 -40.85766602 52.35668945 C-61.32440248 52.69493577 -61.32440248 52.69493577 -68 48 C-71.17407296 44.30389037 -71.48015911 42.00471176 -71.26953125 37.23828125 C-70.74622503 32.8925644 -69.47367815 30.22207456 -66.078125 27.40625 C-58.32168055 21.94999253 -50.68998097 19.67149351 -41.375 18.4375 C-40.50560791 18.31383057 -39.63621582 18.19016113 -38.74047852 18.06274414 C-34.72751108 17.49463776 -30.71045216 16.9606109 -26.69140625 16.4375 C-24.83322266 16.19 -24.83322266 16.19 -22.9375 15.9375 C-21.85339844 15.80214844 -20.76929688 15.66679688 -19.65234375 15.52734375 C-16.78562449 15.13282553 -16.78562449 15.13282553 -14 13 C-14.18828772 10.55519921 -14.18828772 10.55519921 -15 8 C-18.67867402 5.20605537 -23.0861072 5.74712149 -27.484375 5.8046875 C-28.29996887 5.8075174 -29.11556274 5.81034729 -29.95587158 5.81326294 C-32.55406528 5.82443442 -35.15191095 5.84953325 -37.75 5.875 C-39.51431793 5.88503373 -41.27864128 5.89415889 -43.04296875 5.90234375 C-47.36211273 5.92436381 -51.68099741 5.95887267 -56 6 C-55.2578125 -0.703125 -55.2578125 -0.703125 -52.9375 -3.375 C-40.43028798 -10.29388324 -11.32481987 -8.4333765 0 0 Z " fill="#80C343" transform="translate(130,65)"/>
<path d="M0 0 C4.95 0 9.9 0 15 0 C15 4.95 15 9.9 15 15 C19.95 15 24.9 15 30 15 C30 19.95 30 24.9 30 30 C34.95 30 39.9 30 45 30 C45 25.05 45 20.1 45 15 C49.95 15 54.9 15 60 15 C60.125 27.75 60.125 27.75 59 30 C56.68751822 30.65644644 54.4038898 31.22046048 52.0625 31.75 C42.40350414 34.14006767 35.00116469 37.86938978 29 46 C28.67 46 28.34 46 28 46 C27.26757812 43.02148438 27.26757812 43.02148438 26.53515625 40.04296875 C26.08989295 38.34316798 25.55566015 36.66698046 25 35 C22.70465742 33.86454438 22.70465742 33.86454438 20 33 C19.27167969 32.67257813 18.54335937 32.34515625 17.79296875 32.0078125 C14.37933376 30.77603932 11.16651859 30.36255274 7.5625 29.9375 C6.86962891 29.85516113 6.17675781 29.77282227 5.46289062 29.68798828 C-1.34551138 28.90585839 -8.15988329 28.42750729 -15 28 C-15 23.71 -15 19.42 -15 15 C-10.05 15 -5.1 15 0 15 C0 10.05 0 5.1 0 0 Z " fill="#F5F5F4" transform="translate(105,30)"/>
<path d="M0 0 C-0.28589851 1.70930812 -0.57901758 3.41740912 -0.875 5.125 C-1.03742188 6.07632813 -1.19984375 7.02765625 -1.3671875 8.0078125 C-2.02262934 11.10700044 -2.94602179 14.01520457 -4 17 C-8.20827473 17.05828635 -12.41644489 17.093693 -16.625 17.125 C-18.40970703 17.15013672 -18.40970703 17.15013672 -20.23046875 17.17578125 C-21.96103516 17.18544922 -21.96103516 17.18544922 -23.7265625 17.1953125 C-25.31331787 17.21102295 -25.31331787 17.21102295 -26.93212891 17.22705078 C-30.23363888 16.98270857 -32.91412763 16.16882977 -36 15 C-36.75 12.25 -36.75 12.25 -37 9 C-34.26489064 4.89733596 -30.58636524 4.0272138 -26 3 C-22.28243142 2.3633089 -18.55243863 1.86077069 -14.8125 1.375 C-13.82830078 1.2409375 -12.84410156 1.106875 -11.83007812 0.96875 C-7.82800708 0.43550328 -4.04667222 0 0 0 Z " fill="#EEF0ED" transform="translate(112,90)"/>
<path d="M0 0 C1.48306641 -0.01740234 1.48306641 -0.01740234 2.99609375 -0.03515625 C4.42501953 -0.02935547 4.42501953 -0.02935547 5.8828125 -0.0234375 C7.17662842 -0.01836182 7.17662842 -0.01836182 8.49658203 -0.01318359 C11.37980655 0.4573899 12.7646774 1.38188432 14.875 3.375 C15.4375 5.8125 15.4375 5.8125 14.875 8.375 C8.79496576 14.63385878 0.53134114 14.98622224 -7.6875 16 C-8.71552734 16.1340625 -9.74355469 16.268125 -10.80273438 16.40625 C-15.28011053 16.97498994 -19.60544892 17.45133517 -24.125 17.375 C-22.95492587 11.20551821 -21.64271814 7.79004272 -17.125 3.375 C-11.60487738 -0.29057039 -6.39385428 -0.0756172 0 0 Z " fill="#FCFDFB" transform="translate(221.125,69.625)"/>
<path d="M0 0 C4.95 0 9.9 0 15 0 C15 4.29 15 8.58 15 13 C19.62 13 24.24 13 29 13 C29 13.33 29 13.66 29 14 C27.94087402 14.06731323 27.94087402 14.06731323 26.86035156 14.13598633 C23.65580214 14.34753296 20.4530786 14.57978205 17.25 14.8125 C16.13882813 14.88275391 15.02765625 14.95300781 13.8828125 15.02539062 C12.27792969 15.14624023 12.27792969 15.14624023 10.640625 15.26953125 C9.65610352 15.33760986 8.67158203 15.40568848 7.65722656 15.47583008 C4.67502066 16.06410609 3.20968445 16.94270758 1 19 C0.10594825 21.02006441 0.10594825 21.02006441 -0.25 23.1875 C-0.4975 24.445625 -0.745 25.70375 -1 27 C-0.01 27.33 0.98 27.66 2 28 C1.34 28 0.68 28 0 28 C0 28.66 0 29.32 0 30 C-4.95 30 -9.9 30 -15 30 C-15 25.05 -15 20.1 -15 15 C-10.05 15 -5.1 15 0 15 C0 10.05 0 5.1 0 0 Z " fill="#FEFEFE" transform="translate(75,45)"/>
<path d="M0 0 C4.95 0 9.9 0 15 0 C15.33 3.96 15.66 7.92 16 12 C15.16855469 12.38671875 14.33710937 12.7734375 13.48046875 13.171875 C12.39378906 13.69265625 11.30710937 14.2134375 10.1875 14.75 C8.56908203 15.51570313 8.56908203 15.51570313 6.91796875 16.296875 C3.97583781 18.0141027 2.6259279 19.04765723 1 22 C0.21736061 24.80264419 0.21736061 24.80264419 -0.1875 27.75 C-0.34605469 28.73484375 -0.50460938 29.7196875 -0.66796875 30.734375 C-0.77753906 31.48203125 -0.88710938 32.2296875 -1 33 C-1.66 32.01 -2.32 31.02 -3 30 C-5.89608399 29.63501966 -5.89608399 29.63501966 -9.125 29.8125 C-12.033125 29.9053125 -12.033125 29.9053125 -15 30 C-15 25.05 -15 20.1 -15 15 C-10.05 15 -5.1 15 0 15 C0 10.05 0 5.1 0 0 Z " fill="#ECEDEC" transform="translate(60,75)"/>
<path d="M0 0 C0.66612305 0.35151123 1.33224609 0.70302246 2.01855469 1.06518555 C11.20235134 5.44316597 19.30093958 5.77680539 29.25 5.8125 C30.7851909 5.83570147 32.32035052 5.86107828 33.85546875 5.88867188 C37.57028936 5.95080058 41.28466184 5.98370466 45 6 C45 6.99 45 7.98 45 9 C40.05 9 35.1 9 30 9 C30 13.95 30 18.9 30 24 C25.05 24 20.1 24 15 24 C15 19.05 15 14.1 15 9 C10.05 9 5.1 9 0 9 C0 6.03 0 3.06 0 0 Z " fill="#EDEEED" transform="translate(60,111)"/>
<path d="M0 0 C0 4.95 0 9.9 0 15 C-4.95 15 -9.9 15 -15 15 C-15 19.62 -15 24.24 -15 29 C-16.32 29.33 -17.64 29.66 -19 30 C-20.71875 28.94140625 -20.71875 28.94140625 -22 27 C-23.44107183 18.43763156 -21.99419836 11.06032611 -17 4 C-11.79053097 -2.83577535 -7.95382221 -2.39704231 0 0 Z " fill="#EDEEEC" transform="translate(165,75)"/>
<path d="M0 0 C4.95 0 9.9 0 15 0 C15 4.95 15 9.9 15 15 C18.96 15 22.92 15 27 15 C26 18 26 18 24.0390625 19.2109375 C23.24242187 19.59507813 22.44578125 19.97921875 21.625 20.375 C17.75253894 22.39408033 15.9451734 23.99523124 14 28 C13.34 28 12.68 28 12 28 C11.855625 26.948125 11.71125 25.89625 11.5625 24.8125 C10.82066162 22.077663 10.23591468 21.16926221 7.8984375 19.4921875 C6.28451685 18.63655337 4.65006796 17.81835186 2.99609375 17.04296875 C1 16 1 16 0 14 C-0.13996069 9.33091139 -0.04247285 4.67201378 0 0 Z " fill="#F0F1EF" transform="translate(240,45)"/>
<path d="M0 0 C4.95 0 9.9 0 15 0 C15.33 4.62 15.66 9.24 16 14 C17.32 14.33 18.64 14.66 20 15 C13.05466277 17.90735047 7.29497194 16.35370613 0 15 C0 10.05 0 5.1 0 0 Z " fill="#FEFEFD" transform="translate(255,45)"/>
<path d="M0 0 C4.95 0 9.9 0 15 0 C16.25 10.375 16.25 10.375 14 16 C7.07 15.505 7.07 15.505 0 15 C0 10.05 0 5.1 0 0 Z " fill="#FEFEFE" transform="translate(165,75)"/>
<path d="M0 0 C4.95 0 9.9 0 15 0 C15.495 7.92 15.495 7.92 16 16 C13.69 15.67 11.38 15.34 9 15 C7.38853618 14.86967583 5.7750007 14.76155176 4.16015625 14.68359375 C3.32548828 14.64169922 2.49082031 14.59980469 1.63085938 14.55664062 C0.78330078 14.51732422 -0.06425781 14.47800781 -0.9375 14.4375 C-2.24944336 14.37272461 -2.24944336 14.37272461 -3.58789062 14.30664062 C-5.72511995 14.20153099 -7.86254238 14.10036015 -10 14 C-10 13.67 -10 13.34 -10 13 C-6.7 13 -3.4 13 0 13 C0 8.71 0 4.42 0 0 Z " fill="#FEFEFE" transform="translate(225,45)"/>
<path d="M0 0 C4.95 0 9.9 0 15 0 C15 4.95 15 9.9 15 15 C10.05 15 5.1 15 0 15 C0 10.05 0 5.1 0 0 Z " fill="#EEEEEE" transform="translate(345,150)"/>
<path d="M0 0 C4.95 0 9.9 0 15 0 C15 4.95 15 9.9 15 15 C10.05 15 5.1 15 0 15 C0 10.05 0 5.1 0 0 Z " fill="#FFFFFF" transform="translate(330,150)"/>
<path d="M0 0 C4.95 0 9.9 0 15 0 C15 4.95 15 9.9 15 15 C10.05 15 5.1 15 0 15 C0 10.05 0 5.1 0 0 Z " fill="#EEEEEE" transform="translate(315,150)"/>
<path d="M0 0 C4.95 0 9.9 0 15 0 C15 4.95 15 9.9 15 15 C10.05 15 5.1 15 0 15 C0 10.05 0 5.1 0 0 Z " fill="#FFFFFF" transform="translate(300,150)"/>
<path d="M0 0 C4.95 0 9.9 0 15 0 C15 4.95 15 9.9 15 15 C10.05 15 5.1 15 0 15 C0 10.05 0 5.1 0 0 Z " fill="#EEEEEE" transform="translate(285,150)"/>
<path d="M0 0 C4.95 0 9.9 0 15 0 C15 4.95 15 9.9 15 15 C10.05 15 5.1 15 0 15 C0 10.05 0 5.1 0 0 Z " fill="#FFFFFF" transform="translate(270,150)"/>
<path d="M0 0 C4.95 0 9.9 0 15 0 C15 4.95 15 9.9 15 15 C10.05 15 5.1 15 0 15 C0 10.05 0 5.1 0 0 Z " fill="#EEEEEE" transform="translate(255,150)"/>
<path d="M0 0 C4.95 0 9.9 0 15 0 C15 4.95 15 9.9 15 15 C10.05 15 5.1 15 0 15 C0 10.05 0 5.1 0 0 Z " fill="#FFFFFF" transform="translate(240,150)"/>
<path d="M0 0 C4.95 0 9.9 0 15 0 C15 4.95 15 9.9 15 15 C10.05 15 5.1 15 0 15 C0 10.05 0 5.1 0 0 Z " fill="#EEEEEE" transform="translate(225,150)"/>
<path d="M0 0 C4.95 0 9.9 0 15 0 C15 4.95 15 9.9 15 15 C10.05 15 5.1 15 0 15 C0 10.05 0 5.1 0 0 Z " fill="#FFFFFF" transform="translate(210,150)"/>
<path d="M0 0 C4.95 0 9.9 0 15 0 C15 4.95 15 9.9 15 15 C10.05 15 5.1 15 0 15 C0 10.05 0 5.1 0 0 Z " fill="#EEEEEE" transform="translate(195,150)"/>
<path d="M0 0 C4.95 0 9.9 0 15 0 C15 4.95 15 9.9 15 15 C10.05 15 5.1 15 0 15 C0 10.05 0 5.1 0 0 Z " fill="#FFFFFF" transform="translate(180,150)"/>
<path d="M0 0 C4.95 0 9.9 0 15 0 C15 4.95 15 9.9 15 15 C10.05 15 5.1 15 0 15 C0 10.05 0 5.1 0 0 Z " fill="#EEEEEE" transform="translate(165,150)"/>
<path d="M0 0 C4.95 0 9.9 0 15 0 C15 4.95 15 9.9 15 15 C10.05 15 5.1 15 0 15 C0 10.05 0 5.1 0 0 Z " fill="#FFFFFF" transform="translate(150,150)"/>
<path d="M0 0 C4.95 0 9.9 0 15 0 C15 4.95 15 9.9 15 15 C10.05 15 5.1 15 0 15 C0 10.05 0 5.1 0 0 Z " fill="#EEEEEE" transform="translate(135,150)"/>
<path d="M0 0 C4.95 0 9.9 0 15 0 C15 4.95 15 9.9 15 15 C10.05 15 5.1 15 0 15 C0 10.05 0 5.1 0 0 Z " fill="#FFFFFF" transform="translate(120,150)"/>
<path d="M0 0 C4.95 0 9.9 0 15 0 C15 4.95 15 9.9 15 15 C10.05 15 5.1 15 0 15 C0 10.05 0 5.1 0 0 Z " fill="#EEEEEE" transform="translate(105,150)"/>
<path d="M0 0 C4.95 0 9.9 0 15 0 C15 4.95 15 9.9 15 15 C10.05 15 5.1 15 0 15 C0 10.05 0 5.1 0 0 Z " fill="#FFFFFF" transform="translate(90,150)"/>
<path d="M0 0 C4.95 0 9.9 0 15 0 C15 4.95 15 9.9 15 15 C10.05 15 5.1 15 0 15 C0 10.05 0 5.1 0 0 Z " fill="#EEEEEE" transform="translate(75,150)"/>
<path d="M0 0 C4.95 0 9.9 0 15 0 C15 4.95 15 9.9 15 15 C10.05 15 5.1 15 0 15 C0 10.05 0 5.1 0 0 Z " fill="#FFFFFF" transform="translate(60,150)"/>
<path d="M0 0 C4.95 0 9.9 0 15 0 C15 4.95 15 9.9 15 15 C10.05 15 5.1 15 0 15 C0 10.05 0 5.1 0 0 Z " fill="#EEEEEE" transform="translate(45,150)"/>
<path d="M0 0 C4.95 0 9.9 0 15 0 C15 4.95 15 9.9 15 15 C10.05 15 5.1 15 0 15 C0 10.05 0 5.1 0 0 Z " fill="#FFFFFF" transform="translate(30,150)"/>
<path d="M0 0 C4.95 0 9.9 0 15 0 C15 4.95 15 9.9 15 15 C10.05 15 5.1 15 0 15 C0 10.05 0 5.1 0 0 Z " fill="#EEEEEE" transform="translate(15,150)"/>
<path d="M0 0 C4.95 0 9.9 0 15 0 C15 4.95 15 9.9 15 15 C10.05 15 5.1 15 0 15 C0 10.05 0 5.1 0 0 Z " fill="#FFFFFF" transform="translate(345,135)"/>
<path d="M0 0 C4.95 0 9.9 0 15 0 C15 4.95 15 9.9 15 15 C10.05 15 5.1 15 0 15 C0 10.05 0 5.1 0 0 Z " fill="#EEEEEE" transform="translate(330,135)"/>
<path d="M0 0 C4.95 0 9.9 0 15 0 C15 4.95 15 9.9 15 15 C10.05 15 5.1 15 0 15 C0 10.05 0 5.1 0 0 Z " fill="#FFFFFF" transform="translate(315,135)"/>
<path d="M0 0 C4.95 0 9.9 0 15 0 C15 4.95 15 9.9 15 15 C10.05 15 5.1 15 0 15 C0 10.05 0 5.1 0 0 Z " fill="#EEEEEE" transform="translate(300,135)"/>
<path d="M0 0 C4.95 0 9.9 0 15 0 C15 4.95 15 9.9 15 15 C10.05 15 5.1 15 0 15 C0 10.05 0 5.1 0 0 Z " fill="#FFFFFF" transform="translate(285,135)"/>
<path d="M0 0 C4.95 0 9.9 0 15 0 C15 4.95 15 9.9 15 15 C10.05 15 5.1 15 0 15 C0 10.05 0 5.1 0 0 Z " fill="#EEEEEE" transform="translate(270,135)"/>
<path d="M0 0 C4.95 0 9.9 0 15 0 C15 4.95 15 9.9 15 15 C10.05 15 5.1 15 0 15 C0 10.05 0 5.1 0 0 Z " fill="#FFFFFF" transform="translate(255,135)"/>
<path d="M0 0 C4.95 0 9.9 0 15 0 C15 4.95 15 9.9 15 15 C10.05 15 5.1 15 0 15 C0 10.05 0 5.1 0 0 Z " fill="#EEEEEE" transform="translate(240,135)"/>
<path d="M0 0 C4.95 0 9.9 0 15 0 C15 4.95 15 9.9 15 15 C10.05 15 5.1 15 0 15 C0 10.05 0 5.1 0 0 Z " fill="#FFFFFF" transform="translate(225,135)"/>
<path d="M0 0 C4.95 0 9.9 0 15 0 C15 4.95 15 9.9 15 15 C10.05 15 5.1 15 0 15 C0 10.05 0 5.1 0 0 Z " fill="#EEEEEE" transform="translate(210,135)"/>
<path d="M0 0 C4.95 0 9.9 0 15 0 C15 4.95 15 9.9 15 15 C10.05 15 5.1 15 0 15 C0 10.05 0 5.1 0 0 Z " fill="#FFFFFF" transform="translate(195,135)"/>
<path d="M0 0 C4.95 0 9.9 0 15 0 C15 4.95 15 9.9 15 15 C10.05 15 5.1 15 0 15 C0 10.05 0 5.1 0 0 Z " fill="#EEEEEE" transform="translate(180,135)"/>
<path d="M0 0 C4.95 0 9.9 0 15 0 C15 4.95 15 9.9 15 15 C10.05 15 5.1 15 0 15 C0 10.05 0 5.1 0 0 Z " fill="#FFFFFF" transform="translate(165,135)"/>
<path d="M0 0 C4.95 0 9.9 0 15 0 C15 4.95 15 9.9 15 15 C10.05 15 5.1 15 0 15 C0 10.05 0 5.1 0 0 Z " fill="#EEEEEE" transform="translate(150,135)"/>
<path d="M0 0 C4.95 0 9.9 0 15 0 C15 4.95 15 9.9 15 15 C10.05 15 5.1 15 0 15 C0 10.05 0 5.1 0 0 Z " fill="#FFFFFF" transform="translate(135,135)"/>
<path d="M0 0 C4.95 0 9.9 0 15 0 C15 4.95 15 9.9 15 15 C10.05 15 5.1 15 0 15 C0 10.05 0 5.1 0 0 Z " fill="#EEEEEE" transform="translate(120,135)"/>
<path d="M0 0 C4.95 0 9.9 0 15 0 C15 4.95 15 9.9 15 15 C10.05 15 5.1 15 0 15 C0 10.05 0 5.1 0 0 Z " fill="#FFFFFF" transform="translate(105,135)"/>
<path d="M0 0 C4.95 0 9.9 0 15 0 C15 4.95 15 9.9 15 15 C10.05 15 5.1 15 0 15 C0 10.05 0 5.1 0 0 Z " fill="#EEEEEE" transform="translate(90,135)"/>
<path d="M0 0 C4.95 0 9.9 0 15 0 C15 4.95 15 9.9 15 15 C10.05 15 5.1 15 0 15 C0 10.05 0 5.1 0 0 Z " fill="#FFFFFF" transform="translate(75,135)"/>
<path d="M0 0 C4.95 0 9.9 0 15 0 C15 4.95 15 9.9 15 15 C10.05 15 5.1 15 0 15 C0 10.05 0 5.1 0 0 Z " fill="#EEEEEE" transform="translate(60,135)"/>
<path d="M0 0 C4.95 0 9.9 0 15 0 C15 4.95 15 9.9 15 15 C10.05 15 5.1 15 0 15 C0 10.05 0 5.1 0 0 Z " fill="#FFFFFF" transform="translate(45,135)"/>
<path d="M0 0 C4.95 0 9.9 0 15 0 C15 4.95 15 9.9 15 15 C10.05 15 5.1 15 0 15 C0 10.05 0 5.1 0 0 Z " fill="#EEEEEE" transform="translate(30,135)"/>
<path d="M0 0 C4.95 0 9.9 0 15 0 C15 4.95 15 9.9 15 15 C10.05 15 5.1 15 0 15 C0 10.05 0 5.1 0 0 Z " fill="#FFFFFF" transform="translate(15,135)"/>
<path d="M0 0 C4.95 0 9.9 0 15 0 C15 4.95 15 9.9 15 15 C10.05 15 5.1 15 0 15 C0 10.05 0 5.1 0 0 Z " fill="#EEEEEE" transform="translate(0,135)"/>
<path d="M0 0 C4.95 0 9.9 0 15 0 C15 4.95 15 9.9 15 15 C10.05 15 5.1 15 0 15 C0 10.05 0 5.1 0 0 Z " fill="#EEEEEE" transform="translate(345,120)"/>
<path d="M0 0 C4.95 0 9.9 0 15 0 C15 4.95 15 9.9 15 15 C10.05 15 5.1 15 0 15 C0 10.05 0 5.1 0 0 Z " fill="#FFFFFF" transform="translate(330,120)"/>
<path d="M0 0 C4.95 0 9.9 0 15 0 C15 4.95 15 9.9 15 15 C10.05 15 5.1 15 0 15 C0 10.05 0 5.1 0 0 Z " fill="#EEEEEE" transform="translate(315,120)"/>
<path d="M0 0 C4.95 0 9.9 0 15 0 C15 4.95 15 9.9 15 15 C10.05 15 5.1 15 0 15 C0 10.05 0 5.1 0 0 Z " fill="#FFFFFF" transform="translate(300,120)"/>
<path d="M0 0 C4.95 0 9.9 0 15 0 C15 4.95 15 9.9 15 15 C10.05 15 5.1 15 0 15 C0 10.05 0 5.1 0 0 Z " fill="#EEEEEE" transform="translate(285,120)"/>
<path d="M0 0 C4.95 0 9.9 0 15 0 C15 4.95 15 9.9 15 15 C10.05 15 5.1 15 0 15 C0 10.05 0 5.1 0 0 Z " fill="#FFFFFF" transform="translate(270,120)"/>
<path d="M0 0 C4.95 0 9.9 0 15 0 C15 4.95 15 9.9 15 15 C10.05 15 5.1 15 0 15 C0 10.05 0 5.1 0 0 Z " fill="#EEEEEE" transform="translate(255,120)"/>
<path d="M0 0 C4.95 0 9.9 0 15 0 C15 4.95 15 9.9 15 15 C10.05 15 5.1 15 0 15 C0 10.05 0 5.1 0 0 Z " fill="#FFFFFF" transform="translate(240,120)"/>
<path d="M0 0 C4.95 0 9.9 0 15 0 C15 4.95 15 9.9 15 15 C10.05 15 5.1 15 0 15 C0 10.05 0 5.1 0 0 Z " fill="#EEEEEE" transform="translate(225,120)"/>
<path d="M0 0 C4.95 0 9.9 0 15 0 C15 4.95 15 9.9 15 15 C10.05 15 5.1 15 0 15 C0 10.05 0 5.1 0 0 Z " fill="#FFFFFF" transform="translate(210,120)"/>
<path d="M0 0 C4.95 0 9.9 0 15 0 C15 4.95 15 9.9 15 15 C10.05 15 5.1 15 0 15 C0 10.05 0 5.1 0 0 Z " fill="#FFFFFF" transform="translate(180,120)"/>
<path d="M0 0 C4.95 0 9.9 0 15 0 C15 4.95 15 9.9 15 15 C10.05 15 5.1 15 0 15 C0 10.05 0 5.1 0 0 Z " fill="#EEEEEE" transform="translate(165,120)"/>
<path d="M0 0 C4.95 0 9.9 0 15 0 C15 4.95 15 9.9 15 15 C10.05 15 5.1 15 0 15 C0 10.05 0 5.1 0 0 Z " fill="#EEEEEE" transform="translate(135,120)"/>
<path d="M0 0 C4.95 0 9.9 0 15 0 C15 4.95 15 9.9 15 15 C10.05 15 5.1 15 0 15 C0 10.05 0 5.1 0 0 Z " fill="#FFFFFF" transform="translate(120,120)"/>
<path d="M0 0 C4.95 0 9.9 0 15 0 C15 4.95 15 9.9 15 15 C10.05 15 5.1 15 0 15 C0 10.05 0 5.1 0 0 Z " fill="#FFFFFF" transform="translate(90,120)"/>
<path d="M0 0 C4.95 0 9.9 0 15 0 C15 4.95 15 9.9 15 15 C10.05 15 5.1 15 0 15 C0 10.05 0 5.1 0 0 Z " fill="#FFFFFF" transform="translate(60,120)"/>
<path d="M0 0 C4.95 0 9.9 0 15 0 C15 4.95 15 9.9 15 15 C10.05 15 5.1 15 0 15 C0 10.05 0 5.1 0 0 Z " fill="#EEEEEE" transform="translate(45,120)"/>
<path d="M0 0 C4.95 0 9.9 0 15 0 C15 4.95 15 9.9 15 15 C10.05 15 5.1 15 0 15 C0 10.05 0 5.1 0 0 Z " fill="#FFFFFF" transform="translate(30,120)"/>
<path d="M0 0 C4.95 0 9.9 0 15 0 C15 4.95 15 9.9 15 15 C10.05 15 5.1 15 0 15 C0 10.05 0 5.1 0 0 Z " fill="#EEEEEE" transform="translate(15,120)"/>
<path d="M0 0 C4.95 0 9.9 0 15 0 C15 4.95 15 9.9 15 15 C10.05 15 5.1 15 0 15 C0 10.05 0 5.1 0 0 Z " fill="#FFFFFF" transform="translate(0,120)"/>
<path d="M0 0 C4.95 0 9.9 0 15 0 C15 4.95 15 9.9 15 15 C10.05 15 5.1 15 0 15 C0 10.05 0 5.1 0 0 Z " fill="#FFFFFF" transform="translate(345,105)"/>
<path d="M0 0 C4.95 0 9.9 0 15 0 C15 4.95 15 9.9 15 15 C10.05 15 5.1 15 0 15 C0 10.05 0 5.1 0 0 Z " fill="#EEEEEE" transform="translate(330,105)"/>
<path d="M0 0 C4.95 0 9.9 0 15 0 C15 4.95 15 9.9 15 15 C10.05 15 5.1 15 0 15 C0 10.05 0 5.1 0 0 Z " fill="#FFFFFF" transform="translate(315,105)"/>
<path d="M0 0 C4.95 0 9.9 0 15 0 C15 4.95 15 9.9 15 15 C10.05 15 5.1 15 0 15 C0 10.05 0 5.1 0 0 Z " fill="#EEEEEE" transform="translate(300,105)"/>
<path d="M0 0 C4.95 0 9.9 0 15 0 C15 4.95 15 9.9 15 15 C10.05 15 5.1 15 0 15 C0 10.05 0 5.1 0 0 Z " fill="#FFFFFF" transform="translate(285,105)"/>
<path d="M0 0 C4.95 0 9.9 0 15 0 C15 4.95 15 9.9 15 15 C10.05 15 5.1 15 0 15 C0 10.05 0 5.1 0 0 Z " fill="#FFFFFF" transform="translate(15,105)"/>
<path d="M0 0 C4.95 0 9.9 0 15 0 C15 4.95 15 9.9 15 15 C10.05 15 5.1 15 0 15 C0 10.05 0 5.1 0 0 Z " fill="#EEEEEE" transform="translate(0,105)"/>
<path d="M0 0 C4.95 0 9.9 0 15 0 C15 4.95 15 9.9 15 15 C10.05 15 5.1 15 0 15 C0 10.05 0 5.1 0 0 Z " fill="#EEEEEE" transform="translate(345,90)"/>
<path d="M0 0 C4.95 0 9.9 0 15 0 C15 4.95 15 9.9 15 15 C10.05 15 5.1 15 0 15 C0 10.05 0 5.1 0 0 Z " fill="#FFFFFF" transform="translate(330,90)"/>
<path d="M0 0 C4.95 0 9.9 0 15 0 C15 4.95 15 9.9 15 15 C10.05 15 5.1 15 0 15 C0 10.05 0 5.1 0 0 Z " fill="#EEEEEE" transform="translate(315,90)"/>
<path d="M0 0 C4.95 0 9.9 0 15 0 C15 4.95 15 9.9 15 15 C10.05 15 5.1 15 0 15 C0 10.05 0 5.1 0 0 Z " fill="#FFFFFF" transform="translate(300,90)"/>
<path d="M0 0 C4.95 0 9.9 0 15 0 C15 4.95 15 9.9 15 15 C10.05 15 5.1 15 0 15 C0 10.05 0 5.1 0 0 Z " fill="#EEEEEE" transform="translate(285,90)"/>
<path d="M0 0 C4.95 0 9.9 0 15 0 C15 4.95 15 9.9 15 15 C10.05 15 5.1 15 0 15 C0 10.05 0 5.1 0 0 Z " fill="#FFFFFF" transform="translate(270,90)"/>
<path d="M0 0 C4.95 0 9.9 0 15 0 C15 4.95 15 9.9 15 15 C10.05 15 5.1 15 0 15 C0 10.05 0 5.1 0 0 Z " fill="#FFFFFF" transform="translate(30,90)"/>
<path d="M0 0 C4.95 0 9.9 0 15 0 C15 4.95 15 9.9 15 15 C10.05 15 5.1 15 0 15 C0 10.05 0 5.1 0 0 Z " fill="#EEEEEE" transform="translate(15,90)"/>
<path d="M0 0 C4.95 0 9.9 0 15 0 C15 4.95 15 9.9 15 15 C10.05 15 5.1 15 0 15 C0 10.05 0 5.1 0 0 Z " fill="#FFFFFF" transform="translate(0,90)"/>
<path d="M0 0 C4.95 0 9.9 0 15 0 C15 4.95 15 9.9 15 15 C10.05 15 5.1 15 0 15 C0 10.05 0 5.1 0 0 Z " fill="#FFFFFF" transform="translate(345,75)"/>
<path d="M0 0 C4.95 0 9.9 0 15 0 C15 4.95 15 9.9 15 15 C10.05 15 5.1 15 0 15 C0 10.05 0 5.1 0 0 Z " fill="#EEEEEE" transform="translate(330,75)"/>
<path d="M0 0 C4.95 0 9.9 0 15 0 C15 4.95 15 9.9 15 15 C10.05 15 5.1 15 0 15 C0 10.05 0 5.1 0 0 Z " fill="#FFFFFF" transform="translate(315,75)"/>
<path d="M0 0 C4.95 0 9.9 0 15 0 C15 4.95 15 9.9 15 15 C10.05 15 5.1 15 0 15 C0 10.05 0 5.1 0 0 Z " fill="#EEEEEE" transform="translate(300,75)"/>
<path d="M0 0 C4.95 0 9.9 0 15 0 C15 4.95 15 9.9 15 15 C10.05 15 5.1 15 0 15 C0 10.05 0 5.1 0 0 Z " fill="#FFFFFF" transform="translate(285,75)"/>
<path d="M0 0 C4.95 0 9.9 0 15 0 C15 4.95 15 9.9 15 15 C10.05 15 5.1 15 0 15 C0 10.05 0 5.1 0 0 Z " fill="#FFFFFF" transform="translate(45,75)"/>
<path d="M0 0 C4.95 0 9.9 0 15 0 C15 4.95 15 9.9 15 15 C10.05 15 5.1 15 0 15 C0 10.05 0 5.1 0 0 Z " fill="#EEEEEE" transform="translate(30,75)"/>
<path d="M0 0 C4.95 0 9.9 0 15 0 C15 4.95 15 9.9 15 15 C10.05 15 5.1 15 0 15 C0 10.05 0 5.1 0 0 Z " fill="#FFFFFF" transform="translate(15,75)"/>
<path d="M0 0 C4.95 0 9.9 0 15 0 C15 4.95 15 9.9 15 15 C10.05 15 5.1 15 0 15 C0 10.05 0 5.1 0 0 Z " fill="#EEEEEE" transform="translate(0,75)"/>
<path d="M0 0 C4.95 0 9.9 0 15 0 C15 4.95 15 9.9 15 15 C10.05 15 5.1 15 0 15 C0 10.05 0 5.1 0 0 Z " fill="#EEEEEE" transform="translate(345,60)"/>
<path d="M0 0 C4.95 0 9.9 0 15 0 C15 4.95 15 9.9 15 15 C10.05 15 5.1 15 0 15 C0 10.05 0 5.1 0 0 Z " fill="#FFFFFF" transform="translate(330,60)"/>
<path d="M0 0 C4.95 0 9.9 0 15 0 C15 4.95 15 9.9 15 15 C10.05 15 5.1 15 0 15 C0 10.05 0 5.1 0 0 Z " fill="#EEEEEE" transform="translate(45,60)"/>
<path d="M0 0 C4.95 0 9.9 0 15 0 C15 4.95 15 9.9 15 15 C10.05 15 5.1 15 0 15 C0 10.05 0 5.1 0 0 Z " fill="#FFFFFF" transform="translate(30,60)"/>
<path d="M0 0 C4.95 0 9.9 0 15 0 C15 4.95 15 9.9 15 15 C10.05 15 5.1 15 0 15 C0 10.05 0 5.1 0 0 Z " fill="#EEEEEE" transform="translate(15,60)"/>
<path d="M0 0 C4.95 0 9.9 0 15 0 C15 4.95 15 9.9 15 15 C10.05 15 5.1 15 0 15 C0 10.05 0 5.1 0 0 Z " fill="#FFFFFF" transform="translate(0,60)"/>
<path d="M0 0 C4.95 0 9.9 0 15 0 C15 4.95 15 9.9 15 15 C10.05 15 5.1 15 0 15 C0 10.05 0 5.1 0 0 Z " fill="#FFFFFF" transform="translate(345,45)"/>
<path d="M0 0 C4.95 0 9.9 0 15 0 C15 4.95 15 9.9 15 15 C10.05 15 5.1 15 0 15 C0 10.05 0 5.1 0 0 Z " fill="#EEEEEE" transform="translate(330,45)"/>
<path d="M0 0 C4.95 0 9.9 0 15 0 C15 4.95 15 9.9 15 15 C10.05 15 5.1 15 0 15 C0 10.05 0 5.1 0 0 Z " fill="#FFFFFF" transform="translate(315,45)"/>
<path d="M0 0 C4.95 0 9.9 0 15 0 C15 4.95 15 9.9 15 15 C10.05 15 5.1 15 0 15 C0 10.05 0 5.1 0 0 Z " fill="#FFFFFF" transform="translate(135,45)"/>
<path d="M0 0 C4.95 0 9.9 0 15 0 C15 4.95 15 9.9 15 15 C10.05 15 5.1 15 0 15 C0 10.05 0 5.1 0 0 Z " fill="#EEEEEE" transform="translate(60,45)"/>
<path d="M0 0 C4.95 0 9.9 0 15 0 C15 4.95 15 9.9 15 15 C10.05 15 5.1 15 0 15 C0 10.05 0 5.1 0 0 Z " fill="#FFFFFF" transform="translate(45,45)"/>
<path d="M0 0 C4.95 0 9.9 0 15 0 C15 4.95 15 9.9 15 15 C10.05 15 5.1 15 0 15 C0 10.05 0 5.1 0 0 Z " fill="#EEEEEE" transform="translate(30,45)"/>
<path d="M0 0 C4.95 0 9.9 0 15 0 C15 4.95 15 9.9 15 15 C10.05 15 5.1 15 0 15 C0 10.05 0 5.1 0 0 Z " fill="#FFFFFF" transform="translate(15,45)"/>
<path d="M0 0 C4.95 0 9.9 0 15 0 C15 4.95 15 9.9 15 15 C10.05 15 5.1 15 0 15 C0 10.05 0 5.1 0 0 Z " fill="#EEEEEE" transform="translate(0,45)"/>
<path d="M0 0 C4.95 0 9.9 0 15 0 C15 4.95 15 9.9 15 15 C10.05 15 5.1 15 0 15 C0 10.05 0 5.1 0 0 Z " fill="#EEEEEE" transform="translate(345,30)"/>
<path d="M0 0 C4.95 0 9.9 0 15 0 C15 4.95 15 9.9 15 15 C10.05 15 5.1 15 0 15 C0 10.05 0 5.1 0 0 Z " fill="#FFFFFF" transform="translate(330,30)"/>
<path d="M0 0 C4.95 0 9.9 0 15 0 C15 4.95 15 9.9 15 15 C10.05 15 5.1 15 0 15 C0 10.05 0 5.1 0 0 Z " fill="#EEEEEE" transform="translate(315,30)"/>
<path d="M0 0 C4.95 0 9.9 0 15 0 C15 4.95 15 9.9 15 15 C10.05 15 5.1 15 0 15 C0 10.05 0 5.1 0 0 Z " fill="#FFFFFF" transform="translate(300,30)"/>
<path d="M0 0 C4.95 0 9.9 0 15 0 C15 4.95 15 9.9 15 15 C10.05 15 5.1 15 0 15 C0 10.05 0 5.1 0 0 Z " fill="#FFFFFF" transform="translate(270,30)"/>
<path d="M0 0 C4.95 0 9.9 0 15 0 C15 4.95 15 9.9 15 15 C10.05 15 5.1 15 0 15 C0 10.05 0 5.1 0 0 Z " fill="#EEEEEE" transform="translate(255,30)"/>
<path d="M0 0 C4.95 0 9.9 0 15 0 C15 4.95 15 9.9 15 15 C10.05 15 5.1 15 0 15 C0 10.05 0 5.1 0 0 Z " fill="#FFFFFF" transform="translate(240,30)"/>
<path d="M0 0 C4.95 0 9.9 0 15 0 C15 4.95 15 9.9 15 15 C10.05 15 5.1 15 0 15 C0 10.05 0 5.1 0 0 Z " fill="#EEEEEE" transform="translate(225,30)"/>
<path d="M0 0 C4.95 0 9.9 0 15 0 C15 4.95 15 9.9 15 15 C10.05 15 5.1 15 0 15 C0 10.05 0 5.1 0 0 Z " fill="#FFFFFF" transform="translate(210,30)"/>
<path d="M0 0 C4.95 0 9.9 0 15 0 C15 4.95 15 9.9 15 15 C10.05 15 5.1 15 0 15 C0 10.05 0 5.1 0 0 Z " fill="#EEEEEE" transform="translate(195,30)"/>
<path d="M0 0 C4.95 0 9.9 0 15 0 C15 4.95 15 9.9 15 15 C10.05 15 5.1 15 0 15 C0 10.05 0 5.1 0 0 Z " fill="#FFFFFF" transform="translate(180,30)"/>
<path d="M0 0 C4.95 0 9.9 0 15 0 C15 4.95 15 9.9 15 15 C10.05 15 5.1 15 0 15 C0 10.05 0 5.1 0 0 Z " fill="#FFFFFF" transform="translate(150,30)"/>
<path d="M0 0 C4.95 0 9.9 0 15 0 C15 4.95 15 9.9 15 15 C10.05 15 5.1 15 0 15 C0 10.05 0 5.1 0 0 Z " fill="#EEEEEE" transform="translate(135,30)"/>
<path d="M0 0 C4.95 0 9.9 0 15 0 C15 4.95 15 9.9 15 15 C10.05 15 5.1 15 0 15 C0 10.05 0 5.1 0 0 Z " fill="#FFFFFF" transform="translate(120,30)"/>
<path d="M0 0 C4.95 0 9.9 0 15 0 C15 4.95 15 9.9 15 15 C10.05 15 5.1 15 0 15 C0 10.05 0 5.1 0 0 Z " fill="#EEEEEE" transform="translate(105,30)"/>
<path d="M0 0 C4.95 0 9.9 0 15 0 C15 4.95 15 9.9 15 15 C10.05 15 5.1 15 0 15 C0 10.05 0 5.1 0 0 Z " fill="#FFFFFF" transform="translate(90,30)"/>
<path d="M0 0 C4.95 0 9.9 0 15 0 C15 4.95 15 9.9 15 15 C10.05 15 5.1 15 0 15 C0 10.05 0 5.1 0 0 Z " fill="#EEEEEE" transform="translate(75,30)"/>
<path d="M0 0 C4.95 0 9.9 0 15 0 C15 4.95 15 9.9 15 15 C10.05 15 5.1 15 0 15 C0 10.05 0 5.1 0 0 Z " fill="#FFFFFF" transform="translate(60,30)"/>
<path d="M0 0 C4.95 0 9.9 0 15 0 C15 4.95 15 9.9 15 15 C10.05 15 5.1 15 0 15 C0 10.05 0 5.1 0 0 Z " fill="#EEEEEE" transform="translate(45,30)"/>
<path d="M0 0 C4.95 0 9.9 0 15 0 C15 4.95 15 9.9 15 15 C10.05 15 5.1 15 0 15 C0 10.05 0 5.1 0 0 Z " fill="#FFFFFF" transform="translate(30,30)"/>
<path d="M0 0 C4.95 0 9.9 0 15 0 C15 4.95 15 9.9 15 15 C10.05 15 5.1 15 0 15 C0 10.05 0 5.1 0 0 Z " fill="#EEEEEE" transform="translate(15,30)"/>
<path d="M0 0 C4.95 0 9.9 0 15 0 C15 4.95 15 9.9 15 15 C10.05 15 5.1 15 0 15 C0 10.05 0 5.1 0 0 Z " fill="#FFFFFF" transform="translate(0,30)"/>
<path d="M0 0 C4.95 0 9.9 0 15 0 C15 4.95 15 9.9 15 15 C10.05 15 5.1 15 0 15 C0 10.05 0 5.1 0 0 Z " fill="#FFFFFF" transform="translate(345,15)"/>
<path d="M0 0 C4.95 0 9.9 0 15 0 C15 4.95 15 9.9 15 15 C10.05 15 5.1 15 0 15 C0 10.05 0 5.1 0 0 Z " fill="#EEEEEE" transform="translate(330,15)"/>
<path d="M0 0 C4.95 0 9.9 0 15 0 C15 4.95 15 9.9 15 15 C10.05 15 5.1 15 0 15 C0 10.05 0 5.1 0 0 Z " fill="#FFFFFF" transform="translate(315,15)"/>
<path d="M0 0 C4.95 0 9.9 0 15 0 C15 4.95 15 9.9 15 15 C10.05 15 5.1 15 0 15 C0 10.05 0 5.1 0 0 Z " fill="#EEEEEE" transform="translate(300,15)"/>
<path d="M0 0 C4.95 0 9.9 0 15 0 C15 4.95 15 9.9 15 15 C10.05 15 5.1 15 0 15 C0 10.05 0 5.1 0 0 Z " fill="#FFFFFF" transform="translate(285,15)"/>
<path d="M0 0 C4.95 0 9.9 0 15 0 C15 4.95 15 9.9 15 15 C10.05 15 5.1 15 0 15 C0 10.05 0 5.1 0 0 Z " fill="#EEEEEE" transform="translate(270,15)"/>
<path d="M0 0 C4.95 0 9.9 0 15 0 C15 4.95 15 9.9 15 15 C10.05 15 5.1 15 0 15 C0 10.05 0 5.1 0 0 Z " fill="#FFFFFF" transform="translate(255,15)"/>
<path d="M0 0 C4.95 0 9.9 0 15 0 C15 4.95 15 9.9 15 15 C10.05 15 5.1 15 0 15 C0 10.05 0 5.1 0 0 Z " fill="#EEEEEE" transform="translate(240,15)"/>
<path d="M0 0 C4.95 0 9.9 0 15 0 C15 4.95 15 9.9 15 15 C10.05 15 5.1 15 0 15 C0 10.05 0 5.1 0 0 Z " fill="#FFFFFF" transform="translate(225,15)"/>
<path d="M0 0 C4.95 0 9.9 0 15 0 C15 4.95 15 9.9 15 15 C10.05 15 5.1 15 0 15 C0 10.05 0 5.1 0 0 Z " fill="#EEEEEE" transform="translate(210,15)"/>
<path d="M0 0 C4.95 0 9.9 0 15 0 C15 4.95 15 9.9 15 15 C10.05 15 5.1 15 0 15 C0 10.05 0 5.1 0 0 Z " fill="#FFFFFF" transform="translate(195,15)"/>
<path d="M0 0 C4.95 0 9.9 0 15 0 C15 4.95 15 9.9 15 15 C10.05 15 5.1 15 0 15 C0 10.05 0 5.1 0 0 Z " fill="#EEEEEE" transform="translate(180,15)"/>
<path d="M0 0 C4.95 0 9.9 0 15 0 C15 4.95 15 9.9 15 15 C10.05 15 5.1 15 0 15 C0 10.05 0 5.1 0 0 Z " fill="#FFFFFF" transform="translate(165,15)"/>
<path d="M0 0 C4.95 0 9.9 0 15 0 C15 4.95 15 9.9 15 15 C10.05 15 5.1 15 0 15 C0 10.05 0 5.1 0 0 Z " fill="#EEEEEE" transform="translate(150,15)"/>
<path d="M0 0 C4.95 0 9.9 0 15 0 C15 4.95 15 9.9 15 15 C10.05 15 5.1 15 0 15 C0 10.05 0 5.1 0 0 Z " fill="#FFFFFF" transform="translate(135,15)"/>
<path d="M0 0 C4.95 0 9.9 0 15 0 C15 4.95 15 9.9 15 15 C10.05 15 5.1 15 0 15 C0 10.05 0 5.1 0 0 Z " fill="#EEEEEE" transform="translate(120,15)"/>
<path d="M0 0 C4.95 0 9.9 0 15 0 C15 4.95 15 9.9 15 15 C10.05 15 5.1 15 0 15 C0 10.05 0 5.1 0 0 Z " fill="#FFFFFF" transform="translate(105,15)"/>
<path d="M0 0 C4.95 0 9.9 0 15 0 C15 4.95 15 9.9 15 15 C10.05 15 5.1 15 0 15 C0 10.05 0 5.1 0 0 Z " fill="#EEEEEE" transform="translate(90,15)"/>
<path d="M0 0 C4.95 0 9.9 0 15 0 C15 4.95 15 9.9 15 15 C10.05 15 5.1 15 0 15 C0 10.05 0 5.1 0 0 Z " fill="#FFFFFF" transform="translate(75,15)"/>
<path d="M0 0 C4.95 0 9.9 0 15 0 C15 4.95 15 9.9 15 15 C10.05 15 5.1 15 0 15 C0 10.05 0 5.1 0 0 Z " fill="#EEEEEE" transform="translate(60,15)"/>
<path d="M0 0 C4.95 0 9.9 0 15 0 C15 4.95 15 9.9 15 15 C10.05 15 5.1 15 0 15 C0 10.05 0 5.1 0 0 Z " fill="#FFFFFF" transform="translate(45,15)"/>
<path d="M0 0 C4.95 0 9.9 0 15 0 C15 4.95 15 9.9 15 15 C10.05 15 5.1 15 0 15 C0 10.05 0 5.1 0 0 Z " fill="#EEEEEE" transform="translate(30,15)"/>
<path d="M0 0 C4.95 0 9.9 0 15 0 C15 4.95 15 9.9 15 15 C10.05 15 5.1 15 0 15 C0 10.05 0 5.1 0 0 Z " fill="#FFFFFF" transform="translate(15,15)"/>
<path d="M0 0 C4.95 0 9.9 0 15 0 C15 4.95 15 9.9 15 15 C10.05 15 5.1 15 0 15 C0 10.05 0 5.1 0 0 Z " fill="#EEEEEE" transform="translate(0,15)"/>
<path d="M0 0 C4.95 0 9.9 0 15 0 C15 4.95 15 9.9 15 15 C10.05 15 5.1 15 0 15 C0 10.05 0 5.1 0 0 Z " fill="#EEEEEE" transform="translate(345,0)"/>
<path d="M0 0 C4.95 0 9.9 0 15 0 C15 4.95 15 9.9 15 15 C10.05 15 5.1 15 0 15 C0 10.05 0 5.1 0 0 Z " fill="#FFFFFF" transform="translate(330,0)"/>
<path d="M0 0 C4.95 0 9.9 0 15 0 C15 4.95 15 9.9 15 15 C10.05 15 5.1 15 0 15 C0 10.05 0 5.1 0 0 Z " fill="#EEEEEE" transform="translate(315,0)"/>
<path d="M0 0 C4.95 0 9.9 0 15 0 C15 4.95 15 9.9 15 15 C10.05 15 5.1 15 0 15 C0 10.05 0 5.1 0 0 Z " fill="#FFFFFF" transform="translate(300,0)"/>
<path d="M0 0 C4.95 0 9.9 0 15 0 C15 4.95 15 9.9 15 15 C10.05 15 5.1 15 0 15 C0 10.05 0 5.1 0 0 Z " fill="#EEEEEE" transform="translate(285,0)"/>
<path d="M0 0 C4.95 0 9.9 0 15 0 C15 4.95 15 9.9 15 15 C10.05 15 5.1 15 0 15 C0 10.05 0 5.1 0 0 Z " fill="#FFFFFF" transform="translate(270,0)"/>
<path d="M0 0 C4.95 0 9.9 0 15 0 C15 4.95 15 9.9 15 15 C10.05 15 5.1 15 0 15 C0 10.05 0 5.1 0 0 Z " fill="#EEEEEE" transform="translate(255,0)"/>
<path d="M0 0 C4.95 0 9.9 0 15 0 C15 4.95 15 9.9 15 15 C10.05 15 5.1 15 0 15 C0 10.05 0 5.1 0 0 Z " fill="#FFFFFF" transform="translate(240,0)"/>
<path d="M0 0 C4.95 0 9.9 0 15 0 C15 4.95 15 9.9 15 15 C10.05 15 5.1 15 0 15 C0 10.05 0 5.1 0 0 Z " fill="#EEEEEE" transform="translate(225,0)"/>
<path d="M0 0 C4.95 0 9.9 0 15 0 C15 4.95 15 9.9 15 15 C10.05 15 5.1 15 0 15 C0 10.05 0 5.1 0 0 Z " fill="#FFFFFF" transform="translate(210,0)"/>
<path d="M0 0 C4.95 0 9.9 0 15 0 C15 4.95 15 9.9 15 15 C10.05 15 5.1 15 0 15 C0 10.05 0 5.1 0 0 Z " fill="#EEEEEE" transform="translate(195,0)"/>
<path d="M0 0 C4.95 0 9.9 0 15 0 C15 4.95 15 9.9 15 15 C10.05 15 5.1 15 0 15 C0 10.05 0 5.1 0 0 Z " fill="#FFFFFF" transform="translate(180,0)"/>
<path d="M0 0 C4.95 0 9.9 0 15 0 C15 4.95 15 9.9 15 15 C10.05 15 5.1 15 0 15 C0 10.05 0 5.1 0 0 Z " fill="#EEEEEE" transform="translate(165,0)"/>
<path d="M0 0 C4.95 0 9.9 0 15 0 C15 4.95 15 9.9 15 15 C10.05 15 5.1 15 0 15 C0 10.05 0 5.1 0 0 Z " fill="#FFFFFF" transform="translate(150,0)"/>
<path d="M0 0 C4.95 0 9.9 0 15 0 C15 4.95 15 9.9 15 15 C10.05 15 5.1 15 0 15 C0 10.05 0 5.1 0 0 Z " fill="#EEEEEE" transform="translate(135,0)"/>
<path d="M0 0 C4.95 0 9.9 0 15 0 C15 4.95 15 9.9 15 15 C10.05 15 5.1 15 0 15 C0 10.05 0 5.1 0 0 Z " fill="#FFFFFF" transform="translate(120,0)"/>
<path d="M0 0 C4.95 0 9.9 0 15 0 C15 4.95 15 9.9 15 15 C10.05 15 5.1 15 0 15 C0 10.05 0 5.1 0 0 Z " fill="#EEEEEE" transform="translate(105,0)"/>
<path d="M0 0 C4.95 0 9.9 0 15 0 C15 4.95 15 9.9 15 15 C10.05 15 5.1 15 0 15 C0 10.05 0 5.1 0 0 Z " fill="#FFFFFF" transform="translate(90,0)"/>
<path d="M0 0 C4.95 0 9.9 0 15 0 C15 4.95 15 9.9 15 15 C10.05 15 5.1 15 0 15 C0 10.05 0 5.1 0 0 Z " fill="#EEEEEE" transform="translate(75,0)"/>
<path d="M0 0 C4.95 0 9.9 0 15 0 C15 4.95 15 9.9 15 15 C10.05 15 5.1 15 0 15 C0 10.05 0 5.1 0 0 Z " fill="#FFFFFF" transform="translate(60,0)"/>
<path d="M0 0 C4.95 0 9.9 0 15 0 C15 4.95 15 9.9 15 15 C10.05 15 5.1 15 0 15 C0 10.05 0 5.1 0 0 Z " fill="#EEEEEE" transform="translate(45,0)"/>
<path d="M0 0 C4.95 0 9.9 0 15 0 C15 4.95 15 9.9 15 15 C10.05 15 5.1 15 0 15 C0 10.05 0 5.1 0 0 Z " fill="#FFFFFF" transform="translate(30,0)"/>
<path d="M0 0 C4.95 0 9.9 0 15 0 C15 4.95 15 9.9 15 15 C10.05 15 5.1 15 0 15 C0 10.05 0 5.1 0 0 Z " fill="#FFFFFF" transform="translate(0,0)"/>
<path d="M0 0 C4.95 0 9.9 0 15 0 C15 4.29 15 8.58 15 13 C18.96 13.33 22.92 13.66 27 14 C27 14.33 27 14.66 27 15 C18.09 15 9.18 15 0 15 C0 10.05 0 5.1 0 0 Z " fill="#E8ECE5" transform="translate(270,45)"/>
<path d="M0 0 C4.95 0 9.9 0 15 0 C15 4.95 15 9.9 15 15 C4.16015625 15.09765625 4.16015625 15.09765625 1 15 C0 14 0 14 -0.09765625 10.83984375 C-0.04882812 5.41992188 -0.04882812 5.41992188 0 0 Z " fill="#EEEEEE" transform="translate(120,45)"/>
<path d="M0 0 C0.33 0 0.66 0 1 0 C1.144375 1.134375 1.28875 2.26875 1.4375 3.4375 C1.61171478 6.80777201 1.61171478 6.80777201 3 8 C3.14310287 11.6691577 3.04221662 15.32715441 3 19 C-1.95 19 -6.9 19 -12 19 C-12 14.05 -12 9.1 -12 4 C-8.04 4 -4.08 4 0 4 C0 2.68 0 1.36 0 0 Z " fill="#FEFEFE" transform="translate(57,101)"/>
<path d="M0 0 C4.95 0 9.9 0 15 0 C15 4.95 15 9.9 15 15 C7.08 14.67 -0.84 14.34 -9 14 C-9 13.67 -9 13.34 -9 13 C-6.03 13 -3.06 13 0 13 C0 8.71 0 4.42 0 0 Z " fill="#FEFEFE" transform="translate(285,45)"/>
<path d="M0 0 C1.9375 1.25 1.9375 1.25 3 3 C2.875 5.5625 2.875 5.5625 2 8 C-0.87254689 9.91503126 -1.81316646 10.3024198 -5.0546875 10.66796875 C-6.22451172 10.80041992 -6.22451172 10.80041992 -7.41796875 10.93554688 C-8.22878906 11.01869141 -9.03960937 11.10183594 -9.875 11.1875 C-10.67808594 11.28224609 -11.48117188 11.37699219 -12.30859375 11.47460938 C-16.43045866 11.91939051 -19.95034993 12.15587178 -24 11 C-24 8.69 -24 6.38 -24 4 C-19.05 4 -14.1 4 -9 4 C-9 2.68 -9 1.36 -9 0 C-5.45026831 -1.1832439 -3.60040463 -0.90010116 0 0 Z " fill="#F9FBF6" transform="translate(114,71)"/>
<path d="M0 0 C4.95 0 9.9 0 15 0 C15 4.95 15 9.9 15 15 C10.05 15 5.1 15 0 15 C-1 10 -1 10 0 8 C0.0689472 6.62657169 0.08467708 5.24997898 0.0625 3.875 C0.041875 2.59625 0.02125 1.3175 0 0 Z " fill="#FDFEFD" transform="translate(300,60)"/>
<path d="M0 0 C4.95 0 9.9 0 15 0 C15 4.29 15 8.58 15 13 C17.97 13.33 20.94 13.66 24 14 C24 14.33 24 14.66 24 15 C20.75001888 15.02909763 17.50007143 15.04683161 14.25 15.0625 C13.32960937 15.07087891 12.40921875 15.07925781 11.4609375 15.08789062 C10.57148438 15.09111328 9.68203125 15.09433594 8.765625 15.09765625 C7.94868164 15.10289307 7.13173828 15.10812988 6.29003906 15.11352539 C4 15 4 15 0 14 C0 9.38 0 4.76 0 0 Z " fill="#E9ECE6" transform="translate(210,45)"/>
<path d="M0 0 C4.95 0 9.9 0 15 0 C15.495 6.93 15.495 6.93 16 14 C10.39 14 4.78 14 -1 14 C-0.67 9.38 -0.34 4.76 0 0 Z " fill="#FFFFFF" transform="translate(165,45)"/>
<path d="M0 0 C4.29 0 8.58 0 13 0 C14.7213061 5.16391829 14.05353552 10.59291236 14 16 C7.07 15.505 7.07 15.505 0 15 C0 10.05 0 5.1 0 0 Z " fill="#EEEFEE" transform="translate(165,90)"/>
<path d="M0 0 C0 0.33 0 0.66 0 1 C-1.65 1 -3.3 1 -5 1 C-5 5.29 -5 9.58 -5 14 C-4.34 14.33 -3.68 14.66 -3 15 C-8.61 14.67 -14.22 14.34 -20 14 C-20 10.04 -20 6.08 -20 2 C-13.17546235 0.44010568 -6.99305639 -0.26781918 0 0 Z " fill="#FEFEFD" transform="translate(110,91)"/>
<path d="M0 0 C3.3 0 6.6 0 10 0 C10 4.95 10 9.9 10 15 C0.58562131 15.08798485 -8.61681753 14.88610155 -18 14 C-18 13.67 -18 13.34 -18 13 C-11.565 12.505 -11.565 12.505 -5 12 C-3.35 8.04 -1.7 4.08 0 0 Z " fill="#FDFEFD" transform="translate(260,105)"/>
<path d="M0 0 C4.95 0 9.9 0 15 0 C15 4.29 15 8.58 15 13 C10.05 13 5.1 13 0 13 C0 8.71 0 4.42 0 0 Z " fill="#EEEEEE" transform="translate(90,45)"/>
<path d="M0 0 C4.95 0 9.9 0 15 0 C15 3.63 15 7.26 15 11 C10.05 11 5.1 11 0 11 C0 7.37 0 3.74 0 0 Z " fill="#FFFFFF" transform="translate(345,165)"/>
<path d="M0 0 C4.95 0 9.9 0 15 0 C15 3.63 15 7.26 15 11 C10.05 11 5.1 11 0 11 C0 7.37 0 3.74 0 0 Z " fill="#EEEEEE" transform="translate(330,165)"/>
<path d="M0 0 C4.95 0 9.9 0 15 0 C15 3.63 15 7.26 15 11 C10.05 11 5.1 11 0 11 C0 7.37 0 3.74 0 0 Z " fill="#FFFFFF" transform="translate(315,165)"/>
<path d="M0 0 C4.95 0 9.9 0 15 0 C15 3.63 15 7.26 15 11 C10.05 11 5.1 11 0 11 C0 7.37 0 3.74 0 0 Z " fill="#EEEEEE" transform="translate(300,165)"/>
<path d="M0 0 C4.95 0 9.9 0 15 0 C15 3.63 15 7.26 15 11 C10.05 11 5.1 11 0 11 C0 7.37 0 3.74 0 0 Z " fill="#FFFFFF" transform="translate(285,165)"/>
<path d="M0 0 C4.95 0 9.9 0 15 0 C15 3.63 15 7.26 15 11 C10.05 11 5.1 11 0 11 C0 7.37 0 3.74 0 0 Z " fill="#EEEEEE" transform="translate(270,165)"/>
<path d="M0 0 C4.95 0 9.9 0 15 0 C15 3.63 15 7.26 15 11 C10.05 11 5.1 11 0 11 C0 7.37 0 3.74 0 0 Z " fill="#FFFFFF" transform="translate(255,165)"/>
<path d="M0 0 C4.95 0 9.9 0 15 0 C15 3.63 15 7.26 15 11 C10.05 11 5.1 11 0 11 C0 7.37 0 3.74 0 0 Z " fill="#EEEEEE" transform="translate(240,165)"/>
<path d="M0 0 C4.95 0 9.9 0 15 0 C15 3.63 15 7.26 15 11 C10.05 11 5.1 11 0 11 C0 7.37 0 3.74 0 0 Z " fill="#FFFFFF" transform="translate(225,165)"/>
<path d="M0 0 C4.95 0 9.9 0 15 0 C15 3.63 15 7.26 15 11 C10.05 11 5.1 11 0 11 C0 7.37 0 3.74 0 0 Z " fill="#EEEEEE" transform="translate(210,165)"/>
<path d="M0 0 C4.95 0 9.9 0 15 0 C15 3.63 15 7.26 15 11 C10.05 11 5.1 11 0 11 C0 7.37 0 3.74 0 0 Z " fill="#FFFFFF" transform="translate(195,165)"/>
<path d="M0 0 C4.95 0 9.9 0 15 0 C15 3.63 15 7.26 15 11 C10.05 11 5.1 11 0 11 C0 7.37 0 3.74 0 0 Z " fill="#EEEEEE" transform="translate(180,165)"/>
<path d="M0 0 C4.95 0 9.9 0 15 0 C15 3.63 15 7.26 15 11 C10.05 11 5.1 11 0 11 C0 7.37 0 3.74 0 0 Z " fill="#FFFFFF" transform="translate(165,165)"/>
<path d="M0 0 C4.95 0 9.9 0 15 0 C15 3.63 15 7.26 15 11 C10.05 11 5.1 11 0 11 C0 7.37 0 3.74 0 0 Z " fill="#EEEEEE" transform="translate(150,165)"/>
<path d="M0 0 C4.95 0 9.9 0 15 0 C15 3.63 15 7.26 15 11 C10.05 11 5.1 11 0 11 C0 7.37 0 3.74 0 0 Z " fill="#FFFFFF" transform="translate(135,165)"/>
<path d="M0 0 C4.95 0 9.9 0 15 0 C15 3.63 15 7.26 15 11 C10.05 11 5.1 11 0 11 C0 7.37 0 3.74 0 0 Z " fill="#EEEEEE" transform="translate(120,165)"/>
<path d="M0 0 C4.95 0 9.9 0 15 0 C15 3.63 15 7.26 15 11 C10.05 11 5.1 11 0 11 C0 7.37 0 3.74 0 0 Z " fill="#FFFFFF" transform="translate(105,165)"/>
<path d="M0 0 C4.95 0 9.9 0 15 0 C15 3.63 15 7.26 15 11 C10.05 11 5.1 11 0 11 C0 7.37 0 3.74 0 0 Z " fill="#EEEEEE" transform="translate(90,165)"/>
<path d="M0 0 C4.95 0 9.9 0 15 0 C15 3.63 15 7.26 15 11 C10.05 11 5.1 11 0 11 C0 7.37 0 3.74 0 0 Z " fill="#FFFFFF" transform="translate(75,165)"/>
<path d="M0 0 C4.95 0 9.9 0 15 0 C15 3.63 15 7.26 15 11 C10.05 11 5.1 11 0 11 C0 7.37 0 3.74 0 0 Z " fill="#EEEEEE" transform="translate(60,165)"/>
<path d="M0 0 C4.95 0 9.9 0 15 0 C15 3.63 15 7.26 15 11 C10.05 11 5.1 11 0 11 C0 7.37 0 3.74 0 0 Z " fill="#FFFFFF" transform="translate(45,165)"/>
<path d="M0 0 C4.95 0 9.9 0 15 0 C15 3.63 15 7.26 15 11 C10.05 11 5.1 11 0 11 C0 7.37 0 3.74 0 0 Z " fill="#EEEEEE" transform="translate(30,165)"/>
<path d="M0 0 C4.95 0 9.9 0 15 0 C15 3.63 15 7.26 15 11 C10.05 11 5.1 11 0 11 C0 7.37 0 3.74 0 0 Z " fill="#FFFFFF" transform="translate(15,165)"/>
<path d="M0 0 C4.95 0 9.9 0 15 0 C15 3.63 15 7.26 15 11 C10.05 11 5.1 11 0 11 C0 7.37 0 3.74 0 0 Z " fill="#EEEEEE" transform="translate(0,165)"/>
<path d="M0 0 C0.66 0 1.32 0 2 0 C2.804375 0.8971875 2.804375 0.8971875 3.625 1.8125 C9.39459206 7.12659795 17.60808224 8.05545111 25.17578125 8.31640625 C26.33271484 8.35830078 27.48964844 8.40019531 28.68164062 8.44335938 C29.87982422 8.48267578 31.07800781 8.52199219 32.3125 8.5625 C33.53001953 8.60568359 34.74753906 8.64886719 36.00195312 8.69335938 C39.0011947 8.79921496 42.00051591 8.90129726 45 9 C45 9.33 45 9.66 45 10 C30.04691712 11.46907481 15.00554027 11.09464921 0 11 C-1.20535714 3.34821429 -1.20535714 3.34821429 0 0 Z " fill="#EEEFED" transform="translate(180,109)"/>
<path d="M0 0 C0 2.97 0 5.94 0 9 C-1.60320974 9.19551338 -3.20762986 9.38111983 -4.8125 9.5625 C-5.70582031 9.66691406 -6.59914062 9.77132812 -7.51953125 9.87890625 C-10 10 -10 10 -13 9 C-14.75 6.6875 -14.75 6.6875 -16 4 C-15.578125 1.83203125 -15.578125 1.83203125 -15 0 C-13.25093341 -0.19601608 -11.50068154 -0.38147403 -9.75 -0.5625 C-8.77546875 -0.66691406 -7.8009375 -0.77132812 -6.796875 -0.87890625 C-4 -1 -4 -1 0 0 Z " fill="#EDEFEC" transform="translate(210,96)"/>
<path d="M0 0 C4.95 0 9.9 0 15 0 C15 2.97 15 5.94 15 9 C13.25093341 9.19601608 11.50068154 9.38147403 9.75 9.5625 C8.77546875 9.66691406 7.8009375 9.77132812 6.796875 9.87890625 C4 10 4 10 0 9 C0 6.03 0 3.06 0 0 Z " fill="#EDEEEC" transform="translate(210,75)"/>
<path d="M0 0 C0 2.97 0 5.94 0 9 C1.32 9.33 2.64 9.66 4 10 C2.10507994 10.33848652 0.20901534 10.67056911 -1.6875 11 C-2.74324219 11.185625 -3.79898438 11.37125 -4.88671875 11.5625 C-7.64904062 11.95068074 -10.21742043 12.08259976 -13 12 C-11.66976744 4.74418605 -11.66976744 4.74418605 -8.75 1.5 C-5.56789828 -0.23569185 -3.57192637 -0.33227222 0 0 Z " fill="#FDFDFD" transform="translate(210,75)"/>
<path d="M0 0 C4.95 0 9.9 0 15 0 C15 1.65 15 3.3 15 5 C15.66 5.66 16.32 6.32 17 7 C15.10507254 7.19644384 13.20899097 7.38177288 11.3125 7.5625 C9.72888672 7.71912109 9.72888672 7.71912109 8.11328125 7.87890625 C5.18573914 7.99277552 2.82868856 7.70848415 0 7 C0 4.69 0 2.38 0 0 Z " fill="#ECEEEA" transform="translate(90,75)"/>
<path d="M0 0 C1.33672335 2.6734467 0.70299867 3.6687405 -0.14453125 6.5 C-0.54188477 7.8303125 -0.54188477 7.8303125 -0.94726562 9.1875 C-1.23279297 10.115625 -1.51832031 11.04375 -1.8125 12 C-2.22338867 13.3921875 -2.22338867 13.3921875 -2.64257812 14.8125 C-4.74283107 21.74283107 -4.74283107 21.74283107 -7 24 C-9.11930707 21.88069293 -8.36826049 17.59317173 -8.4375 14.6875 C-8.48326172 13.91470703 -8.52902344 13.14191406 -8.57617188 12.34570312 C-8.62095369 10.08130088 -8.58068646 8.19151409 -8 6 C-5.09765625 3.58203125 -5.09765625 3.58203125 -2 2 C-1.34 1.34 -0.68 0.68 0 0 Z " fill="#FDFDFC" transform="translate(248,82)"/>
<path d="M0 0 C0.74886475 0.00523682 1.49772949 0.01047363 2.26928711 0.01586914 C3.07817383 0.0190918 3.88706055 0.02231445 4.72045898 0.02563477 C5.5705957 0.03401367 6.42073242 0.04239258 7.29663086 0.05102539 C8.15063477 0.05553711 9.00463867 0.06004883 9.88452148 0.06469727 C12.00108749 0.07652166 14.11761771 0.0944577 16.23413086 0.11352539 C15.24413086 0.44352539 14.25413086 0.77352539 13.23413086 1.11352539 C13.23413086 2.43352539 13.23413086 3.75352539 13.23413086 5.11352539 C8.28413086 5.11352539 3.33413086 5.11352539 -1.76586914 5.11352539 C-2.09586914 3.79352539 -2.42586914 2.47352539 -2.76586914 1.11352539 C-1.76586914 0.11352539 -1.76586914 0.11352539 0 0 Z " fill="#FFFFFF" transform="translate(91.765869140625,69.886474609375)"/>
<path d="M0 0 C0.33 1.32 0.66 2.64 1 4 C-3.34242429 8.34242429 -7.13551546 8.7444669 -13 9 C-12.01 8.67 -11.02 8.34 -10 8 C-10 5.69 -10 3.38 -10 1 C-6.7 0.67 -3.4 0.34 0 0 Z " fill="#FBFCFA" transform="translate(235,74)"/>
<path d="M0 0 C7.59 0 15.18 0 23 0 C23.33 1.32 23.66 2.64 24 4 C19.05 4 14.1 4 9 4 C9 3.01 9 2.02 9 1 C6.03 1 3.06 1 0 1 C0 0.67 0 0.34 0 0 Z " fill="#E6EDE0" transform="translate(276,71)"/>
<path d="M0 0 C0 1.65 0 3.3 0 5 C-4.95 5 -9.9 5 -15 5 C-15.33 3.68 -15.66 2.36 -16 1 C-14.27111445 0.83044205 -12.54187557 0.66448486 -10.8125 0.5 C-9.84957031 0.4071875 -8.88664062 0.314375 -7.89453125 0.21875 C-5.24812333 0.01875156 -2.65239135 -0.03879183 0 0 Z " fill="#ECEFE9" transform="translate(90,70)"/>
<path d="M0 0 C0 1.65 0 3.3 0 5 C-4.95 5 -9.9 5 -15 5 C-15 4.01 -15 3.02 -15 2 C-13.2508503 1.66223316 -11.50063855 1.32996329 -9.75 1 C-8.77546875 0.814375 -7.8009375 0.62875 -6.796875 0.4375 C-4 0 -4 0 0 0 Z " fill="#FEFEFD" transform="translate(120,115)"/>
<path d="M0 0 C3.96 0 7.92 0 12 0 C10.77974937 3.6607519 9.873509 3.92339441 6.5625 5.6875 C5.35787109 6.34298828 5.35787109 6.34298828 4.12890625 7.01171875 C2 8 2 8 0 8 C0 5.36 0 2.72 0 0 Z " fill="#EDEFEB" transform="translate(255,60)"/>
<path d="M0 0 C1.52634923 3.05269846 0.83794444 5.75845689 0.5625 9.125 C0.46066406 10.40632813 0.35882813 11.68765625 0.25390625 13.0078125 C0.17011719 13.99523437 0.08632813 14.98265625 0 16 C-1.65 16.33 -3.3 16.66 -5 17 C-4.27044025 4.27044025 -4.27044025 4.27044025 0 0 Z " fill="#FBFDFA" transform="translate(270,74)"/>
<path d="M0 0 C10.23 0.33 20.46 0.66 31 1 C31 1.33 31 1.66 31 2 C20.96724089 2.79692838 11.06354218 3.12847075 1 3 C0.67 2.01 0.34 1.02 0 0 Z " fill="#FEFEFE" transform="translate(194,117)"/>
<path d="M0 0 C8.91 0 17.82 0 27 0 C27 0.99 27 1.98 27 3 C22.05 3 17.1 3 12 3 C12 2.67 12 2.34 12 2 C8.04 1.67 4.08 1.34 0 1 C0 0.67 0 0.34 0 0 Z " fill="#D4E5C4" transform="translate(78,117)"/>
<path d="M0 0 C0 3.3 0 6.6 0 10 C-1.65 10 -3.3 10 -5 10 C-5.33 10.66 -5.66 11.32 -6 12 C-5.50909091 4.63636364 -5.50909091 4.63636364 -3 1.5 C-1 0 -1 0 0 0 Z " fill="#FBFDFA" transform="translate(150,80)"/>
<path d="M0 0 C13.365 0.495 13.365 0.495 27 1 C27 1.33 27 1.66 27 2 C18.98340366 3.12513633 11.07861415 3.09579384 3 3 C3 2.34 3 1.68 3 1 C2.01 0.67 1.02 0.34 0 0 Z " fill="#FEFEFE" transform="translate(72,117)"/>
<path d="M0 0 C4.95 0 9.9 0 15 0 C15 0.99 15 1.98 15 3 C10.05 3 5.1 3 0 3 C0 2.01 0 1.02 0 0 Z " fill="#EEEEEE" transform="translate(165,72)"/>
<path d="M0 0 C0.66 0.99 1.32 1.98 2 3 C1 4 1 4 -1.28515625 4.09765625 C-2.65994141 4.08025391 -2.65994141 4.08025391 -4.0625 4.0625 C-4.98160156 4.05347656 -5.90070313 4.04445313 -6.84765625 4.03515625 C-7.55792969 4.02355469 -8.26820313 4.01195313 -9 4 C-9 2.68 -9 1.36 -9 0 C-5.46474216 -1.17841928 -3.5797952 -0.91399027 0 0 Z " fill="#EDEFEB" transform="translate(234,71)"/>
<path d="M0 0 C0.33 1.32 0.66 2.64 1 4 C-2.3 4 -5.6 4 -9 4 C-9 2.68 -9 1.36 -9 0 C-5.52176885 -1.15941038 -3.54104422 -0.70820884 0 0 Z " fill="#EFEFEE" transform="translate(114,71)"/>
<path d="M0 0 C0.33 0.66 0.66 1.32 1 2 C5.95 1.67 10.9 1.34 16 1 C15.67 1.99 15.34 2.98 15 4 C10.05 4 5.1 4 0 4 C0 2.68 0 1.36 0 0 Z " fill="#8EC958" transform="translate(240,114)"/>
<path d="M0 0 C2.6015625 -0.29296875 2.6015625 -0.29296875 5.625 -0.1875 C7.12933594 -0.14689453 7.12933594 -0.14689453 8.6640625 -0.10546875 C9.43492187 -0.07066406 10.20578125 -0.03585938 11 0 C11 0.99 11 1.98 11 3 C6.71 3 2.42 3 -2 3 C-1.34 2.01 -0.68 1.02 0 0 Z " fill="#FFFFFF" transform="translate(274,72)"/>
<path d="M0 0 C3.3 0 6.6 0 10 0 C9.67 0.99 9.34 1.98 9 3 C5.82757352 4.31035007 3.44118336 5 0 5 C0 3.35 0 1.7 0 0 Z " fill="#EDEFEB" transform="translate(195,60)"/>
<path d="M0 0 C1.27351308 2.54702616 0.80191925 3.4282945 0.0625 6.125 C-0.13214844 6.84945312 -0.32679688 7.57390625 -0.52734375 8.3203125 C-0.76130859 9.15175781 -0.76130859 9.15175781 -1 10 C-1.33 9.34 -1.66 8.68 -2 8 C-3.65 8 -5.3 8 -7 8 C-7.33 7.34 -7.66 6.68 -8 6 C-7.05125 5.38125 -6.1025 4.7625 -5.125 4.125 C-2.05554891 2.18029031 -2.05554891 2.18029031 0 0 Z " fill="#E8F0E2" transform="translate(248,82)"/>
<path d="M0 0 C1.98 0 3.96 0 6 0 C4.02 4.455 4.02 4.455 2 9 C1.34 8.67 0.68 8.34 0 8 C0 5.36 0 2.72 0 0 Z " fill="#EDEFEC" transform="translate(180,75)"/>
<path d="M0 0 C1.98 0 3.96 0 6 0 C6 2 6 2 3.625 4.5625 C1 7 1 7 -1 8 C-0.67 5.36 -0.34 2.72 0 0 Z " fill="#FBFCF9" transform="translate(60,90)"/>
<path d="M0 0 C0.33 1.32 0.66 2.64 1 4 C-0.11375 4.309375 -1.2275 4.61875 -2.375 4.9375 C-5.7945155 5.82326483 -5.7945155 5.82326483 -8 7 C-6.86500606 3.70851757 -6.00716624 3.0040131 -2.875 1.25 C-1.92625 0.8375 -0.9775 0.425 0 0 Z " fill="#EDF2E9" transform="translate(209,71)"/>
</svg>
