<?xml version="1.0" standalone="no"?>
<!DOCTYPE svg PUBLIC "-//W3C//DTD SVG 20010904//EN"
 "http://www.w3.org/TR/2001/REC-SVG-20010904/DTD/svg10.dtd">
<svg version="1.0" xmlns="http://www.w3.org/2000/svg"
 width="800.000000pt" height="800.000000pt" viewBox="0 0 800.000000 800.000000"
 preserveAspectRatio="xMidYMid meet">
<metadata>
Created by potrace 1.16, written by Peter Selinger 2001-2019
</metadata>
<g transform="translate(0.000000,800.000000) scale(0.100000,-0.100000)"
fill="#000000" stroke="none">
<path d="M2230 5862 c-22 -12 -44 -35 -57 -62 l-23 -44 0 -843 c0 -922 -2
-884 59 -936 40 -33 89 -43 138 -27 45 15 69 34 92 75 14 27 16 111 19 855 2
575 0 840 -8 876 -22 103 -128 154 -220 106z"/>
<path d="M5620 5862 c-20 -11 -44 -37 -57 -63 l-23 -43 2 -857 c3 -848 3 -858
24 -885 38 -51 71 -69 129 -69 58 0 91 18 129 69 21 27 21 37 24 849 2 452 0
846 -3 876 -6 43 -14 61 -44 94 -33 35 -44 41 -92 44 -40 3 -63 -1 -89 -15z"/>
<path d="M1383 5280 c-30 -15 -48 -34 -63 -65 -20 -41 -21 -55 -18 -453 3
-399 4 -411 24 -439 11 -15 36 -38 54 -50 66 -45 167 -18 209 57 20 37 21 49
21 444 0 383 -1 409 -19 445 -25 48 -60 71 -119 77 -36 4 -57 0 -89 -16z"/>
<path d="M3080 5283 c-19 -10 -45 -33 -57 -52 -23 -34 -23 -34 -23 -454 0
-406 1 -421 21 -453 65 -106 209 -98 267 16 22 44 22 50 22 435 0 386 0 391
-22 435 -13 24 -35 53 -50 63 -38 28 -114 33 -158 10z"/>
<path d="M4773 5280 c-30 -15 -48 -34 -63 -65 -20 -41 -21 -55 -18 -452 l3
-410 28 -36 c15 -20 41 -44 57 -52 67 -35 160 -4 199 65 20 37 21 48 21 446
-1 366 -3 412 -18 441 -40 75 -131 102 -209 63z"/>
<path d="M6473 5286 c-17 -8 -43 -31 -57 -52 l-26 -39 0 -419 c0 -405 1 -420
21 -452 65 -106 209 -98 267 16 22 44 22 50 22 435 0 386 0 391 -22 435 -13
24 -35 53 -50 63 -34 25 -113 32 -155 13z"/>
<path d="M585 4871 c-47 -8 -73 -23 -100 -59 -19 -25 -20 -43 -20 -254 l0
-226 25 -27 c60 -64 141 -74 208 -25 59 42 64 69 60 307 l-3 202 -30 32 c-25
26 -86 63 -97 58 -2 -1 -21 -5 -43 -8z"/>
<path d="M3930 4859 c-74 -43 -75 -47 -75 -301 l0 -226 25 -27 c73 -78 192
-72 247 12 16 24 18 52 18 244 0 204 -1 219 -21 245 -49 66 -132 89 -194 53z"/>
<path d="M7360 4871 c-43 -9 -69 -25 -95 -59 -19 -25 -20 -43 -20 -254 l0
-226 25 -27 c73 -78 189 -72 246 13 17 24 19 52 22 230 3 190 2 205 -18 247
-16 32 -32 49 -64 64 -23 12 -47 20 -52 20 -5 -1 -25 -4 -44 -8z"/>
<path d="M1600 3406 c-97 -22 -160 -47 -223 -90 -90 -60 -123 -92 -177 -173
-157 -235 -136 -575 50 -786 68 -77 184 -147 305 -184 85 -25 324 -25 413 1
l62 19 0 158 c0 88 -2 159 -5 159 -3 0 -32 -9 -65 -20 -227 -76 -424 -16 -502
155 -33 72 -33 208 0 280 27 60 82 119 136 147 53 27 167 49 218 42 66 -9 159
-34 190 -50 l28 -15 0 164 0 164 -42 11 c-128 34 -284 41 -388 18z"/>
<path d="M3498 3405 c-187 -41 -308 -182 -308 -361 0 -189 95 -291 355 -379
44 -15 94 -36 111 -46 55 -34 68 -106 27 -152 -51 -56 -292 -62 -470 -11 l-23
6 0 -140 c0 -164 -19 -145 165 -163 378 -37 602 62 665 293 19 72 10 193 -20
253 -53 108 -140 168 -334 231 -145 47 -192 110 -128 174 16 16 49 34 73 40
53 15 200 7 276 -14 28 -7 54 -11 57 -8 10 9 7 250 -3 256 -5 3 -54 12 -110
21 -119 18 -253 18 -333 0z"/>
<path d="M4837 3405 c-38 -8 -108 -33 -155 -56 -69 -33 -103 -58 -162 -118
-126 -127 -180 -262 -180 -446 0 -188 53 -319 180 -445 79 -79 147 -121 259
-159 112 -38 320 -38 454 -1 l37 11 0 159 c0 166 -1 171 -42 149 -38 -21 -142
-41 -208 -41 -143 -1 -251 60 -309 174 -31 61 -34 75 -34 153 0 78 3 92 34
153 59 115 168 176 314 175 73 -1 161 -20 214 -47 l31 -17 0 165 c0 189 12
170 -120 192 -105 17 -223 16 -313 -1z"/>
<path d="M6108 3406 c-134 -30 -241 -90 -335 -187 -195 -205 -222 -542 -64
-786 230 -354 786 -381 1052 -50 48 60 74 105 111 197 19 48 22 73 22 200 0
186 -22 257 -121 392 -138 189 -419 287 -665 234z m280 -326 c76 -33 146 -113
172 -197 11 -36 20 -80 20 -98 0 -69 -38 -161 -90 -218 -164 -180 -453 -121
-540 109 -63 170 41 375 215 422 60 17 162 8 223 -18z"/>
<path d="M2460 2785 l0 -615 155 0 155 0 0 615 0 615 -155 0 -155 0 0 -615z"/>
</g>
</svg>
