<?xml version="1.0" standalone="no"?>
<!DOCTYPE svg PUBLIC "-//W3C//DTD SVG 20010904//EN"
 "http://www.w3.org/TR/2001/REC-SVG-20010904/DTD/svg10.dtd">
<svg version="1.0" xmlns="http://www.w3.org/2000/svg"
 width="900.000000pt" height="441.000000pt" viewBox="0 0 900.000000 441.000000"
 preserveAspectRatio="xMidYMid meet">

<g transform="translate(0.000000,441.000000) scale(0.100000,-0.100000)"
fill="#000000" stroke="none">
<path d="M1550 2738 c0 -2 -67 -236 -149 -520 l-149 -518 209 0 208 0 20 68
c11 37 74 256 140 487 66 231 125 435 130 453 l10 32 -210 0 c-115 0 -209 -1
-209 -2z"/>
<path d="M2345 2406 c-218 -43 -380 -148 -454 -297 -135 -270 14 -431 399
-432 146 0 347 23 421 48 50 17 46 12 116 193 3 7 -23 0 -61 -17 -147 -66
-221 -84 -353 -85 -109 -1 -124 1 -150 20 -19 15 -28 30 -28 49 l0 29 265 62
c146 35 309 73 363 85 53 13 103 26 109 30 7 4 14 36 16 72 7 113 -51 185
-187 228 -85 27 -347 36 -456 15z m230 -110 c38 -16 65 -60 65 -105 0 -30 -6
-34 -201 -132 -138 -68 -200 -95 -195 -83 4 10 18 64 32 120 29 116 61 165
128 195 49 22 124 24 171 5z"/>
<path d="M3510 2409 c-146 -13 -354 -40 -362 -47 -3 -4 -47 -146 -97 -317 -50
-170 -94 -318 -97 -327 -5 -17 9 -18 209 -18 l214 0 88 295 89 295 73 0 c90 0
140 -18 149 -55 7 -27 -5 -73 -97 -381 -21 -71 -39 -136 -39 -142 0 -9 54 -12
208 -12 l207 0 78 263 c42 144 77 273 77 287 0 35 -34 86 -67 103 -102 52
-388 77 -633 56z"/>
<path d="M4765 2409 c-225 -30 -401 -124 -487 -259 -68 -106 -84 -250 -38
-325 78 -126 328 -177 655 -134 276 37 476 179 531 376 42 153 -46 273 -239
325 -85 23 -313 32 -422 17z m195 -136 c53 -31 61 -80 34 -210 -25 -124 -84
-215 -157 -242 -36 -14 -113 -14 -138 -1 -54 29 -63 125 -23 252 42 133 75
183 134 207 40 16 119 13 150 -6z"/>
<path d="M7075 2409 c-172 -23 -321 -86 -413 -172 -64 -61 -97 -114 -123 -199
-56 -185 23 -297 246 -345 93 -20 332 -19 447 1 282 51 468 196 511 401 28
134 -68 249 -246 297 -85 23 -313 32 -422 17z m195 -136 c52 -30 61 -83 35
-205 -26 -127 -80 -213 -152 -244 -38 -16 -116 -18 -144 -4 -54 29 -63 125
-23 252 42 133 75 183 134 207 40 16 119 13 150 -6z"/>
<path d="M5480 2388 c0 -3 18 -155 40 -337 22 -182 40 -335 40 -341 0 -7 106
-10 318 -10 l317 1 230 338 c126 187 231 343 232 347 2 5 -85 9 -192 9 -159 0
-197 -3 -209 -15 -8 -8 -85 -118 -172 -244 -87 -126 -159 -225 -160 -220 -2 5
-15 113 -30 239 -15 127 -29 232 -31 235 -6 7 -383 6 -383 -2z"/>
</g>
</svg>
