<?xml version="1.0" standalone="no"?>
<!DOCTYPE svg PUBLIC "-//W3C//DTD SVG 20010904//EN"
 "http://www.w3.org/TR/2001/REC-SVG-20010904/DTD/svg10.dtd">
<svg version="1.0" xmlns="http://www.w3.org/2000/svg"
 width="920.000000pt" height="460.000000pt" viewBox="0 0 920.000000 460.000000"
 preserveAspectRatio="xMidYMid meet">

<g transform="translate(0.000000,460.000000) scale(0.100000,-0.100000)"
fill="#000000" stroke="none">
<path d="M4417 4227 c-48 -133 -148 -406 -221 -607 l-133 -365 236 -5 c220 -5
240 -7 288 -29 104 -46 171 -156 161 -265 -3 -29 -38 -140 -81 -256 -41 -113
-135 -367 -207 -565 -73 -198 -147 -400 -165 -450 -18 -49 -55 -150 -81 -222
l-49 -133 -227 0 c-131 0 -228 4 -228 9 0 5 49 144 109 308 164 450 374 1023
425 1162 25 69 46 129 46 135 0 7 -54 11 -166 11 -137 0 -167 -3 -173 -15 -5
-8 -55 -141 -111 -295 -56 -154 -162 -444 -235 -645 -74 -201 -159 -432 -188
-515 l-55 -150 -236 -3 c-130 -1 -236 -1 -236 1 0 2 50 140 111 308 201 551
532 1458 739 2024 203 556 261 718 257 722 -9 9 -225 -74 -352 -136 -492 -240
-878 -657 -1075 -1162 -111 -286 -158 -561 -147 -873 6 -189 23 -304 68 -476
166 -640 616 -1172 1218 -1440 93 -42 276 -106 351 -123 25 -6 27 -3 112 231
48 130 161 442 253 692 92 250 218 595 280 765 62 171 188 515 280 765 92 250
180 491 195 535 l28 80 479 0 479 0 59 -30 c68 -35 118 -94 136 -158 12 -46 7
-158 -10 -197 -12 -29 -357 -983 -439 -1215 -55 -155 -59 -162 -117 -221 -92
-93 -96 -94 -486 -94 l-327 0 -10 -28 c-11 -32 -252 -691 -358 -979 -41 -111
-74 -205 -74 -209 0 -13 304 5 425 26 463 79 879 298 1205 636 322 333 522
743 590 1207 22 149 27 417 10 557 -48 387 -192 747 -422 1058 -83 113 -265
302 -373 389 -383 308 -868 483 -1339 483 l-131 0 -88 -243z"/>
<path d="M5568 2930 c-5 -14 -61 -167 -125 -340 -268 -732 -332 -906 -342
-932 l-11 -28 173 0 173 0 11 33 c7 17 112 309 234 647 122 338 224 622 226
630 4 13 -18 15 -163 15 l-166 0 -10 -25z"/>
</g>
</svg>
