<?xml version="1.0" encoding="UTF-8"?>
<svg version="1.1" xmlns="http://www.w3.org/2000/svg" width="236" height="236">
<path d="M0 0 C77.88 0 155.76 0 236 0 C236 77.88 236 155.76 236 236 C158.12 236 80.24 236 0 236 C0 158.12 0 80.24 0 0 Z " fill="#EDEDEC" transform="translate(0,0)"/>
<path d="M0 0 C1.87234905 1.49839151 3.7274138 3.01869733 5.5625 4.5625 C6.44550781 5.28308594 7.32851562 6.00367187 8.23828125 6.74609375 C14.42308057 12.01115053 19.10427139 17.79331055 23.5625 24.5625 C24.10777344 25.37589844 24.65304688 26.18929687 25.21484375 27.02734375 C32.77234113 38.89242233 37.85611877 53.4550578 38.5625 67.5625 C38.63855469 68.82449219 38.71460938 70.08648437 38.79296875 71.38671875 C39.74245439 94.4273964 32.44466045 116.94483283 17.5625 134.5625 C16.82902344 135.44679687 16.09554687 136.33109375 15.33984375 137.2421875 C1.47158622 153.33621476 -17.24555998 164.443306 -38.4375 166.5625 C-38.4375 145.1125 -38.4375 123.6625 -38.4375 101.5625 C-31.5075 101.5625 -24.5775 101.5625 -17.4375 101.5625 C-17.251875 98.46875 -17.251875 98.46875 -17.0625 95.3125 C-16.65598979 88.53732984 -15.57359649 82.37907896 -14.4375 75.5625 C-22.6875 75.5625 -30.9375 75.5625 -39.4375 75.5625 C-39.499375 72.05625 -39.56125 68.55 -39.625 64.9375 C-39.66596802 63.296604 -39.66596802 63.296604 -39.70776367 61.62255859 C-39.79091561 51.87500607 -39.79091561 51.87500607 -36.4375 47.5625 C-31.25721778 44.50811852 -26.9087463 44.1658463 -21 44.375 C-18.504375 44.436875 -16.00875 44.49875 -13.4375 44.5625 C-13.4375 36.6425 -13.4375 28.7225 -13.4375 20.5625 C-37.14229893 17.90486673 -37.14229893 17.90486673 -58.375 27.0625 C-67.98415276 36.97534944 -69.34193193 47.21529137 -69.3125 60.3125 C-69.33067389 61.79951405 -69.35149108 63.28649823 -69.375 64.7734375 C-69.43108838 68.3711066 -69.43322498 71.96293253 -69.4375 75.5625 C-77.3575 75.5625 -85.2775 75.5625 -93.4375 75.5625 C-93.4375 84.1425 -93.4375 92.7225 -93.4375 101.5625 C-85.8475 101.5625 -78.2575 101.5625 -70.4375 101.5625 C-70.4375 123.0125 -70.4375 144.4625 -70.4375 166.5625 C-92.70549231 164.33570077 -111.41086467 152.24329492 -126.0234375 135.56640625 C-133.88362338 125.78568952 -139.48769325 115.46064569 -143.4375 103.5625 C-143.85128906 102.33144531 -144.26507813 101.10039062 -144.69140625 99.83203125 C-151.07070161 78.02684396 -148.1736821 53.09141123 -137.6875 33 C-125.44049805 11.63680863 -106.48938742 -6.52572317 -82.46484375 -13.62890625 C-81.46582031 -13.89574219 -80.46679688 -14.16257812 -79.4375 -14.4375 C-78.40753906 -14.73527344 -77.37757812 -15.03304688 -76.31640625 -15.33984375 C-50.21976269 -22.0100106 -21.64687324 -15.78073584 0 0 Z " fill="#0C89EF" transform="translate(172.4375,42.4375)"/>
<path d="M0 0 C0 7.92 0 15.84 0 24 C-7.5625 24.375 -7.5625 24.375 -9.90063477 24.47802734 C-14.4874603 24.73639065 -18.73731248 25.16161522 -23 27 C-25.9436701 32.08153107 -25.44629597 38.62513439 -25.625 44.375 C-25.810625 49.634375 -25.810625 49.634375 -26 55 C-17.75 55 -9.5 55 -1 55 C-1.4640625 59.4859375 -1.4640625 59.4859375 -1.9375 64.0625 C-2.08046509 65.45480835 -2.08046509 65.45480835 -2.22631836 66.87524414 C-2.30503174 67.62926514 -2.38374512 68.38328613 -2.46484375 69.16015625 C-2.543396 69.91949463 -2.62194824 70.67883301 -2.70288086 71.46118164 C-3.0758708 74.64829947 -3.54619737 77.82338156 -4 81 C-11.26 81 -18.52 81 -26 81 C-26 102.45 -26 123.9 -26 146 C-30.31445688 147.72578275 -31.96953009 148.24081253 -36.3125 148.125 C-37.19550781 148.10695312 -38.07851562 148.08890625 -38.98828125 148.0703125 C-39.65214844 148.04710937 -40.31601563 148.02390625 -41 148 C-41 149.98 -41 151.96 -41 154 C-47.27 154 -53.54 154 -60 154 C-60.33 152.02 -60.66 150.04 -61 148 C-59.35 147.67 -57.7 147.34 -56 147 C-56 125.22 -56 103.44 -56 81 C-63.92 81 -71.84 81 -80 81 C-80 72.42 -80 63.84 -80 55 C-72.08 55 -64.16 55 -56 55 C-56.06960937 52.82921875 -56.13921875 50.6584375 -56.2109375 48.421875 C-56.25797061 46.27707151 -56.29426335 44.13232936 -56.32958984 41.98730469 C-56.35943268 40.51698336 -56.40012433 39.04683475 -56.45263672 37.57714844 C-56.87259097 25.50552246 -55.03224672 16.33126101 -46.625 7 C-33.6594039 -4.71178021 -16.01599075 -3.16365249 0 0 Z " fill="#FBFDFD" transform="translate(159,63)"/>
<path d="M0 0 C6.27 0 12.54 0 19 0 C19.020625 3.114375 19.04125 6.22875 19.0625 9.4375 C19.071604 10.42032959 19.08070801 11.40315918 19.09008789 12.41577148 C19.09258545 13.18477783 19.09508301 13.95378418 19.09765625 14.74609375 C19.10289307 15.53685303 19.10812988 16.3276123 19.11352539 17.14233398 C19 19 19 19 18 20 C16.65732587 20.08631874 15.31025678 20.10706473 13.96484375 20.09765625 C13.15595703 20.09443359 12.34707031 20.09121094 11.51367188 20.08789062 C10.66353516 20.07951172 9.81339844 20.07113281 8.9375 20.0625 C8.08349609 20.05798828 7.22949219 20.05347656 6.34960938 20.04882812 C4.23304337 20.03700373 2.11651315 20.01906769 0 20 C0.01160156 21.28777344 0.02320313 22.57554687 0.03515625 23.90234375 C0.0445327 25.58072772 0.05363305 27.25911326 0.0625 28.9375 C0.07087891 29.78763672 0.07925781 30.63777344 0.08789062 31.51367188 C0.09111328 32.32255859 0.09433594 33.13144531 0.09765625 33.96484375 C0.10289307 34.7137085 0.10812988 35.46257324 0.11352539 36.23413086 C0 38 0 38 -1 39 C-2.34015221 39.15582303 -3.68758903 39.25044142 -5.03515625 39.31640625 C-6.12775757 39.37356812 -6.12775757 39.37356812 -7.24243164 39.43188477 C-8.63836548 39.49653931 -8.63836548 39.49653931 -10.0625 39.5625 C-13.011875 39.706875 -15.96125 39.85125 -19 40 C-19.33 45.94 -19.66 51.88 -20 58 C-26.6 58 -33.2 58 -40 58 C-40.04125 55.23625 -40.0825 52.4725 -40.125 49.625 C-40.14320801 48.75568848 -40.16141602 47.88637695 -40.18017578 46.99072266 C-40.19473738 44.99296522 -40.09956726 42.99532783 -40 41 C-38 39 -38 39 -34.0859375 38.8046875 C-32.51549182 38.81613444 -30.94514302 38.84211285 -29.375 38.875 C-25.229375 38.936875 -25.229375 38.936875 -21 39 C-21.495 29.595 -21.495 29.595 -22 20 C-23.98 19.67 -25.96 19.34 -28 19 C-27.375 17.0625 -27.375 17.0625 -26 15 C-22.875 14.25 -22.875 14.25 -20 14 C-20 15.65 -20 17.3 -20 19 C-13.73 19 -7.46 19 -1 19 C-1.03938171 14.24359342 -1.03938171 14.24359342 -1.09008789 9.48730469 C-1.10436323 6.06306554 -0.83818662 3.35274649 0 0 Z " fill="#FEFEFE" transform="translate(198,178)"/>
<path d="M0 0 C0.33 0 0.66 0 1 0 C1 21.45 1 42.9 1 65 C14.02270655 62.00790699 14.02270655 62.00790699 25.6875 56.875 C34.65021155 52.08658012 34.65021155 52.08658012 38 51 C40.1875 51.8125 40.1875 51.8125 42 53 C42.99 53.495 42.99 53.495 44 54 C44 60.27 44 66.54 44 73 C35.5625 73.4375 35.5625 73.4375 32.90063477 73.56811523 C29.14029267 73.42687477 29.14029267 73.42687477 26 75 C25.76284045 77.86055414 25.57809383 80.69727656 25.4375 83.5625 C25.293125 86.346875 25.14875 89.13125 25 92 C18.4 92 11.8 92 5 92 C5 86.06 5 80.12 5 74 C-1.27 73.67 -7.54 73.34 -14 73 C-14 71.02 -14 69.04 -14 67 C-7.565 66.01 -7.565 66.01 -1 65 C-0.67 43.55 -0.34 22.1 0 0 Z " fill="#EBECED" transform="translate(133,144)"/>
<path d="M0 0 C0.66 0.66 1.32 1.32 2 2 C4.31741211 4.02157227 6.6491091 6.0178763 9 8 C9.87785156 8.74378906 10.75570312 9.48757812 11.66015625 10.25390625 C16.57804295 14.36003724 21.28816825 18.08061933 27 21 C26.67 21.66 26.34 22.32 26 23 C22.31698976 22.40044019 18.65690221 21.74134815 15 21 C15.05329468 21.90093384 15.05329468 21.90093384 15.10766602 22.82006836 C15.26468681 25.52559686 15.41369797 28.23150757 15.5625 30.9375 C15.61857422 31.88302734 15.67464844 32.82855469 15.73242188 33.80273438 C15.78076172 34.70185547 15.82910156 35.60097656 15.87890625 36.52734375 C15.9260376 37.35999756 15.97316895 38.19265137 16.02172852 39.05053711 C16 41 16 41 15 42 C14.76284045 44.86055414 14.57809383 47.69727656 14.4375 50.5625 C14.293125 53.346875 14.14875 56.13125 14 59 C7.73 59 1.46 59 -5 59 C-5 53.06 -5 47.12 -5 41 C1.27 40.67 7.54 40.34 14 40 C13.67 34.06 13.34 28.12 13 22 C6.73 21.67 0.46 21.34 -6 21 C-5.67 14.4 -5.34 7.8 -5 1 C-2 0 -2 0 0 0 Z M-25 21 C-18.73 21 -12.46 21 -6 21 C-6 27.27 -6 33.54 -6 40 C-12.27 40 -18.54 40 -25 40 C-25 33.73 -25 27.46 -25 21 Z " fill="#FCFDFD" transform="translate(45,177)"/>
<path d="M0 0 C6.27 0 12.54 0 19 0 C19 6.6 19 13.2 19 20 C12.73 20 6.46 20 0 20 C0 26.27 0 32.54 0 39 C5.87883003 38.96042231 5.87883003 38.96042231 11.75756836 38.90991211 C12.48596924 38.90741455 13.21437012 38.90491699 13.96484375 38.90234375 C14.7137085 38.89710693 15.46257324 38.89187012 16.23413086 38.88647461 C18 39 18 39 19 40 C19.0983721 41.33043625 19.13078592 42.66593344 19.1328125 44 C19.13474609 45.2065625 19.13474609 45.2065625 19.13671875 46.4375 C19.13285156 47.283125 19.12898438 48.12875 19.125 49 C19.13080078 50.2684375 19.13080078 50.2684375 19.13671875 51.5625 C19.13542969 52.366875 19.13414062 53.17125 19.1328125 54 C19.13168457 54.7425 19.13055664 55.485 19.12939453 56.25 C19 58 19 58 18 59 C15.65012738 59.23527773 13.29443961 59.41386417 10.9375 59.5625 C9.64714844 59.64628906 8.35679687 59.73007813 7.02734375 59.81640625 C6.02832031 59.87699219 5.02929688 59.93757813 4 60 C3.731875 59.40574219 3.46375 58.81148437 3.1875 58.19921875 C-1.98305527 47.26281402 -9.76443241 34.82371173 -20 28 C-20 25.36 -20 22.72 -20 20 C-13.73 19.67 -7.46 19.34 -1 19 C-0.67 12.73 -0.34 6.46 0 0 Z " fill="#FCFDFD" transform="translate(198,20)"/>
<path d="M0 0 C6.6 0 13.2 0 20 0 C20.020625 3.114375 20.04125 6.22875 20.0625 9.4375 C20.071604 10.42032959 20.08070801 11.40315918 20.09008789 12.41577148 C20.09258545 13.18477783 20.09508301 13.95378418 20.09765625 14.74609375 C20.10289307 15.53685303 20.10812988 16.3276123 20.11352539 17.14233398 C20 19 20 19 19 20 C17.58429877 20.08651611 16.164405 20.10704904 14.74609375 20.09765625 C13.9770874 20.09515869 13.20808105 20.09266113 12.41577148 20.09008789 C11.43294189 20.08098389 10.4501123 20.07187988 9.4375 20.0625 C6.323125 20.041875 3.20875 20.02125 0 20 C0 26.27 0 32.54 0 39 C-3.14173196 40.57086598 -6.54445256 40.41960033 -10 40.625 C-10.73734375 40.6765625 -11.4746875 40.728125 -12.234375 40.78125 C-17.75273945 41.12363028 -17.75273945 41.12363028 -20 40 C-19.79375 40.78375 -19.5875 41.5675 -19.375 42.375 C-19.25125 43.24125 -19.1275 44.1075 -19 45 C-19.66 45.66 -20.32 46.32 -21 47 C-24.63 44.36 -28.26 41.72 -32 39 C-28.7169902 37.3584951 -25.57454967 38.48111376 -22 39 C-21.95101562 37.96359375 -21.90203125 36.9271875 -21.8515625 35.859375 C-21.77650403 34.48955792 -21.70095753 33.11976752 -21.625 31.75 C-21.5940625 31.06808594 -21.563125 30.38617187 -21.53125 29.68359375 C-21.30216068 25.75089375 -20.80552897 23.61105794 -19 20 C-13.06 19.67 -7.12 19.34 -1 19 C-0.67 12.73 -0.34 6.46 0 0 Z " fill="#E8E8E9" transform="translate(198,0)"/>
<path d="M0 0 C8.53023769 7.6154006 12.11016451 24.27061427 12.8984375 35.41015625 C12.93195313 36.26480469 12.96546875 37.11945313 13 38 C13.11214844 39.88525391 13.11214844 39.88525391 13.2265625 41.80859375 C14.19133642 64.85134767 6.8824548 87.38198437 -8 105 C-8.73347656 105.88429688 -9.46695313 106.76859375 -10.22265625 107.6796875 C-24.09091378 123.77371476 -42.80805998 134.880806 -64 137 C-64 115.55 -64 94.1 -64 72 C-57.07 72 -50.14 72 -43 72 C-42.87625 69.9375 -42.7525 67.875 -42.625 65.75 C-42.15593872 59.07437427 -41.23985797 52.572451 -40 46 C-39.34 46 -38.68 46 -38 46 C-39.068927 55.06313636 -40.2569932 64.03596504 -42 73 C-48.93 73 -55.86 73 -63 73 C-62.88154954 79.86860293 -62.75728712 86.73706716 -62.62768555 93.60546875 C-62.58442801 95.94105181 -62.54274658 98.27666462 -62.50268555 100.61230469 C-62.44476031 103.97339842 -62.38113014 107.33434366 -62.31640625 110.6953125 C-62.29969376 111.73615997 -62.28298126 112.77700745 -62.26576233 113.84939575 C-62.16786507 118.66230274 -61.99074079 123.26841942 -61 128 C-60.01 127.01 -59.02 126.02 -58 125 C-58 126.32 -58 127.64 -58 129 C-57.2575 128.814375 -56.515 128.62875 -55.75 128.4375 C-52.97680122 127.99630929 -51.64692332 128.31692301 -49 129 C-47.11280345 128.63292383 -47.11280345 128.63292383 -45 128 C-42.66905466 127.6503582 -40.33595238 127.31445513 -38 127 C-38 126.01 -38 125.02 -38 124 C-43.445 124.495 -43.445 124.495 -49 125 C-49 123.35 -49 121.7 -49 120 C-47.5459375 120.2784375 -47.5459375 120.2784375 -46.0625 120.5625 C-45.051875 120.706875 -44.04125 120.85125 -43 121 C-42.67 120.67 -42.34 120.34 -42 120 C-35.53846154 119.64102564 -35.53846154 119.64102564 -32 122 C-29.37613513 118.93882432 -29 118.26826873 -29 114 C-24.545 113.505 -24.545 113.505 -20 113 C-20 111.02 -20 109.04 -20 107 C-20.99 106.505 -20.99 106.505 -22 106 C-21.34 106 -20.68 106 -20 106 C-20 105.34 -20 104.68 -20 104 C-19.05125 104.185625 -18.1025 104.37125 -17.125 104.5625 C-14.10131207 105.28686632 -14.10131207 105.28686632 -12 104 C-11.64984951 102.33678518 -11.31802943 100.66965451 -11 99 C-10.01 97.515 -10.01 97.515 -9 96 C-7.68 96.33 -6.36 96.66 -5 97 C-4.505 95.02 -4.505 95.02 -4 93 C-3.34 93 -2.68 93 -2 93 C-1.80811676 88.20291909 -2.0977156 84.43866361 -4 80 C-4.99 79.505 -4.99 79.505 -6 79 C-5.01 77.515 -5.01 77.515 -4 76 C-3.01 76.33 -2.02 76.66 -1 77 C-1 77.66 -1 78.32 -1 79 C0.65 79 2.3 79 4 79 C9.83126949 66.24307711 13.56826008 46.70478024 9 33 C8.93197033 31.27204648 8.91504355 29.54164635 8.9375 27.8125 C8.94652344 26.91144531 8.95554687 26.01039062 8.96484375 25.08203125 C8.97644531 24.39496094 8.98804688 23.70789063 9 23 C8.34 23 7.68 23 7 23 C6.81824219 22.04287109 6.81824219 22.04287109 6.6328125 21.06640625 C6.46523437 20.24011719 6.29765625 19.41382812 6.125 18.5625 C5.96257812 17.73878906 5.80015625 16.91507813 5.6328125 16.06640625 C5.42398438 15.38449219 5.21515625 14.70257813 5 14 C4.01 13.505 4.01 13.505 3 13 C3 11.02 3 9.04 3 7 C2.34 7 1.68 7 1 7 C0.505 3.535 0.505 3.535 0 0 Z " fill="#186BCB" transform="translate(198,72)"/>
<path d="M0 0 C6.6 0 13.2 0 20 0 C20.33 6.27 20.66 12.54 21 19 C26.61 19.33 32.22 19.66 38 20 C39.1482685 22.296537 39.11561175 23.58313167 39.09765625 26.1328125 C39.09515869 26.85871582 39.09266113 27.58461914 39.09008789 28.33251953 C39.08098389 29.25403809 39.07187988 30.17555664 39.0625 31.125 C39.041875 34.05375 39.02125 36.9825 39 40 C32.73 40 26.46 40 20 40 C19.505 30.1 19.505 30.1 19 20 C12.73 20 6.46 20 0 20 C0 13.4 0 6.8 0 0 Z " fill="#E8E8E8" transform="translate(0,0)"/>
<path d="M0 0 C2.949375 -0.020625 5.89875 -0.04125 8.9375 -0.0625 C9.86812256 -0.071604 10.79874512 -0.08070801 11.75756836 -0.09008789 C12.48596924 -0.09258545 13.21437012 -0.09508301 13.96484375 -0.09765625 C14.7137085 -0.10289307 15.46257324 -0.10812988 16.23413086 -0.11352539 C18 0 18 0 19 1 C19.08631874 2.34267413 19.10706473 3.68974322 19.09765625 5.03515625 C19.09515869 5.76355713 19.09266113 6.49195801 19.09008789 7.24243164 C19.08098389 8.1730542 19.07187988 9.10367676 19.0625 10.0625 C19.041875 13.011875 19.02125 15.96125 19 19 C12.73 19.33 6.46 19.66 0 20 C0 25.94 0 31.88 0 38 C-6.6 38 -13.2 38 -20 38 C-20.020625 35.050625 -20.04125 32.10125 -20.0625 29.0625 C-20.071604 28.13187744 -20.08070801 27.20125488 -20.09008789 26.24243164 C-20.09258545 25.51403076 -20.09508301 24.78562988 -20.09765625 24.03515625 C-20.10289307 23.2862915 -20.10812988 22.53742676 -20.11352539 21.76586914 C-20 20 -20 20 -19 19 C-17.65984779 18.84417697 -16.31241097 18.74955858 -14.96484375 18.68359375 C-14.23644287 18.64548584 -13.50804199 18.60737793 -12.75756836 18.56811523 C-11.8269458 18.52501221 -10.89632324 18.48190918 -9.9375 18.4375 C-6.988125 18.293125 -4.03875 18.14875 -1 18 C-0.67 12.06 -0.34 6.12 0 0 Z " fill="#E9E9E9" transform="translate(198,198)"/>
<path d="M0 0 C6.6 0 13.2 0 20 0 C20.020625 3.114375 20.04125 6.22875 20.0625 9.4375 C20.071604 10.42032959 20.08070801 11.40315918 20.09008789 12.41577148 C20.09258545 13.18477783 20.09508301 13.95378418 20.09765625 14.74609375 C20.10289307 15.53685303 20.10812988 16.3276123 20.11352539 17.14233398 C20 19 20 19 19 20 C17.65984779 20.15582303 16.31241097 20.25044142 14.96484375 20.31640625 C14.15595703 20.35830078 13.34707031 20.40019531 12.51367188 20.44335938 C11.66353516 20.48267578 10.81339844 20.52199219 9.9375 20.5625 C9.08349609 20.60568359 8.22949219 20.64886719 7.34960938 20.69335938 C5.23327963 20.79976702 3.11666187 20.90041731 1 21 C-0.23759823 24.71279469 -0.35608897 28.31306346 -0.5625 32.1875 C-0.60568359 32.93708984 -0.64886719 33.68667969 -0.69335938 34.45898438 C-0.79922685 36.30578375 -0.9000976 38.15286834 -1 40 C-9.11591356 39.80550098 -9.11591356 39.80550098 -12.8125 36.4375 C-13.534375 35.633125 -14.25625 34.82875 -15 34 C-16.32 34 -17.64 34 -19 34 C-20.24377393 31.51245214 -20.13306235 29.77344699 -20.125 27 C-20.12757813 26.113125 -20.13015625 25.22625 -20.1328125 24.3125 C-20 22 -20 22 -19 20 C-13.06 19.67 -7.12 19.34 -1 19 C-0.67 12.73 -0.34 6.46 0 0 Z " fill="#FDFDFD" transform="translate(178,0)"/>
<path d="M0 0 C5.94 0 11.88 0 18 0 C18 6.27 18 12.54 18 19 C12.06 19 6.12 19 0 19 C-0.33 25.27 -0.66 31.54 -1 38 C-6.94 38 -12.88 38 -19 38 C-18.67 37.01 -18.34 36.02 -18 35 C-18.99 34.67 -19.98 34.34 -21 34 C-21 33.01 -21 32.02 -21 31 C-21.99 32.485 -21.99 32.485 -23 34 C-23.66 33.67 -24.32 33.34 -25 33 C-24.60167969 32.43152344 -24.20335937 31.86304688 -23.79296875 31.27734375 C-20.61296591 26.64274107 -18.01064466 22.2500166 -16 17 C-15.67 17.66 -15.34 18.32 -15 19 C-14.01 18.67 -13.02 18.34 -12 18 C-8.32893957 17.86718305 -4.67480286 17.95676703 -1 18 C-0.67 12.06 -0.34 6.12 0 0 Z " fill="#E6E7E9" transform="translate(218,139)"/>
<path d="M0 0 C6.6 0 13.2 0 20 0 C20 6.6 20 13.2 20 20 C13.73 20.33 7.46 20.66 1 21 C1.020625 22.711875 1.04125 24.42375 1.0625 26.1875 C0.60534315 31.41118933 0.60534315 31.41118933 -1.859375 33.80859375 C-6.05490854 36.18090047 -10.15830552 37.62756196 -15 38 C-15 37.34 -15 36.68 -15 36 C-15.66 36 -16.32 36 -17 36 C-17.33 36.99 -17.66 37.98 -18 39 C-19 38 -19 38 -19.11352539 36.23413086 C-19.10828857 35.48526611 -19.10305176 34.73640137 -19.09765625 33.96484375 C-19.09443359 33.15595703 -19.09121094 32.34707031 -19.08789062 31.51367188 C-19.07951172 30.66353516 -19.07113281 29.81339844 -19.0625 28.9375 C-19.05798828 28.08349609 -19.05347656 27.22949219 -19.04882812 26.34960938 C-19.03700373 24.23304337 -19.01906769 22.11651315 -19 20 C-10.585 19.505 -10.585 19.505 -2 19 C-0.35187352 15.70374704 -0.61750669 12.00541525 -0.4375 8.375 C-0.2209375 4.229375 -0.2209375 4.229375 0 0 Z " fill="#E8E8E8" transform="translate(79,0)"/>
<path d="M0 0 C6.6 0 13.2 0 20 0 C20.020625 3.114375 20.04125 6.22875 20.0625 9.4375 C20.071604 10.42032959 20.08070801 11.40315918 20.09008789 12.41577148 C20.09258545 13.18477783 20.09508301 13.95378418 20.09765625 14.74609375 C20.10289307 15.53685303 20.10812988 16.3276123 20.11352539 17.14233398 C20 19 20 19 19 20 C17.65732587 20.08631874 16.31025678 20.10706473 14.96484375 20.09765625 C14.15595703 20.09443359 13.34707031 20.09121094 12.51367188 20.08789062 C11.66353516 20.07951172 10.81339844 20.07113281 9.9375 20.0625 C9.08349609 20.05798828 8.22949219 20.05347656 7.34960938 20.04882812 C5.23304337 20.03700373 3.11651315 20.01906769 1 20 C1 24.62 1 29.24 1 34 C2.98 33.505 2.98 33.505 5 33 C5.99 34.65 6.98 36.3 8 38 C5.19260508 37.16536908 2.5059397 36.25671755 -0.109375 34.9296875 C-9.54100148 30.15380021 -19.73590364 28.22262496 -30 26 C-30 25.67 -30 25.34 -30 25 C-26.37 25 -22.74 25 -19 25 C-19 23.35 -19 21.7 -19 20 C-15.81453711 18.40726856 -12.36800652 18.89858167 -8.875 18.9375 C-4.976875 18.9684375 -4.976875 18.9684375 -1 19 C-0.67 12.73 -0.34 6.46 0 0 Z " fill="#E8E8E8" transform="translate(158,0)"/>
<path d="M0 0 C0.33 0 0.66 0 1 0 C1 7.92 1 15.84 1 24 C8.59 24 16.18 24 24 24 C24 45.45 24 66.9 24 89 C12.23385997 87.823386 3.47710894 84.59292152 -6.6875 78.875 C-7.28788086 78.53847412 -7.88826172 78.20194824 -8.50683594 77.85522461 C-11.4976667 76.10913516 -13.04207337 74.93688994 -15 72 C-13.27119018 71.94550162 -11.54187288 71.90698312 -9.8125 71.875 C-8.36810547 71.84019531 -8.36810547 71.84019531 -6.89453125 71.8046875 C-3.87187222 72.0086456 -1.73230015 72.73125368 1 74 C1.495 72.515 1.495 72.515 2 71 C3.32 71.66 4.64 72.32 6 73 C4.515 73.495 4.515 73.495 3 74 C2.67 76.64 2.34 79.28 2 82 C3.65 82.33 5.3 82.66 7 83 C11.29 84.32 15.58 85.64 20 87 C20 66.54 20 46.08 20 25 C13.4 25 6.8 25 0 25 C0 16.75 0 8.5 0 0 Z " fill="#146ABE" transform="translate(78,120)"/>
<path d="M0 0 C2.578125 -0.020625 5.15625 -0.04125 7.8125 -0.0625 C9.02450073 -0.07615601 9.02450073 -0.07615601 10.26098633 -0.09008789 C13.44381813 -0.10246624 15.96056322 -0.01314559 19 1 C20.19825457 4.59476372 20.14608744 7.88549399 20.125 11.625 C20.13080078 12.66527344 20.13080078 12.66527344 20.13671875 13.7265625 C20.12666646 18.87333354 20.12666646 18.87333354 19 20 C17.58429877 20.08651611 16.164405 20.10704904 14.74609375 20.09765625 C13.9770874 20.09515869 13.20808105 20.09266113 12.41577148 20.09008789 C11.43294189 20.08098389 10.4501123 20.07187988 9.4375 20.0625 C4.7659375 20.0315625 4.7659375 20.0315625 0 20 C0 13.4 0 6.8 0 0 Z " fill="#FEFEFE" transform="translate(0,59)"/>
<path d="M0 0 C6.27 0 12.54 0 19 0 C19.185625 3.114375 19.37125 6.22875 19.5625 9.4375 C19.62381104 10.42032959 19.68512207 11.40315918 19.74829102 12.41577148 C19.79139404 13.18477783 19.83449707 13.95378418 19.87890625 14.74609375 C19.9260376 15.53685303 19.97316895 16.3276123 20.02172852 17.14233398 C20 19 20 19 19 20 C17.58429877 20.08651611 16.164405 20.10704904 14.74609375 20.09765625 C13.9770874 20.09515869 13.20808105 20.09266113 12.41577148 20.09008789 C11.43294189 20.08098389 10.4501123 20.07187988 9.4375 20.0625 C4.7659375 20.0315625 4.7659375 20.0315625 0 20 C0 13.4 0 6.8 0 0 Z " fill="#FEFEFE" transform="translate(0,178)"/>
<path d="M0 0 C6.27 0 12.54 0 19 0 C19 6.6 19 13.2 19 20 C12.73 20 6.46 20 0 20 C0 13.4 0 6.8 0 0 Z " fill="#FEFEFE" transform="translate(99,0)"/>
<path d="M0 0 C2.949375 -0.020625 5.89875 -0.04125 8.9375 -0.0625 C9.86812256 -0.071604 10.79874512 -0.08070801 11.75756836 -0.09008789 C12.48596924 -0.09258545 13.21437012 -0.09508301 13.96484375 -0.09765625 C14.7137085 -0.10289307 15.46257324 -0.10812988 16.23413086 -0.11352539 C18 0 18 0 19 1 C19.08651611 2.41570123 19.10704904 3.835595 19.09765625 5.25390625 C19.09515869 6.0229126 19.09266113 6.79191895 19.09008789 7.58422852 C19.08098389 8.56705811 19.07187988 9.5498877 19.0625 10.5625 C19.041875 13.676875 19.02125 16.79125 19 20 C12.73 20 6.46 20 0 20 C0 13.4 0 6.8 0 0 Z " fill="#E8E8E8" transform="translate(0,39)"/>
<path d="M0 0 C0.68964844 -0.00386719 1.37929688 -0.00773437 2.08984375 -0.01171875 C7.24666707 -0.00166646 7.24666707 -0.00166646 9.5 1.125 C9.86986397 3.59771961 10.10575002 5.95035111 10.25 8.4375 C10.30542969 9.11490234 10.36085938 9.79230469 10.41796875 10.49023438 C10.68500998 14.62937343 10.41790566 16.28918867 8.5 20.125 C2.56 20.125 -3.38 20.125 -9.5 20.125 C-9.5 13.855 -9.5 7.585 -9.5 1.125 C-6.46570323 -0.39214839 -3.32398333 -0.01863916 0 0 Z " fill="#FDFEFD" transform="translate(29.5,38.875)"/>
<path d="M0 0 C6.27 0 12.54 0 19 0 C20.25433458 3.76300374 20.10695422 7.27210909 20.0625 11.1875 C20.05798828 11.93708984 20.05347656 12.68667969 20.04882812 13.45898438 C20.03706354 15.30602383 20.01912865 17.15302213 20 19 C17.64341603 20.17829199 16.47426764 20.04414372 13.8671875 19.87890625 C13.14128418 19.83580322 12.41538086 19.7927002 11.66748047 19.74829102 C10.28520264 19.65632446 10.28520264 19.65632446 8.875 19.5625 C5.94625 19.376875 3.0175 19.19125 0 19 C0 12.73 0 6.46 0 0 Z " fill="#FEFEFE" transform="translate(0,20)"/>
<path d="M0 0 C6.27 0 12.54 0 19 0 C19.020625 3.114375 19.04125 6.22875 19.0625 9.4375 C19.071604 10.42032959 19.08070801 11.40315918 19.09008789 12.41577148 C19.09258545 13.18477783 19.09508301 13.95378418 19.09765625 14.74609375 C19.10551147 15.93223267 19.10551147 15.93223267 19.11352539 17.14233398 C19 19 19 19 18 20 C15.15664952 20.09986975 12.34302837 20.13877881 9.5 20.125 C8.70207031 20.12886719 7.90414063 20.13273437 7.08203125 20.13671875 C1.12660767 20.12660767 1.12660767 20.12660767 0 19 C-0.08651611 17.58429877 -0.10704904 16.164405 -0.09765625 14.74609375 C-0.09515869 13.9770874 -0.09266113 13.20808105 -0.09008789 12.41577148 C-0.07643188 10.9415271 -0.07643188 10.9415271 -0.0625 9.4375 C-0.041875 6.323125 -0.02125 3.20875 0 0 Z " fill="#FEFEFE" transform="translate(20,0)"/>
<path d="M0 0 C0.74572266 -0.00386719 1.49144531 -0.00773437 2.25976562 -0.01171875 C7.81086499 -0.00163501 7.81086499 -0.00163501 8.9375 1.125 C9.0358721 2.45543625 9.06828592 3.79093344 9.0703125 5.125 C9.07224609 6.3315625 9.07224609 6.3315625 9.07421875 7.5625 C9.07035156 8.408125 9.06648438 9.25375 9.0625 10.125 C9.06830078 11.3934375 9.06830078 11.3934375 9.07421875 12.6875 C9.07292969 13.491875 9.07164062 14.29625 9.0703125 15.125 C9.06918457 15.8675 9.06805664 16.61 9.06689453 17.375 C8.9375 19.125 8.9375 19.125 7.9375 20.125 C6.59482587 20.21131874 5.24775678 20.23206473 3.90234375 20.22265625 C2.80974243 20.21890991 2.80974243 20.21890991 1.69506836 20.21508789 C0.7644458 20.20598389 -0.16617676 20.19687988 -1.125 20.1875 C-5.5490625 20.1565625 -5.5490625 20.1565625 -10.0625 20.125 C-10.0625 13.855 -10.0625 7.585 -10.0625 1.125 C-6.88856311 -0.46196844 -3.48075795 -0.0181447 0 0 Z " fill="#E8E8E8" transform="translate(208.0625,38.875)"/>
<path d="M0 0 C6.27 0 12.54 0 19 0 C19.04125 2.743125 19.0825 5.48625 19.125 8.3125 C19.14320801 9.17270752 19.16141602 10.03291504 19.18017578 10.91918945 C19.1851709 11.60198975 19.19016602 12.28479004 19.1953125 12.98828125 C19.20578613 13.68477783 19.21625977 14.38127441 19.22705078 15.09887695 C19 17 19 17 17 20 C14.22808898 20.24849576 11.70112612 20.32683409 8.9375 20.25 C7.81891602 20.24226563 7.81891602 20.24226563 6.67773438 20.234375 C1.15410426 20.15410426 1.15410426 20.15410426 0 19 C-0.08651611 17.58429877 -0.10704904 16.164405 -0.09765625 14.74609375 C-0.09515869 13.9770874 -0.09266113 13.20808105 -0.09008789 12.41577148 C-0.07643188 10.9415271 -0.07643188 10.9415271 -0.0625 9.4375 C-0.041875 6.323125 -0.02125 3.20875 0 0 Z " fill="#FEFEFE" transform="translate(60,0)"/>
<path d="M0 0 C6.27 0.33 12.54 0.66 19 1 C19 6.94 19 12.88 19 19 C15.23508833 20.25497056 11.72793525 20.10661648 7.8125 20.0625 C5.234375 20.041875 2.65625 20.02125 0 20 C0 13.4 0 6.8 0 0 Z " fill="#FEFEFE" transform="translate(0,138)"/>
<path d="M0 0 C6.27 0 12.54 0 19 0 C19 6.27 19 12.54 19 19 C12.73 19 6.46 19 0 19 C0 12.73 0 6.46 0 0 Z " fill="#E8E8E8" transform="translate(0,198)"/>
<path d="M0 0 C6.27 0 12.54 0 19 0 C19 6.27 19 12.54 19 19 C12.73 19 6.46 19 0 19 C0 12.73 0 6.46 0 0 Z " fill="#E7E7E7" transform="translate(0,158)"/>
<path d="M0 0 C6.27 0 12.54 0 19 0 C19 6.27 19 12.54 19 19 C12.73 19 6.46 19 0 19 C0 12.73 0 6.46 0 0 Z " fill="#E8E8E8" transform="translate(0,119)"/>
<path d="M0 0 C6.27 0 12.54 0 19 0 C19 6.27 19 12.54 19 19 C12.73 19 6.46 19 0 19 C0 12.73 0 6.46 0 0 Z " fill="#FEFEFE" transform="translate(0,99)"/>
<path d="M0 0 C6.27 0 12.54 0 19 0 C19 6.27 19 12.54 19 19 C12.73 19 6.46 19 0 19 C0 12.73 0 6.46 0 0 Z " fill="#E8E8E8" transform="translate(0,79)"/>
<path d="M0 0 C6.27 0 12.54 0 19 0 C19 6.27 19 12.54 19 19 C12.73 19 6.46 19 0 19 C0 12.73 0 6.46 0 0 Z " fill="#FEFEFE" transform="translate(40,20)"/>
<path d="M0 0 C5.94 0 11.88 0 18 0 C18 6.6 18 13.2 18 20 C11.73 20 5.46 20 -1 20 C-0.67 13.4 -0.34 6.8 0 0 Z " fill="#FEFEFE" transform="translate(218,0)"/>
<path d="M0 0 C2.949375 -0.020625 5.89875 -0.04125 8.9375 -0.0625 C9.86812256 -0.071604 10.79874512 -0.08070801 11.75756836 -0.09008789 C12.48596924 -0.09258545 13.21437012 -0.09508301 13.96484375 -0.09765625 C14.7137085 -0.10289307 15.46257324 -0.10812988 16.23413086 -0.11352539 C18 0 18 0 19 1 C19.08631874 2.34267413 19.10706473 3.68974322 19.09765625 5.03515625 C19.09515869 5.76355713 19.09266113 6.49195801 19.09008789 7.24243164 C19.08098389 8.1730542 19.07187988 9.10367676 19.0625 10.0625 C19.041875 13.011875 19.02125 15.96125 19 19 C12.73 19 6.46 19 0 19 C0 12.73 0 6.46 0 0 Z " fill="#E8E8E7" transform="translate(40,198)"/>
<path d="M0 0 C5.94 0 11.88 0 18 0 C18 6.6 18 13.2 18 20 C12.06 20 6.12 20 0 20 C0 13.4 0 6.8 0 0 Z " fill="#FEFEFE" transform="translate(218,79)"/>
<path d="M0 0 C6.27 0 12.54 0 19 0 C19.020625 2.76375 19.04125 5.5275 19.0625 8.375 C19.071604 9.24431152 19.08070801 10.11362305 19.09008789 11.00927734 C19.11111111 16.77777778 19.11111111 16.77777778 18 19 C15.18780295 19.19384179 12.37545804 19.38036603 9.5625 19.5625 C8.76005859 19.61857422 7.95761719 19.67464844 7.13085938 19.73242188 C5.08937889 19.8616295 3.04453631 19.9351273 1 20 C0 19 0 19 -0.11352539 17.14233398 C-0.10828857 16.35157471 -0.10305176 15.56081543 -0.09765625 14.74609375 C-0.09515869 13.9770874 -0.09266113 13.20808105 -0.09008789 12.41577148 C-0.07643188 10.9415271 -0.07643188 10.9415271 -0.0625 9.4375 C-0.041875 6.323125 -0.02125 3.20875 0 0 Z " fill="#FEFEFE" transform="translate(139,0)"/>
<path d="M0 0 C6.27 0 12.54 0 19 0 C19.020625 2.949375 19.04125 5.89875 19.0625 8.9375 C19.071604 9.86812256 19.08070801 10.79874512 19.09008789 11.75756836 C19.09258545 12.48596924 19.09508301 13.21437012 19.09765625 13.96484375 C19.10551147 15.08814087 19.10551147 15.08814087 19.11352539 16.23413086 C19 18 19 18 18 19 C16.65732587 19.08631874 15.31025678 19.10706473 13.96484375 19.09765625 C12.87224243 19.09390991 12.87224243 19.09390991 11.75756836 19.09008789 C10.8269458 19.08098389 9.89632324 19.07187988 8.9375 19.0625 C4.5134375 19.0315625 4.5134375 19.0315625 0 19 C0 12.73 0 6.46 0 0 Z " fill="#E8E8E8" transform="translate(40,0)"/>
<path d="M0 0 C5.94 0 11.88 0 18 0 C18 6.6 18 13.2 18 20 C15.215625 20.020625 12.43125 20.04125 9.5625 20.0625 C8.68408447 20.071604 7.80566895 20.08070801 6.90063477 20.09008789 C4.93354026 20.09723091 2.96646379 20.05031893 1 20 C0 19 0 19 -0.11352539 17.14233398 C-0.10828857 16.35157471 -0.10305176 15.56081543 -0.09765625 14.74609375 C-0.09443359 13.89208984 -0.09121094 13.03808594 -0.08789062 12.15820312 C-0.07951172 11.26037109 -0.07113281 10.36253906 -0.0625 9.4375 C-0.05798828 8.53580078 -0.05347656 7.63410156 -0.04882812 6.70507812 C-0.03700244 4.47002411 -0.01906638 2.23500398 0 0 Z " fill="#FEFEFE" transform="translate(218,158)"/>
<path d="M0 0 C6.27 0 12.54 0 19 0 C19.020625 2.76375 19.04125 5.5275 19.0625 8.375 C19.071604 9.24431152 19.08070801 10.11362305 19.09008789 11.00927734 C19.11111111 16.77777778 19.11111111 16.77777778 18 19 C12.06 19 6.12 19 0 19 C0 12.73 0 6.46 0 0 Z " fill="#E8E8E8" transform="translate(119,0)"/>
<path d="M0 0 C0.74886475 0.00523682 1.49772949 0.01047363 2.26928711 0.01586914 C3.07817383 0.0190918 3.88706055 0.02231445 4.72045898 0.02563477 C5.5705957 0.03401367 6.42073242 0.04239258 7.29663086 0.05102539 C8.15063477 0.05553711 9.00463867 0.06004883 9.88452148 0.06469727 C12.00108749 0.07652166 14.11761771 0.0944577 16.23413086 0.11352539 C17.8268623 3.29898828 17.33554919 6.74551887 17.29663086 10.23852539 C17.27600586 12.83727539 17.25538086 15.43602539 17.23413086 18.11352539 C10.63413086 18.11352539 4.03413086 18.11352539 -2.76586914 18.11352539 C-2.78649414 15.32915039 -2.80711914 12.54477539 -2.82836914 9.67602539 C-2.83747314 8.79760986 -2.84657715 7.91919434 -2.85595703 7.01416016 C-2.86310005 5.04706565 -2.81618807 3.07998918 -2.76586914 1.11352539 C-1.76586914 0.11352539 -1.76586914 0.11352539 0 0 Z " fill="#E8E8E8" transform="translate(61.765869140625,217.886474609375)"/>
<path d="M0 0 C6.27 0 12.54 0 19 0 C20.50161339 6.00645358 20.05727537 11.81425982 20 18 C13.4 18 6.8 18 0 18 C0 12.06 0 6.12 0 0 Z " fill="#FEFEFE" transform="translate(0,218)"/>
<path d="M0 0 C0 6.6 0 13.2 0 20 C-5.94 20 -11.88 20 -18 20 C-18 13.73 -18 7.46 -18 1 C-11.85181836 -0.22963633 -6.26947191 -0.063328 0 0 Z " fill="#FEFEFE" transform="translate(236,39)"/>
<path d="M0 0 C0.74886475 0.00523682 1.49772949 0.01047363 2.26928711 0.01586914 C3.07817383 0.0190918 3.88706055 0.02231445 4.72045898 0.02563477 C5.5705957 0.03401367 6.42073242 0.04239258 7.29663086 0.05102539 C8.15063477 0.05553711 9.00463867 0.06004883 9.88452148 0.06469727 C12.00108749 0.07652166 14.11761771 0.0944577 16.23413086 0.11352539 C17.66585325 6.09970327 17.29602863 11.98564629 17.23413086 18.11352539 C10.63413086 18.11352539 4.03413086 18.11352539 -2.76586914 18.11352539 C-2.78649414 15.32915039 -2.80711914 12.54477539 -2.82836914 9.67602539 C-2.83747314 8.79760986 -2.84657715 7.91919434 -2.85595703 7.01416016 C-2.86310005 5.04706565 -2.81618807 3.07998918 -2.76586914 1.11352539 C-1.76586914 0.11352539 -1.76586914 0.11352539 0 0 Z " fill="#FEFEFE" transform="translate(81.765869140625,217.886474609375)"/>
<path d="M0 0 C0 5.94 0 11.88 0 18 C-6.27 18 -12.54 18 -19 18 C-19 12.06 -19 6.12 -19 0 C-3.8 -1.9 -3.8 -1.9 0 0 Z " fill="#FEFEFE" transform="translate(138,218)"/>
<path d="M0 0 C0.66 0.66 1.32 1.32 2 2 C1.67 2.33 1.34 2.66 1 3 C0.76284045 5.86055414 0.57809383 8.69727656 0.4375 11.5625 C0.293125 14.346875 0.14875 17.13125 0 20 C-6.27 20 -12.54 20 -19 20 C-19 14.06 -19 8.12 -19 2 C-11.1875 1.5625 -11.1875 1.5625 -8.73901367 1.43188477 C-5.62590943 1.24715282 -2.97149083 0.99049694 0 0 Z " fill="#FEFEFE" transform="translate(59,216)"/>
<path d="M0 0 C10.82306787 -0.77677521 10.82306787 -0.77677521 15.125 2.0625 C18.91473678 7.9997543 19.07738291 13.21140848 19 20 C16.02077407 20.02683987 13.04178705 20.04676037 10.0625 20.0625 C8.78729492 20.07506836 8.78729492 20.07506836 7.48632812 20.08789062 C6.67744141 20.09111328 5.86855469 20.09433594 5.03515625 20.09765625 C4.2862915 20.10289307 3.53742676 20.10812988 2.76586914 20.11352539 C1 20 1 20 0 19 C-0.08651611 17.58429877 -0.10704904 16.164405 -0.09765625 14.74609375 C-0.09443359 13.89208984 -0.09121094 13.03808594 -0.08789062 12.15820312 C-0.07951172 11.26037109 -0.07113281 10.36253906 -0.0625 9.4375 C-0.05798828 8.53580078 -0.05347656 7.63410156 -0.04882812 6.70507812 C-0.03700225 4.46998686 -0.0205222 2.23502563 0 0 Z " fill="#FCFDFC" transform="translate(20,158)"/>
<path d="M0 0 C2.76375 0.185625 5.5275 0.37125 8.375 0.5625 C8.375 6.5025 8.375 12.4425 8.375 18.5625 C2.105 18.5625 -4.165 18.5625 -10.625 18.5625 C-10.625 12.6225 -10.625 6.6825 -10.625 0.5625 C-7.3019839 -1.09900805 -3.62257099 -0.25549365 0 0 Z " fill="#FEFEFE" transform="translate(208.625,217.4375)"/>
<path d="M0 0 C6.27 0 12.54 0 19 0 C19 5.94 19 11.88 19 18 C12.73 18 6.46 18 0 18 C0 12.06 0 6.12 0 0 Z " fill="#E8E7E8" transform="translate(99,218)"/>
<path d="M0 0 C5.94 0 11.88 0 18 0 C18 6.27 18 12.54 18 19 C12.06 19 6.12 19 0 19 C0 12.73 0 6.46 0 0 Z " fill="#FEFEFE" transform="translate(218,198)"/>
<path d="M0 0 C5.94 0 11.88 0 18 0 C18 6.27 18 12.54 18 19 C12.06 19 6.12 19 0 19 C0 12.73 0 6.46 0 0 Z " fill="#FEFEFD" transform="translate(218,119)"/>
<path d="M0 0 C5.94 0 11.88 0 18 0 C18 6.27 18 12.54 18 19 C12.06 19 6.12 19 0 19 C0 12.73 0 6.46 0 0 Z " fill="#E8E8E8" transform="translate(218,20)"/>
<path d="M0 0 C5.94 0 11.88 0 18 0 C18 6.27 18 12.54 18 19 C14.101875 19.0309375 14.101875 19.0309375 10.125 19.0625 C9.30789551 19.071604 8.49079102 19.08070801 7.64892578 19.09008789 C2.22222222 19.11111111 2.22222222 19.11111111 0 18 C0 12.06 0 6.12 0 0 Z " fill="#E8E8E8" transform="translate(218,60)"/>
<path d="M0 0 C2.97666568 2.170012 5.81730339 4.42620675 8.6328125 6.80078125 C9.550625 7.56777344 10.4684375 8.33476563 11.4140625 9.125 C16.24967972 13.31349786 20.18909501 17.40562385 23.6328125 22.80078125 C22.6428125 23.29578125 22.6428125 23.29578125 21.6328125 23.80078125 C21.6328125 23.14078125 21.6328125 22.48078125 21.6328125 21.80078125 C20.9728125 21.80078125 20.3128125 21.80078125 19.6328125 21.80078125 C18.6428125 19.32578125 18.6428125 19.32578125 17.6328125 16.80078125 C16.9728125 16.80078125 16.3128125 16.80078125 15.6328125 16.80078125 C15.6328125 16.14078125 15.6328125 15.48078125 15.6328125 14.80078125 C14.6428125 14.80078125 13.6528125 14.80078125 12.6328125 14.80078125 C12.1378125 13.81078125 12.1378125 13.81078125 11.6328125 12.80078125 C10.1478125 12.30578125 10.1478125 12.30578125 8.6328125 11.80078125 C8.1378125 10.31578125 8.1378125 10.31578125 7.6328125 8.80078125 C6.9728125 8.47078125 6.3128125 8.14078125 5.6328125 7.80078125 C5.6328125 7.14078125 5.6328125 6.48078125 5.6328125 5.80078125 C3.46853762 4.67856464 1.36340697 3.70221825 -0.9296875 2.86328125 C-3.3671875 1.80078125 -3.3671875 1.80078125 -4.7421875 0.390625 C-10.91347321 -5.64714732 -20.23058932 -7.43350536 -28.3671875 -9.19921875 C-29.10195312 -9.43125 -29.83671875 -9.66328125 -30.59375 -9.90234375 C-31.17898437 -10.0003125 -31.76421875 -10.09828125 -32.3671875 -10.19921875 C-33.0271875 -9.53921875 -33.6871875 -8.87921875 -34.3671875 -8.19921875 C-34.8621875 -9.68421875 -34.8621875 -9.68421875 -35.3671875 -11.19921875 C-35.9240625 -10.68359375 -36.4809375 -10.16796875 -37.0546875 -9.63671875 C-39.3671875 -8.19921875 -39.3671875 -8.19921875 -42.1171875 -8.51171875 C-42.8596875 -8.73859375 -43.6021875 -8.96546875 -44.3671875 -9.19921875 C-44.3671875 -9.85921875 -44.3671875 -10.51921875 -44.3671875 -11.19921875 C-43.3771875 -11.19921875 -42.3871875 -11.19921875 -41.3671875 -11.19921875 C-41.3671875 -11.85921875 -41.3671875 -12.51921875 -41.3671875 -13.19921875 C-43.47167688 -13.05811889 -45.5757752 -12.911177 -47.6796875 -12.76171875 C-49.43732422 -12.63990234 -49.43732422 -12.63990234 -51.23046875 -12.515625 C-54.39309708 -12.31248165 -54.39309708 -12.31248165 -57.3671875 -11.19921875 C-57.3671875 -10.53921875 -57.3671875 -9.87921875 -57.3671875 -9.19921875 C-58.4809375 -9.38484375 -59.5946875 -9.57046875 -60.7421875 -9.76171875 C-64.19287611 -10.51602532 -64.19287611 -10.51602532 -66.3671875 -9.19921875 C-67.3571875 -9.52921875 -68.3471875 -9.85921875 -69.3671875 -10.19921875 C-75.48913601 -9.80425433 -79.22366969 -8.82874905 -84.015625 -4.8203125 C-85.76783735 -3.41624715 -87.34991968 -2.19015733 -89.3671875 -1.19921875 C-92.8046875 -1.88671875 -92.8046875 -1.88671875 -95.3671875 -3.19921875 C-69.79961141 -24.50553216 -25.53721598 -17.21515961 0 0 Z " fill="#47AFE1" transform="translate(169.3671875,40.19921875)"/>
<path d="M0 0 C-0.165 0.598125 -0.33 1.19625 -0.5 1.8125 C-1.1114124 4.11344336 -1.1114124 4.11344336 -1 7 C-1.3062434 8.33981486 -1.63451555 9.67511887 -2 11 C-3.2375 11.12375 -4.475 11.2475 -5.75 11.375 C-8.90871144 11.76983893 -11.2497035 12.33017712 -14 14 C-17 15.5 -17 15.5 -20 17 C-20.56134328 19.27655884 -20.89246368 21.55324334 -21.2421875 23.87109375 C-22 26 -22 26 -23.96875 27.07421875 C-24.6390625 27.37972656 -25.309375 27.68523437 -26 28 C-27.68390585 31.3734758 -27.68390585 31.3734758 -29 35 C-29.65288627 36.34013497 -30.31225595 37.67741528 -31 39 C-31.66 38.67 -32.32 38.34 -33 38 C-33 37.34 -33 36.68 -33 36 C-33.2475 36.845625 -33.495 37.69125 -33.75 38.5625 C-36.2927926 45.55517966 -39.1320073 49.59900547 -45 54 C-39.48075196 31.68093556 -23.26565178 13.43325378 -4.265625 1.24609375 C-2 0 -2 0 0 0 Z " fill="#2AA4E5" transform="translate(74,37)"/>
<path d="M0 0 C0.33 0 0.66 0 1 0 C1 6.27 1 12.54 1 19 C6.94 19 12.88 19 19 19 C19 19.33 19 19.66 19 20 C13.06 20 7.12 20 1 20 C1 24.62 1 29.24 1 34 C2.98 33.505 2.98 33.505 5 33 C5.99 34.65 6.98 36.3 8 38 C5.19260508 37.16536908 2.5059397 36.25671755 -0.109375 34.9296875 C-9.54100148 30.15380021 -19.73590364 28.22262496 -30 26 C-30 25.67 -30 25.34 -30 25 C-26.37 25 -22.74 25 -19 25 C-19 23.35 -19 21.7 -19 20 C-15.81453711 18.40726856 -12.36800652 18.89858167 -8.875 18.9375 C-4.976875 18.9684375 -4.976875 18.9684375 -1 19 C-0.67 12.73 -0.34 6.46 0 0 Z " fill="#E7EAE9" transform="translate(158,0)"/>
<path d="M0 0 C1.58206057 0.00667536 3.16410534 0.0186375 4.74609375 0.03515625 C5.55240234 0.03966797 6.35871094 0.04417969 7.18945312 0.04882812 C9.18753131 0.06065107 11.18557158 0.07858711 13.18359375 0.09765625 C12.85359375 2.07765625 12.52359375 4.05765625 12.18359375 6.09765625 C12.84359375 6.42765625 13.50359375 6.75765625 14.18359375 7.09765625 C12.23448519 11.4347455 10.22507876 15.42319905 7.18359375 19.09765625 C3.00715743 20.42341025 -0.89952843 20.05609516 -4.81640625 18.09765625 C-4.84324937 15.28509344 -4.86316813 12.47278384 -4.87890625 9.66015625 C-4.88728516 8.85771484 -4.89566406 8.05527344 -4.90429688 7.22851562 C-4.91292055 5.18470404 -4.86868775 3.14081723 -4.81640625 1.09765625 C-3.81640625 0.09765625 -3.81640625 0.09765625 0 0 Z " fill="#E7E8E8" transform="translate(24.81640625,59.90234375)"/>
<path d="M0 0 C0.33 0 0.66 0 1 0 C1 21.78 1 43.56 1 66 C-0.98 66.495 -0.98 66.495 -3 67 C-3.33 68.98 -3.66 70.96 -4 73 C-6.97922593 73.02683987 -9.95821295 73.04676037 -12.9375 73.0625 C-13.78763672 73.07087891 -14.63777344 73.07925781 -15.51367188 73.08789062 C-16.32255859 73.09111328 -17.13144531 73.09433594 -17.96484375 73.09765625 C-18.7137085 73.10289307 -19.46257324 73.10812988 -20.23413086 73.11352539 C-22 73 -22 73 -23 72 C-23.07258946 69.81360547 -23.08373783 67.62499611 -23.0625 65.4375 C-23.05347656 64.23996094 -23.04445313 63.04242188 -23.03515625 61.80859375 C-23.02355469 60.88175781 -23.01195313 59.95492187 -23 59 C-22.34515625 59.18175781 -21.6903125 59.36351562 -21.015625 59.55078125 C-19.64664063 59.92783203 -19.64664063 59.92783203 -18.25 60.3125 C-17.36828125 60.55613281 -16.4865625 60.79976562 -15.578125 61.05078125 C-10.40025355 62.42438689 -5.19702587 63.70074353 0 65 C0 43.55 0 22.1 0 0 Z " fill="#CAD8E6" transform="translate(102,144)"/>
<path d="M0 0 C8.53023769 7.6154006 12.11016451 24.27061427 12.8984375 35.41015625 C12.94871094 36.69212891 12.94871094 36.69212891 13 38 C13.07476562 39.25683594 13.14953125 40.51367188 13.2265625 41.80859375 C13.93287167 58.67815062 10.64096009 82.40684632 -1.21484375 95.43359375 C-1.80394531 95.95050781 -2.39304688 96.46742188 -3 97 C-2.835 96.484375 -2.67 95.96875 -2.5 95.4375 C-1.37210842 89.93902855 -1.79015984 85.15629371 -4 80 C-4.66 79.67 -5.32 79.34 -6 79 C-5.34 78.01 -4.68 77.02 -4 76 C-3.01 76.33 -2.02 76.66 -1 77 C-1 77.66 -1 78.32 -1 79 C0.65 79 2.3 79 4 79 C9.83126949 66.24307711 13.56826008 46.70478024 9 33 C8.93197033 31.27204648 8.91504355 29.54164635 8.9375 27.8125 C8.94652344 26.91144531 8.95554688 26.01039062 8.96484375 25.08203125 C8.97644531 24.39496094 8.98804688 23.70789063 9 23 C8.34 23 7.68 23 7 23 C6.87882813 22.36191406 6.75765625 21.72382812 6.6328125 21.06640625 C6.46523437 20.24011719 6.29765625 19.41382812 6.125 18.5625 C5.96257812 17.73878906 5.80015625 16.91507813 5.6328125 16.06640625 C5.31957031 15.04353516 5.31957031 15.04353516 5 14 C4.34 13.67 3.68 13.34 3 13 C3 11.02 3 9.04 3 7 C2.34 7 1.68 7 1 7 C0.67 4.69 0.34 2.38 0 0 Z " fill="#1978D4" transform="translate(198,72)"/>
<path d="M0 0 C6.27 0 12.54 0 19 0 C19.33 0.99 19.66 1.98 20 3 C17.58411846 7.460089 15.3173983 9.51749598 11 12 C10.34 12.825 9.68 13.65 9 14.5 C6.8726794 17.15915075 5.06566043 18.54784506 2 20 C1.34 19.67 0.68 19.34 0 19 C0 12.73 0 6.46 0 0 Z " fill="#E7E8E8" transform="translate(40,40)"/>
<path d="M0 0 C0.33 0 0.66 0 1 0 C1 6.27 1 12.54 1 19 C6.94 18.67 12.88 18.34 19 18 C19.33 12.06 19.66 6.12 20 0 C20.33 0 20.66 0 21 0 C21.74136918 12.68270851 22.13809004 25.29571603 22 38 C22.33 37.34 22.66 36.68 23 36 C23.66 36 24.32 36 25 36 C25 36.66 25 37.32 25 38 C32.13537981 35.46441815 32.13537981 35.46441815 38.4375 31.375 C44.07767763 27.0312613 52.09852953 26.62694754 59 27 C59 27.33 59 27.66 59 28 C58.15179688 28.20753906 57.30359375 28.41507813 56.4296875 28.62890625 C43.64518167 31.98659514 32.65429766 37.31815653 22.109375 45.3984375 C20 47 20 47 18 48 C18.66666667 45.33333333 19.33333333 42.66666667 20 40 C13.73 40 7.46 40 1 40 C1 43.96 1 47.92 1 52 C0.67 52 0.34 52 0 52 C-1.40027356 16.52322798 -1.40027356 16.52322798 0 0 Z M1 20 C1 26.27 1 32.54 1 39 C7.27 39 13.54 39 20 39 C20 32.73 20 26.46 20 20 C13.73 20 7.46 20 1 20 Z " fill="#F3F3F2" transform="translate(39,0)"/>
<path d="M0 0 C1.093125 0.00257812 2.18625 0.00515625 3.3125 0.0078125 C4.405625 0.00523438 5.49875 0.00265625 6.625 0 C9.3125 0.1328125 9.3125 0.1328125 10.3125 1.1328125 C10.39881874 2.47548663 10.41956473 3.82255572 10.41015625 5.16796875 C10.40693359 5.97685547 10.40371094 6.78574219 10.40039062 7.61914062 C10.39201172 8.46927734 10.38363281 9.31941406 10.375 10.1953125 C10.37048828 11.04931641 10.36597656 11.90332031 10.36132812 12.78320312 C10.34950373 14.89976913 10.33156769 17.01629935 10.3125 19.1328125 C6.5625 20.2578125 6.5625 20.2578125 4.3125 19.1328125 C4.3125 23.0928125 4.3125 27.0528125 4.3125 31.1328125 C3.9825 31.1328125 3.6525 31.1328125 3.3125 31.1328125 C3.16554687 29.82570313 3.16554687 29.82570313 3.015625 28.4921875 C2.10129436 21.20907101 0.72072595 14.55924626 -1.78515625 7.65625 C-2.56292736 5.48118447 -3.27115445 3.40472276 -3.6875 1.1328125 C-2.6875 0.1328125 -2.6875 0.1328125 0 0 Z " fill="#E1E9EC" transform="translate(206.6875,78.8671875)"/>
<path d="M0 0 C3.45101522 4.24740335 6.73279209 8.61105071 10 13 C9.01 13 8.02 13 7 13 C7 12.34 7 11.68 7 11 C5.35 11.33 3.7 11.66 2 12 C2 18.27 2 24.54 2 31 C1.67 31 1.34 31 1 31 C0.67 25.06 0.34 19.12 0 13 C-4.62 13 -9.24 13 -14 13 C-14 12.67 -14 12.34 -14 12 C-9.05 12 -4.1 12 1 12 C0.67 8.04 0.34 4.08 0 0 Z M-19 31 C-14.0809375 30.9690625 -14.0809375 30.9690625 -9.0625 30.9375 C-8.02746338 30.928396 -6.99242676 30.91929199 -5.92602539 30.90991211 C-4.71160767 30.90616577 -4.71160767 30.90616577 -3.47265625 30.90234375 C-2.22367554 30.89448853 -2.22367554 30.89448853 -0.94946289 30.88647461 C1 31 1 31 2 32 C2.08651611 33.41570123 2.10704904 34.835595 2.09765625 36.25390625 C2.09443359 37.10791016 2.09121094 37.96191406 2.08789062 38.84179688 C2.07532227 40.18854492 2.07532227 40.18854492 2.0625 41.5625 C2.05798828 42.46419922 2.05347656 43.36589844 2.04882812 44.29492188 C2.03700244 46.52997589 2.01906638 48.76499602 2 51 C7.28 51 12.56 51 18 51 C18 51.33 18 51.66 18 52 C12.72 52 7.44 52 2 52 C2 57.94 2 63.88 2 70 C1.67 70 1.34 70 1 70 C0.67 64.39 0.34 58.78 0 53 C-4.1146875 53.0309375 -4.1146875 53.0309375 -8.3125 53.0625 C-18.23426388 53.09830288 -28.1003079 52.62080936 -38 52 C-38 51.67 -38 51.34 -38 51 C-31.73 51 -25.46 51 -19 51 C-19 44.4 -19 37.8 -19 31 Z M-18 32 C-18 38.27 -18 44.54 -18 51 C-11.73 51 -5.46 51 1 51 C1 44.73 1 38.46 1 32 C-5.27 32 -11.54 32 -18 32 Z " fill="#F1F0EF" transform="translate(38,166)"/>
<path d="M0 0 C1.99954746 -0.04254356 4.00041636 -0.04080783 6 0 C7 1 7 1 7.11352539 2.85766602 C7.10828857 3.64842529 7.10305176 4.43918457 7.09765625 5.25390625 C7.09443359 6.10791016 7.09121094 6.96191406 7.08789062 7.84179688 C7.07951172 8.73962891 7.07113281 9.63746094 7.0625 10.5625 C7.05798828 11.46419922 7.05347656 12.36589844 7.04882812 13.29492188 C7.03700244 15.52997589 7.01906638 17.76499602 7 20 C2.38 20 -2.24 20 -7 20 C-5.875 13.25 -5.875 13.25 -4 10 C-3.34 10 -2.68 10 -2 10 C-1.34 6.7 -0.68 3.4 0 0 Z " fill="#F8FBFC" transform="translate(210,138)"/>
<path d="M0 0 C0.33 0 0.66 0 1 0 C1 21.45 1 42.9 1 65 C2.32 65 3.64 65 5 65 C5.625 67.3125 5.625 67.3125 6 70 C5.34 70.99 4.68 71.98 4 73 C2.12060547 73.34057617 2.12060547 73.34057617 -0.1328125 73.29296875 C-0.93847656 73.28330078 -1.74414062 73.27363281 -2.57421875 73.26367188 C-3.41597656 73.23853516 -4.25773438 73.21339844 -5.125 73.1875 C-6.39923828 73.16719727 -6.39923828 73.16719727 -7.69921875 73.14648438 C-9.79974837 73.11108219 -11.89995293 73.05727401 -14 73 C-14 71.02 -14 69.04 -14 67 C-7.565 66.01 -7.565 66.01 -1 65 C-0.67 43.55 -0.34 22.1 0 0 Z " fill="#C5D5E5" transform="translate(133,144)"/>
<path d="M0 0 C0.93932373 -0.00064453 1.87864746 -0.00128906 2.84643555 -0.00195312 C10.15781246 0.05326023 16.93215567 0.8009276 24.125 2.1875 C24.125 10.7675 24.125 19.3475 24.125 28.1875 C16.5 29 16.5 29 14.13427734 29.23364258 C8.73683788 29.86053482 3.92313079 30.93983651 0.375 35.375 C-0.0375 35.973125 -0.45 36.57125 -0.875 37.1875 C-1.535 37.1875 -2.195 37.1875 -2.875 37.1875 C-2.875 44.1175 -2.875 51.0475 -2.875 58.1875 C-3.205 58.1875 -3.535 58.1875 -3.875 58.1875 C-3.96261663 54.64599107 -4.01559739 51.10476367 -4.0625 47.5625 C-4.08763672 46.56347656 -4.11277344 45.56445312 -4.13867188 44.53515625 C-4.23823338 34.51263177 -4.23823338 34.51263177 -0.875 30.1875 C4.30528222 27.13311852 8.6537537 26.7908463 14.5625 27 C17.058125 27.061875 19.55375 27.12375 22.125 27.1875 C22.125 19.2675 22.125 11.3475 22.125 3.1875 C10.48375775 2.03774768 -1.27632911 1.29383945 -12.875 3.1875 C-12.875 2.5275 -12.875 1.8675 -12.875 1.1875 C-8.59167028 -0.24027657 -4.48788622 -0.00312881 0 0 Z " fill="#429AD1" transform="translate(136.875,59.8125)"/>
<path d="M0 0 C0.99 0 1.98 0 3 0 C3 20.46 3 40.92 3 62 C2.01 62 1.02 62 0 62 C0 41.54 0 21.08 0 0 Z " fill="#096EDF" transform="translate(98,145)"/>
<path d="M0 0 C1.18613892 0.00785522 1.18613892 0.00785522 2.39624023 0.01586914 C3.67724609 0.02070313 3.67724609 0.02070313 4.98413086 0.02563477 C5.88196289 0.03401367 6.77979492 0.04239258 7.70483398 0.05102539 C8.6065332 0.05553711 9.50823242 0.06004883 10.43725586 0.06469727 C12.67234712 0.07652315 14.90730835 0.09300319 17.14233398 0.11352539 C17.14233398 2.42352539 17.14233398 4.73352539 17.14233398 7.11352539 C15.86616211 7.31848633 14.58999023 7.52344727 13.27514648 7.73461914 C11.60584778 8.00658354 9.93657845 8.2787283 8.26733398 8.55102539 C7.42557617 8.68573242 6.58381836 8.82043945 5.71655273 8.95922852 C4.91088867 9.09135742 4.10522461 9.22348633 3.27514648 9.35961914 C2.53151855 9.48006592 1.78789063 9.6005127 1.02172852 9.72460938 C-0.93651249 10.04599644 -0.93651249 10.04599644 -2.85766602 11.11352539 C-2.88454752 9.46777973 -2.90400725 7.82191126 -2.92016602 6.17602539 C-2.93176758 5.25950195 -2.94336914 4.34297852 -2.95532227 3.39868164 C-2.83580216 0.60191113 -2.79636442 0.17089098 0 0 Z " fill="#F9FCFB" transform="translate(81.857666015625,19.886474609375)"/>
<path d="M0 0 C1.37478516 0.01740234 1.37478516 0.01740234 2.77734375 0.03515625 C3.69644531 0.04417969 4.61554687 0.05320312 5.5625 0.0625 C6.27277344 0.07410156 6.98304687 0.08570312 7.71484375 0.09765625 C7.27916881 2.63909338 6.79565645 4.90909328 5.77734375 7.28515625 C4.20802797 11.43922742 3.51048909 15.73853553 2.71484375 20.09765625 C0.73484375 19.76765625 -1.24515625 19.43765625 -3.28515625 19.09765625 C-3.31199612 16.11843032 -3.33191662 13.1394433 -3.34765625 10.16015625 C-3.35603516 9.31001953 -3.36441406 8.45988281 -3.37304688 7.58398438 C-3.37626953 6.77509766 -3.37949219 5.96621094 -3.3828125 5.1328125 C-3.38804932 4.38394775 -3.39328613 3.63508301 -3.39868164 2.86352539 C-3.22295389 0.13010851 -2.72767288 0.11656722 0 0 Z " fill="#FBFDFB" transform="translate(23.28515625,78.90234375)"/>
<path d="M0 0 C0.66 0 1.32 0 2 0 C0.931073 9.06313636 -0.2569932 18.03596504 -2 27 C-8.93 27 -15.86 27 -23 27 C-23 47.46 -23 67.92 -23 89 C-18.71 88.01 -14.42 87.02 -10 86 C-8.68 86.33 -7.36 86.66 -6 87 C-7.8708878 87.67812114 -9.74694293 88.3419946 -11.625 89 C-12.66914063 89.37125 -13.71328125 89.7425 -14.7890625 90.125 C-18 91 -18 91 -24 91 C-24 69.55 -24 48.1 -24 26 C-17.07 26 -10.14 26 -3 26 C-2.87625 23.9375 -2.7525 21.875 -2.625 19.75 C-2.15593872 13.07437427 -1.23985797 6.572451 0 0 Z " fill="#1A6DC3" transform="translate(158,118)"/>
<path d="M0 0 C0.33 0 0.66 0 1 0 C1.89983733 12.48697343 1.89956093 24.50609815 1 37 C6.94 37 12.88 37 19 37 C19 37.33 19 37.66 19 38 C13.06 38 7.12 38 1 38 C1 44.27 1 50.54 1 57 C6.94 57 12.88 57 19 57 C19 57.33 19 57.66 19 58 C13.06 58 7.12 58 1 58 C1 63.94 1 69.88 1 76 C0.67 76 0.34 76 0 76 C0 70.06 0 64.12 0 58 C-4.29 58 -8.58 58 -13 58 C-13 57.67 -13 57.34 -13 57 C-8.71 57 -4.42 57 0 57 C-0.12568359 55.16501953 -0.12568359 55.16501953 -0.25390625 53.29296875 C-0.99721198 41.39531998 -0.8111611 29.89702942 0 18 C-5.94 18 -11.88 18 -18 18 C-18 17.67 -18 17.34 -18 17 C-12.06 17 -6.12 17 0 17 C0 11.39 0 5.78 0 0 Z " fill="#F2F2F2" transform="translate(217,160)"/>
<path d="M0 0 C-1.7325 0.7115625 -1.7325 0.7115625 -3.5 1.4375 C-10.84083029 5.13394646 -16.00424407 11.63794398 -19.19238281 19.12573242 C-20.95947131 25.41470849 -20.68839009 32.07268349 -20.75 38.5625 C-20.77820775 40.06318476 -20.80814177 41.56383811 -20.83984375 43.06445312 C-20.91633648 46.70993577 -20.95737396 50.35334217 -21 54 C-28.92 54 -36.84 54 -45 54 C-45 53.67 -45 53.34 -45 53 C-37.74 53 -30.48 53 -23 53 C-23.03480469 50.83179688 -23.06960937 48.66359375 -23.10546875 46.4296875 C-23.12890799 44.31479202 -23.14709955 42.19991137 -23.16479492 40.08496094 C-23.17982196 38.62232925 -23.20024955 37.15974218 -23.22631836 35.69726562 C-23.26297267 33.5871272 -23.27978676 31.47758774 -23.29296875 29.3671875 C-23.3086792 28.09987793 -23.32438965 26.83256836 -23.34057617 25.52685547 C-22.97013899 21.69077266 -21.88099037 19.32844168 -20 16 C-19.814375 15.236875 -19.62875 14.47375 -19.4375 13.6875 C-19.293125 13.130625 -19.14875 12.57375 -19 12 C-18.34 11.67 -17.68 11.34 -17 11 C-16.71125 10.175 -16.4225 9.35 -16.125 8.5 C-15 6 -15 6 -12.875 5.1875 C-12.25625 5.125625 -11.6375 5.06375 -11 5 C-11 4.01 -11 3.02 -11 2 C-10.01 2 -9.02 2 -8 2 C-8 1.34 -8 0.68 -8 0 C-4.71303767 -0.79953138 -3.28976808 -1.09658936 0 0 Z " fill="#4194D0" transform="translate(124,64)"/>
<path d="M0 0 C0 7.92 0 15.84 0 24 C-6.27 24.33 -12.54 24.66 -19 25 C-19 24.34 -19 23.68 -19 23 C-14.23692563 22.04738513 -9.8333472 21.91666643 -5 22 C-2.98487773 17.78134972 -2.58645932 13.79114568 -2.375 9.1875 C-2.33632812 8.49462891 -2.29765625 7.80175781 -2.2578125 7.08789062 C-2.16426432 5.39232985 -2.08107636 3.69620288 -2 2 C-7.9172559 0.78174143 -13.85751516 0.66352622 -19.875 0.4375 C-20.94492188 0.39431641 -22.01484375 0.35113281 -23.1171875 0.30664062 C-25.74467754 0.20107183 -28.37225422 0.09896209 -31 0 C-22.23592104 -4.796428 -9.32445112 -1.84186689 0 0 Z " fill="#D6F6FD" transform="translate(159,63)"/>
<path d="M0 0 C0.33 0 0.66 0 1 0 C1.27263672 1.04800781 1.27263672 1.04800781 1.55078125 2.1171875 C1.80214844 3.02726563 2.05351563 3.93734375 2.3125 4.875 C2.55613281 5.77992188 2.79976562 6.68484375 3.05078125 7.6171875 C3.86669852 10.32113319 3.86669852 10.32113319 7 12 C7.36442233 13.66014616 7.69972883 15.32706064 8 17 C8.66 17.33 9.32 17.66 10 18 C11.01691264 19.99145391 12.01642648 21.99187074 13 24 C13.66 24.66 14.32 25.32 15 26 C15.13664062 26.61746094 15.27328125 27.23492187 15.4140625 27.87109375 C16.16469721 30.59839988 17.47559802 31.98277505 19.375 34.0625 C19.98085938 34.73410156 20.58671875 35.40570313 21.2109375 36.09765625 C21.80132812 36.72542969 22.39171875 37.35320312 23 38 C23.48339844 38.53109375 23.96679688 39.0621875 24.46484375 39.609375 C26.24944152 41.2259572 28.01632289 42.15530105 30.1875 43.1875 C30.90292969 43.53167969 31.61835937 43.87585938 32.35546875 44.23046875 C33.16951172 44.61138672 33.16951172 44.61138672 34 45 C33.67 46.32 33.34 47.64 33 49 C17.94167323 42.03469467 7.65066823 24.81554961 1.5625 10.0625 C1.15499512 9.08543091 1.15499512 9.08543091 0.73925781 8.08862305 C-1.12193688 3.36581063 -1.12193688 3.36581063 0 0 Z " fill="#247AC9" transform="translate(30,143)"/>
<path d="M0 0 C1.65 0 3.3 0 5 0 C5 6.27 5 12.54 5 19 C2.69 19 0.38 19 -2 19 C-2.144375 20.27875 -2.28875 21.5575 -2.4375 22.875 C-2.70642746 25.25692894 -2.92226346 26.84452691 -4 29 C-4.66 29 -5.32 29 -6 29 C-4.68 22.4 -3.36 15.8 -2 9 C-1.67 9 -1.34 9 -1 9 C-0.67 6.03 -0.34 3.06 0 0 Z " fill="#E8E9EA" transform="translate(212,119)"/>
<path d="M0 0 C2.10042935 3.75354504 3.26041646 7.780618 4.5 11.875 C4.92654885 13.2683929 5.35362432 14.6616247 5.78125 16.0546875 C5.98492187 16.71952148 6.18859375 17.38435547 6.3984375 18.06933594 C7.2262799 20.72622623 8.10762411 23.36418604 9 26 C5.28720216 24.55613418 4.0513557 22.87763608 2.25 19.375 C1.82203125 18.55773437 1.3940625 17.74046875 0.953125 16.8984375 C0.63859375 16.27195313 0.3240625 15.64546875 0 15 C0 16.98 0 18.96 0 21 C-1.32 21.33 -2.64 21.66 -4 22 C-4.33 16.06 -4.66 10.12 -5 4 C-3.35 4 -1.7 4 0 4 C0 2.68 0 1.36 0 0 Z " fill="#E3E9EE" transform="translate(26,134)"/>
<path d="M0 0 C-1 2 -1 2 -2.875 2.6875 C-6.11638142 4.6895297 -6.6789051 7.51711345 -8 11 C-8.65288627 12.34013497 -9.31225595 13.67741528 -10 15 C-10.66 14.67 -11.32 14.34 -12 14 C-12 13.34 -12 12.68 -12 12 C-12.2475 12.845625 -12.495 13.69125 -12.75 14.5625 C-15.2927926 21.55517966 -18.1320073 25.59900547 -24 30 C-21.7484087 21.23160785 -18.8342826 13.21298418 -12 7 C-10.43241916 5.18128218 -8.89686111 3.33894855 -7.3671875 1.48828125 C-4.82595979 -1.27802662 -3.40987833 -1.0229635 0 0 Z " fill="#159BF2" transform="translate(53,61)"/>
<path d="M0 0 C0.33 0 0.66 0 1 0 C1 4.62 1 9.24 1 14 C6.61 14 12.22 14 18 14 C18 14.33 18 14.66 18 15 C12.39 15 6.78 15 1 15 C1 20.94 1 26.88 1 33 C0.67 33 0.34 33 0 33 C0 27.06 0 21.12 0 15 C-6.27 15 -12.54 15 -19 15 C-19 21.27 -19 27.54 -19 34 C-19.33 34 -19.66 34 -20 34 C-20.33 27.73 -20.66 21.46 -21 15 C-23.97 14.505 -23.97 14.505 -27 14 C-26.375 12.0625 -26.375 12.0625 -25 10 C-21.875 9.25 -21.875 9.25 -19 9 C-19 10.65 -19 12.3 -19 14 C-12.73 14 -6.46 14 0 14 C0 9.38 0 4.76 0 0 Z M-29 34 C-26.03 34 -23.06 34 -20 34 C-20 34.33 -20 34.66 -20 35 C-22.97 35 -25.94 35 -29 35 C-29 34.67 -29 34.34 -29 34 Z " fill="#F4F4F4" transform="translate(197,183)"/>
<path d="M0 0 C2.97 0.495 2.97 0.495 6 1 C6 7.27 6 13.54 6 20 C4.68 20.33 3.36 20.66 2 21 C1.67 24.63 1.34 28.26 1 32 C0.67 32 0.34 32 0 32 C0 21.44 0 10.88 0 0 Z " fill="#F4FCFC" transform="translate(211,98)"/>
<path d="M0 0 C0.33 0 0.66 0 1 0 C1 10.23 1 20.46 1 31 C-6.26 31 -13.52 31 -21 31 C-21.33 39.91 -21.66 48.82 -22 58 C-22.33 58 -22.66 58 -23 58 C-23.0580772 53.91672643 -23.09362249 49.83355917 -23.125 45.75 C-23.14175781 44.59113281 -23.15851563 43.43226563 -23.17578125 42.23828125 C-23.18222656 41.12324219 -23.18867187 40.00820312 -23.1953125 38.859375 C-23.20578613 37.83295898 -23.21625977 36.80654297 -23.22705078 35.74902344 C-23 33 -23 33 -21 29 C-14.07 29.33 -7.14 29.66 0 30 C-0.66 28.68 -1.32 27.36 -2 26 C-2.13997227 23.21175242 -2.1888913 20.53172884 -2.125 17.75 C-2.11597656 17.00492188 -2.10695313 16.25984375 -2.09765625 15.4921875 C-2.07418358 13.66131941 -2.03831525 11.83061762 -2 10 C-1.34 10 -0.68 10 0 10 C0 6.7 0 3.4 0 0 Z " fill="#1587E4" transform="translate(100,86)"/>
<path d="M0 0 C8.56458657 7.6460657 12.0163541 24.19432947 12.9140625 35.3515625 C13.0420812 39.296866 13.10132827 43.24023857 13.125 47.1875 C13.12983398 47.9606958 13.13466797 48.7338916 13.13964844 49.53051758 C13.12675611 53.79741793 12.8444826 57.79769371 12 62 C11.67 62 11.34 62 11 62 C10.97494385 61.22809326 10.9498877 60.45618652 10.92407227 59.66088867 C10.80815993 56.16958819 10.68541176 52.67856078 10.5625 49.1875 C10.52318359 47.97255859 10.48386719 46.75761719 10.44335938 45.50585938 C10.38051758 43.76079102 10.38051758 43.76079102 10.31640625 41.98046875 C10.27974854 40.90692139 10.24309082 39.83337402 10.20532227 38.72729492 C10.10458153 35.90688447 10.10458153 35.90688447 9 33 C8.93197033 31.27204648 8.91504355 29.54164635 8.9375 27.8125 C8.94652344 26.91144531 8.95554688 26.01039062 8.96484375 25.08203125 C8.97644531 24.39496094 8.98804688 23.70789063 9 23 C8.34 23 7.68 23 7 23 C6.87882813 22.36191406 6.75765625 21.72382812 6.6328125 21.06640625 C6.46523437 20.24011719 6.29765625 19.41382812 6.125 18.5625 C5.88136719 17.32693359 5.88136719 17.32693359 5.6328125 16.06640625 C5.31957031 15.04353516 5.31957031 15.04353516 5 14 C4.34 13.67 3.68 13.34 3 13 C3 11.02 3 9.04 3 7 C2.34 7 1.68 7 1 7 C0.67 4.69 0.34 2.38 0 0 Z " fill="#3490D3" transform="translate(198,72)"/>
<path d="M0 0 C3.46835503 3.31070253 5.20580549 5.86676312 5.625 10.6875 C5.69976562 11.49574219 5.77453125 12.30398437 5.8515625 13.13671875 C5.92503906 14.05904297 5.92503906 14.05904297 6 15 C6.66 15 7.32 15 8 15 C8 16.98 8 18.96 8 21 C8.99 21.33 9.98 21.66 11 22 C11 23.98 11 25.96 11 28 C10.01 28 9.02 28 8 28 C7.34 26.68 6.68 25.36 6 24 C5.34 24.66 4.68 25.32 4 26 C4 24.35 4 22.7 4 21 C4.66 20.67 5.32 20.34 6 20 C6.65213292 17.97536745 6.65213292 17.97536745 7 16 C4.53199953 17.15173355 2.95216435 18.04783565 1 20 C0.34 17.69 -0.32 15.38 -1 13 C-0.34 13 0.32 13 1 13 C0.67 12.13375 0.34 11.2675 0 10.375 C-0.99231979 7.0259207 -1.24189771 4.46720057 -1 1 C-0.67 0.67 -0.34 0.34 0 0 Z " fill="#129BF6" transform="translate(193,64)"/>
<path d="M0 0 C1.65 0 3.3 0 5 0 C4.34 2.64 3.68 5.28 3 8 C3.66 8 4.32 8 5 8 C4.69475674 11.64647953 4.37959487 15.29203348 4.0625 18.9375 C3.97548828 19.97841797 3.88847656 21.01933594 3.79882812 22.09179688 C3.66831055 23.57583008 3.66831055 23.57583008 3.53515625 25.08984375 C3.456604 26.00628662 3.37805176 26.92272949 3.29711914 27.86694336 C3 30 3 30 2 31 C1.76346477 33.52596259 1.57826308 36.03107207 1.4375 38.5625 C1.39431641 39.27341797 1.35113281 39.98433594 1.30664062 40.71679688 C1.20028223 42.47761912 1.09961154 44.2387832 1 46 C0.67 46 0.34 46 0 46 C0 30.82 0 15.64 0 0 Z " fill="#0A73E7" transform="translate(135,145)"/>
<path d="M0 0 C6.27 0 12.54 0 19 0 C19 1.32 19 2.64 19 4 C21.97 4 24.94 4 28 4 C28 4.33 28 4.66 28 5 C27.43603516 5.02505615 26.87207031 5.0501123 26.29101562 5.07592773 C23.69385118 5.19318301 21.0969369 5.31531266 18.5 5.4375 C17.613125 5.47681641 16.72625 5.51613281 15.8125 5.55664062 C10.49384873 5.81084087 5.2743744 6.26676337 0 7 C0 4.69 0 2.38 0 0 Z " fill="#D6F1F4" transform="translate(99,20)"/>
<path d="M0 0 C2.64 0 5.28 0 8 0 C8 2 8 4 8 6 C7.4121875 5.9278125 6.824375 5.855625 6.21875 5.78125 C-5.15518539 4.60463599 -16.5802764 4.90996094 -28 5 C-28 5.66 -28 6.32 -28 7 C-30.31 7.33 -32.62 7.66 -35 8 C-30.31219066 4.09349222 -27.27248527 1.69828639 -21.0625 1.9375 C-18.27584699 2.0027803 -15.98962189 1.9978772 -13.25 1.4375 C-10.30469136 0.8648011 -7.93369015 1.4499331 -5 2 C-3.33372702 2.03622333 -1.66594626 2.04899842 0 2 C0 1.34 0 0.68 0 0 Z " fill="#199FF3" transform="translate(152,56)"/>
<path d="M0 0 C18.57287822 4.19528543 36.59801165 16.83507257 48 32 C48.33 32.99 48.66 33.98 49 35 C48.34 35 47.68 35 47 35 C47 34.34 47 33.68 47 33 C46.34 33 45.68 33 45 33 C44.34 31.35 43.68 29.7 43 28 C42.34 28 41.68 28 41 28 C41 27.34 41 26.68 41 26 C40.01 26 39.02 26 38 26 C37.505 25.01 37.505 25.01 37 24 C36.01 23.67 35.02 23.34 34 23 C33.505 21.515 33.505 21.515 33 20 C32.34 19.67 31.68 19.34 31 19 C31 18.34 31 17.68 31 17 C28.83572512 15.87778339 26.73059447 14.901437 24.4375 14.0625 C22 13 22 13 20.63671875 11.58984375 C15.31560834 6.42112791 6.97261843 4.07157504 0 2 C0 1.34 0 0.68 0 0 Z " fill="#39A2D8" transform="translate(144,29)"/>
<path d="M0 0 C2.35358251 2.35358251 2.27871904 2.92968394 2.4140625 6.1328125 C2.45273437 6.93847656 2.49140625 7.74414062 2.53125 8.57421875 C2.5621875 9.41597656 2.593125 10.25773438 2.625 11.125 C2.66367187 11.97449219 2.70234375 12.82398438 2.7421875 13.69921875 C2.83656494 15.79911684 2.91937586 17.89952891 3 20 C1.02 20 -0.96 20 -3 20 C-3 13.73 -3 7.46 -3 1 C-2.01 0.67 -1.02 0.34 0 0 Z " fill="#F7FDFD" transform="translate(23,118)"/>
<path d="M0 0 C0.33 0 0.66 0 1 0 C1.33 1.98 1.66 3.96 2 6 C2.99 5.01 3.98 4.02 5 3 C5 4.32 5 5.64 5 7 C6.11375 6.7215625 6.11375 6.7215625 7.25 6.4375 C10.02319878 5.99630929 11.35307668 6.31692301 14 7 C16.18703385 6.62092718 16.18703385 6.62092718 18 6 C18 7.32 18 8.64 18 10 C17.21753906 10.13277344 16.43507812 10.26554688 15.62890625 10.40234375 C14.11103516 10.66724609 14.11103516 10.66724609 12.5625 10.9375 C11.55316406 11.11152344 10.54382813 11.28554687 9.50390625 11.46484375 C7.0712562 11.74751097 7.0712562 11.74751097 6 13 C4.02 13 2.04 13 0 13 C0 8.71 0 4.42 0 0 Z " fill="#0464E0" transform="translate(135,194)"/>
<path d="M0 0 C0.33 0 0.66 0 1 0 C1 6.27 1 12.54 1 19 C6.28 19 11.56 19 17 19 C17 19.33 17 19.66 17 20 C11.72 20 6.44 20 1 20 C1 25.94 1 31.88 1 38 C0.67 38 0.34 38 0 38 C-0.33 32.39 -0.66 26.78 -1 21 C-5.1146875 21.0309375 -5.1146875 21.0309375 -9.3125 21.0625 C-19.23426388 21.09830288 -29.1003079 20.62080936 -39 20 C-39 19.67 -39 19.34 -39 19 C-25.85368577 18.09956752 -13.15315464 18.103194 0 19 C0 12.73 0 6.46 0 0 Z " fill="#F4F4F4" transform="translate(39,198)"/>
<path d="M0 0 C0 0.66 0 1.32 0 2 C-1.11375 1.79375 -2.2275 1.5875 -3.375 1.375 C-4.57125 1.25125 -5.7675 1.1275 -7 1 C-7.66 1.66 -8.32 2.32 -9 3 C-9.33 2.01 -9.66 1.02 -10 0 C-10.556875 0.515625 -11.11375 1.03125 -11.6875 1.5625 C-14 3 -14 3 -16.75 2.6875 C-17.4925 2.460625 -18.235 2.23375 -19 2 C-19 1.34 -19 0.68 -19 0 C-18.01 0 -17.02 0 -16 0 C-16 -0.66 -16 -1.32 -16 -2 C-18.10448938 -1.85890014 -20.2085877 -1.71195825 -22.3125 -1.5625 C-23.48425781 -1.48128906 -24.65601562 -1.40007813 -25.86328125 -1.31640625 C-29.02590958 -1.1132629 -29.02590958 -1.1132629 -32 0 C-32 0.66 -32 1.32 -32 2 C-33.65 1.67 -35.3 1.34 -37 1 C-30.9760192 -8.0359712 -8.88163553 -3.0327536 0 0 Z " fill="#28A3E1" transform="translate(144,29)"/>
<path d="M0 0 C0.33 0 0.66 0 1 0 C1 1.98 1 3.96 1 6 C3.97 6 6.94 6 10 6 C10 6.33 10 6.66 10 7 C7.03 7 4.06 7 1 7 C1 12.94 1 18.88 1 25 C0.67 25 0.34 25 0 25 C0 19.06 0 13.12 0 7 C-6.27 7 -12.54 7 -19 7 C-19 8.65 -19 10.3 -19 12 C-19.33 12 -19.66 12 -20 12 C-20 10.35 -20 8.7 -20 7 C-22.95867918 7.14046255 -25.91682264 7.28712224 -28.875 7.4375 C-29.71675781 7.47681641 -30.55851562 7.51613281 -31.42578125 7.55664062 C-32.23144531 7.59853516 -33.03710938 7.64042969 -33.8671875 7.68359375 C-34.61081543 7.72025146 -35.35444336 7.75690918 -36.12060547 7.79467773 C-38.08864312 7.89955865 -38.08864312 7.89955865 -40 9 C-39.67 7.68 -39.34 6.36 -39 5 C-32.73 5.33 -26.46 5.66 -20 6 C-19.67 5.01 -19.34 4.02 -19 3 C-19 3.99 -19 4.98 -19 6 C-12.73 6 -6.46 6 0 6 C0 4.02 0 2.04 0 0 Z " fill="#F4F4F4" transform="translate(118,211)"/>
<path d="M0 0 C2 1 2 1 3 2 C3.07325168 4.86267567 3.09238205 7.700719 3.0625 10.5625 C3.05798828 11.36880859 3.05347656 12.17511719 3.04882812 13.00585938 C3.03700518 15.00393756 3.01906914 17.00197783 3 19 C2.01 19.33 1.02 19.66 0 20 C0 20.99 0 21.98 0 23 C-0.99 23 -1.98 23 -3 23 C-3 22.01 -3 21.02 -3 20 C-2.34 20 -1.68 20 -1 20 C-1.09539062 18.72382812 -1.19078125 17.44765625 -1.2890625 16.1328125 C-1.4015951 14.46357888 -1.51354407 12.79430585 -1.625 11.125 C-1.68945312 10.28324219 -1.75390625 9.44148438 -1.8203125 8.57421875 C-1.871875 7.76855469 -1.9234375 6.96289062 -1.9765625 6.1328125 C-2.02893066 5.38918457 -2.08129883 4.64555664 -2.13525391 3.87939453 C-2 2 -2 2 0 0 Z " fill="#098FF6" transform="translate(139,92)"/>
<path d="M0 0 C1.32 0.66 2.64 1.32 4 2 C3.01 2.33 2.02 2.66 1 3 C-0.22520264 6.00847418 -0.22520264 6.00847418 -1 9 C-1.33 8.34 -1.66 7.68 -2 7 C-3.175625 7.103125 -4.35125 7.20625 -5.5625 7.3125 C-10.68015584 7.35811191 -13.15385432 5.2051214 -17 2 C-12.74897771 -0.12551114 -7.32682977 0.56674946 -2.9375 2 C-2.298125 2.33 -1.65875 2.66 -1 3 C-0.67 2.01 -0.34 1.02 0 0 Z " fill="#0365E1" transform="translate(80,191)"/>
<path d="M0 0 C0.66 0 1.32 0 2 0 C2 5.61 2 11.22 2 17 C2.99 16.34 3.98 15.68 5 15 C5.25030977 12.41619823 5.25030977 12.41619823 5 10 C5.66 9.67 6.32 9.34 7 9 C7.67154933 10.28913487 8.33708859 11.58140204 9 12.875 C9.37125 13.59429687 9.7425 14.31359375 10.125 15.0546875 C11 17 11 17 11 19 C9.35425434 19.02688151 7.70838587 19.04634123 6.0625 19.0625 C5.14597656 19.07410156 4.22945312 19.08570313 3.28515625 19.09765625 C1 19 1 19 0 18 C-0.08631874 16.65732587 -0.10706473 15.31025678 -0.09765625 13.96484375 C-0.09443359 13.15595703 -0.09121094 12.34707031 -0.08789062 11.51367188 C-0.07951172 10.66353516 -0.07113281 9.81339844 -0.0625 8.9375 C-0.05798828 8.08349609 -0.05347656 7.22949219 -0.04882812 6.34960938 C-0.03700373 4.23304337 -0.01906769 2.11651315 0 0 Z " fill="#EBE7E6" transform="translate(20,139)"/>
<path d="M0 0 C0.33 0 0.66 0 1 0 C1 6.27 1 12.54 1 19 C3.371875 18.855625 5.74375 18.71125 8.1875 18.5625 C8.92508545 18.51939697 9.6626709 18.47629395 10.42260742 18.43188477 C15.77205897 18.09459365 15.77205897 18.09459365 21 17 C21.33 16.34 21.66 15.68 22 15 C22 15.66 22 16.32 22 17 C22.66 17 23.32 17 24 17 C24 18.32 24 19.64 24 21 C16.08 21 8.16 21 0 21 C0 14.07 0 7.14 0 0 Z " fill="#2083D6" transform="translate(134,97)"/>
<path d="M0 0 C0 0.33 0 0.66 0 1 C-0.84820312 1.20753906 -1.69640625 1.41507813 -2.5703125 1.62890625 C-11.768092 4.0445868 -19.6107944 7.52506483 -28 12 C-29.99724394 13.00549322 -31.99639213 14.00724851 -34 15 C-34 14.34 -34 13.68 -34 13 C-34.66 12.67 -35.32 12.34 -36 12 C-36 11.01 -36 10.02 -36 9 C-35.34 9 -34.68 9 -34 9 C-34 9.66 -34 10.32 -34 11 C-26.86462019 8.46441815 -26.86462019 8.46441815 -20.5625 4.375 C-14.92232237 0.0312613 -6.90147047 -0.37305246 0 0 Z " fill="#D8EDF3" transform="translate(98,27)"/>
<path d="M0 0 C0.33 0 0.66 0 1 0 C0.33333333 8 -0.33333333 16 -1 24 C-1.33 23.34 -1.66 22.68 -2 22 C-3.32 22 -4.64 22 -6 22 C-6.55312405 15.22423044 -5.6548615 11.6972841 -2 6 C-1.27954236 4.0187415 -0.59218657 2.02330411 0 0 Z " fill="#DCEBF3" transform="translate(26,96)"/>
<path d="M0 0 C0.33 0 0.66 0 1 0 C1.33 4.62 1.66 9.24 2 14 C5.3 14.33 8.6 14.66 12 15 C12 15.33 12 15.66 12 16 C10.54263913 16.19491452 9.08405407 16.38069358 7.625 16.5625 C6.81289062 16.66691406 6.00078125 16.77132812 5.1640625 16.87890625 C3 17 3 17 1 16 C1.20625 16.78375 1.4125 17.5675 1.625 18.375 C1.74875 19.24125 1.8725 20.1075 2 21 C1.34 21.66 0.68 22.32 0 23 C-3.63 20.36 -7.26 17.72 -11 15 C-7.7169902 13.3584951 -4.57454967 14.48111376 -1 15 C-0.67 10.05 -0.34 5.1 0 0 Z " fill="#F1F1F2" transform="translate(177,24)"/>
<path d="M0 0 C0.33 0 0.66 0 1 0 C0.67 12.21 0.34 24.42 0 37 C-0.66 37 -1.32 37 -2 37 C-2.04958948 32.53427636 -2.085809 28.06870039 -2.10986328 23.6027832 C-2.11989545 22.08485114 -2.13352438 20.56693827 -2.15087891 19.04907227 C-2.17525035 16.8620936 -2.18651095 14.67537136 -2.1953125 12.48828125 C-2.20578613 11.17384033 -2.21625977 9.85939941 -2.22705078 8.50512695 C-2.01205976 5.18617411 -1.44225823 2.96685993 0 0 Z " fill="#ECFEFF" transform="translate(105,81)"/>
<path d="M0 0 C0.33 0 0.66 0 1 0 C1 6.27 1 12.54 1 19 C6.94 19 12.88 19 19 19 C19.33 12.73 19.66 6.46 20 0 C20.33 0 20.66 0 21 0 C21.19789024 3.22861733 21.38146345 6.45789727 21.5625 9.6875 C21.61857422 10.59951172 21.67464844 11.51152344 21.73242188 12.45117188 C21.78076172 13.33740234 21.82910156 14.22363281 21.87890625 15.13671875 C21.9260376 15.94842529 21.97316895 16.76013184 22.02172852 17.59643555 C21.99838228 20.1789485 21.5804792 22.48849909 21 25 C20.67 25 20.34 25 20 25 C20 23.35 20 21.7 20 20 C13.73 20 7.46 20 1 20 C0.67 21.32 0.34 22.64 0 24 C0 16.08 0 8.16 0 0 Z " fill="#F4F3F2" transform="translate(118,0)"/>
<path d="M0 0 C3.36202939 1.42609159 5.23675579 3.14348515 7.5625 5.9375 C10.87330768 9.88244902 13.48383142 12.95132969 18.1875 15.1875 C18.90292969 15.53167969 19.61835937 15.87585938 20.35546875 16.23046875 C21.16951172 16.61138672 21.16951172 16.61138672 22 17 C21.67 18.32 21.34 19.64 21 21 C12.04066564 16.86644397 5.78439598 8.73930758 0 1 C0 0.67 0 0.34 0 0 Z " fill="#2B72C0" transform="translate(42,171)"/>
<path d="M0 0 C3.63 0 7.26 0 11 0 C11 0.66 11 1.32 11 2 C11.85722656 2.10957031 12.71445313 2.21914063 13.59765625 2.33203125 C19.87433778 3.20241662 25.3422541 4.10533931 31 7 C31 7.66 31 8.32 31 9 C32.32 8.67 33.64 8.34 35 8 C35.99 9.65 36.98 11.3 38 13 C35.19260508 12.16536908 32.5059397 11.25671755 29.890625 9.9296875 C20.45899852 5.15380021 10.26409636 3.22262496 0 1 C0 0.67 0 0.34 0 0 Z " fill="#C0ECFB" transform="translate(128,25)"/>
<path d="M0 0 C0 0.66 0 1.32 0 2 C3.465 1.505 3.465 1.505 7 1 C7 3.31 7 5.62 7 8 C5.26982492 7.54548816 3.54090123 7.08621143 1.8125 6.625 C0.84957031 6.36976563 -0.11335938 6.11453125 -1.10546875 5.8515625 C-3.82210207 5.05233704 -6.39137175 4.0968638 -9 3 C-5.93488101 -0.06511899 -4.25015687 -1.41671896 0 0 Z " fill="#0561E7" transform="translate(89,199)"/>
<path d="M0 0 C0.66 0.33 1.32 0.66 2 1 C1.38125 1.70125 0.7625 2.4025 0.125 3.125 C-2.16082677 5.86117047 -2.16082677 5.86117047 -2.875 9.125 C-4.3913792 13.0001913 -6.30532411 13.30044909 -10 15 C-12.15449966 17.40144575 -12.15449966 17.40144575 -14 20 C-15.31494512 21.35147138 -16.64264858 22.69112542 -18 24 C-16.51831567 19.57964175 -14.10355118 16.18609888 -11.25 12.5625 C-10.80479004 11.98991455 -10.35958008 11.4173291 -9.90087891 10.82739258 C-6.83761255 6.935811 -3.64801113 3.36001025 0 0 Z " fill="#35A4E4" transform="translate(56,48)"/>
<path d="M0 0 C1.79244141 0.01740234 1.79244141 0.01740234 3.62109375 0.03515625 C5.41740234 0.04869141 5.41740234 0.04869141 7.25 0.0625 C8.17683594 0.07410156 9.10367188 0.08570312 10.05859375 0.09765625 C10.05859375 0.42765625 10.05859375 0.75765625 10.05859375 1.09765625 C9.26195312 1.13503906 8.4653125 1.17242187 7.64453125 1.2109375 C-0.58730535 1.64138514 -0.58730535 1.64138514 -7.94140625 5.09765625 C-8.98256466 6.39910427 -9.99518466 7.72563494 -10.94140625 9.09765625 C-11.60140625 9.09765625 -12.26140625 9.09765625 -12.94140625 9.09765625 C-12.94140625 16.02765625 -12.94140625 22.95765625 -12.94140625 30.09765625 C-13.27140625 30.09765625 -13.60140625 30.09765625 -13.94140625 30.09765625 C-14.02902288 26.55614732 -14.08200364 23.01491992 -14.12890625 19.47265625 C-14.15404297 18.47363281 -14.17917969 17.47460938 -14.20507812 16.4453125 C-14.25926583 10.99041723 -14.29870363 6.67856999 -10.94140625 2.09765625 C-7.31640625 1.28515625 -7.31640625 1.28515625 -3.94140625 1.09765625 C-2.94140625 0.09765625 -2.94140625 0.09765625 0 0 Z " fill="#47A2DE" transform="translate(146.94140625,87.90234375)"/>
<path d="M0 0 C7.92 0 15.84 0 24 0 C23.34 6.27 22.68 12.54 22 19 C21.67 19 21.34 19 21 19 C20.80379233 16.93831015 20.61839247 14.87559002 20.4375 12.8125 C20.33308594 11.66394531 20.22867188 10.51539063 20.12109375 9.33203125 C20 6 20 6 21 1 C14.07 1 7.14 1 0 1 C0 0.67 0 0.34 0 0 Z " fill="#D1F4F9" transform="translate(134,118)"/>
<path d="M0 0 C0.99 0.495 0.99 0.495 2 1 C2 1.99 2 2.98 2 4 C3.32 4.33 4.64 4.66 6 5 C6 5.66 6 6.32 6 7 C6.99 7 7.98 7 9 7 C9 7.66 9 8.32 9 9 C9.66 9 10.32 9 11 9 C13 12 13 12 13 15 C11.68 15.33 10.36 15.66 9 16 C7.9375 14.125 7.9375 14.125 7 12 C7.33 11.34 7.66 10.68 8 10 C7.34 10 6.68 10 6 10 C6 9.34 6 8.68 6 8 C5.01 8.33 4.02 8.66 3 9 C3 8.34 3 7.68 3 7 C2.34 7 1.68 7 1 7 C0.67 4.69 0.34 2.38 0 0 Z " fill="#14A2F7" transform="translate(176,48)"/>
<path d="M0 0 C0.969375 0.185625 1.93875 0.37125 2.9375 0.5625 C3.948125 0.706875 4.95875 0.85125 6 1 C6.33 0.67 6.66 0.34 7 0 C10.4375 -0.25 10.4375 -0.25 14 0 C14.66 0.99 15.32 1.98 16 3 C14.68 4.32 13.36 5.64 12 7 C11.67 6.01 11.34 5.02 11 4 C7.37 4.33 3.74 4.66 0 5 C0 3.35 0 1.7 0 0 Z " fill="#0365E2" transform="translate(149,192)"/>
<path d="M0 0 C0.33 0 0.66 0 1 0 C1 6.27 1 12.54 1 19 C6.94 19 12.88 19 19 19 C19 19.33 19 19.66 19 20 C13.06 20 7.12 20 1 20 C0.67 20.66 0.34 21.32 0 22 C0 21.34 0 20.68 0 20 C-5.61 20 -11.22 20 -17 20 C-17 19.67 -17 19.34 -17 19 C-11.72 19 -6.44 19 -1 19 C-0.67 12.73 -0.34 6.46 0 0 Z " fill="#F3F2EF" transform="translate(158,0)"/>
<path d="M0 0 C1.98 0 3.96 0 6 0 C6 0.66 6 1.32 6 2 C6.66 2 7.32 2 8 2 C8 2.66 8 3.32 8 4 C8.639375 4.103125 9.27875 4.20625 9.9375 4.3125 C12.52860254 4.89417608 14.87632276 5.62439516 17.375 6.5 C21.27179091 7.83809403 24.90861237 8.564746 29 9 C26 11 26 11 23.57421875 10.78515625 C15.03985872 8.64867911 7.69420248 5.15441406 0 1 C0 0.67 0 0.34 0 0 Z " fill="#2567C2" transform="translate(72,198)"/>
<path d="M0 0 C-1.7325 0.7115625 -1.7325 0.7115625 -3.5 1.4375 C-11.14202865 5.26530121 -16.28134361 12.01394686 -19 20 C-19.97110486 16.97878489 -20.13617383 14.99536737 -19 12 C-18.34 11.67 -17.68 11.34 -17 11 C-16.566875 9.7625 -16.566875 9.7625 -16.125 8.5 C-15 6 -15 6 -12.875 5.1875 C-12.25625 5.125625 -11.6375 5.06375 -11 5 C-11 4.01 -11 3.02 -11 2 C-10.01 2 -9.02 2 -8 2 C-8 1.34 -8 0.68 -8 0 C-4.71303767 -0.79953138 -3.28976808 -1.09658936 0 0 Z " fill="#3298D7" transform="translate(124,64)"/>
<path d="M0 0 C1.37988943 2.75977886 0.62402826 4.01978801 -0.25 6.9375 C-0.62898437 8.25041016 -0.62898437 8.25041016 -1.015625 9.58984375 C-2.02294179 12.05617096 -2.9503495 13.33052661 -5 15 C-5.33 15 -5.66 15 -6 15 C-6.18451025 5.58997722 -6.18451025 5.58997722 -5 1 C-3.35 0.67 -1.7 0.34 0 0 Z " fill="#0B7CE7" transform="translate(206,138)"/>
<path d="M0 0 C0.66 0 1.32 0 2 0 C0.46810734 4.06218304 -1.4334018 7.83876948 -3.4375 11.6875 C-6.3140998 17.30403696 -8.51485114 22.86138473 -10 29 C-10.33 29 -10.66 29 -11 29 C-11.57167647 18.56358076 -6.00276956 8.33717994 0 0 Z " fill="#DAF9FE" transform="translate(38,67)"/>
<path d="M0 0 C3.1248842 0.37292857 6.05531571 0.86618908 9 2 C10.90600189 5.29884943 11.11427466 7.12389424 10.625 10.875 C10.41875 11.57625 10.2125 12.2775 10 13 C7.51825022 10.63279251 5.41552538 8.08203896 3.3125 5.375 C2.68988281 4.57835937 2.06726563 3.78171875 1.42578125 2.9609375 C0 1 0 1 0 0 Z " fill="#D8EEF5" transform="translate(188,57)"/>
<path d="M0 0 C0 4.05480631 -1.54870092 5.84832975 -4 9 C-4.99 9 -5.98 9 -7 9 C-6.979375 8.071875 -6.95875 7.14375 -6.9375 6.1875 C-6.84230396 2.97713989 -6.84230396 2.97713989 -8 0 C-4.94736336 -0.98120464 -3.05263664 -0.98120464 0 0 Z " fill="#169CF3" transform="translate(103,64)"/>
<path d="M0 0 C-0.66666667 2.66666667 -1.33333333 5.33333333 -2 8 C-4.64 7.34 -7.28 6.68 -10 6 C-8.20404732 1.26521567 -5.07984355 -1.69328118 0 0 Z " fill="#18A7F7" transform="translate(74,40)"/>
<path d="M0 0 C0.33 0 0.66 0 1 0 C1 6.6 1 13.2 1 20 C-8.375 20.4375 -8.375 20.4375 -11.32568359 20.56811523 C-12.47544678 20.6252771 -12.47544678 20.6252771 -13.6484375 20.68359375 C-14.82672119 20.73858032 -14.82672119 20.73858032 -16.02880859 20.79467773 C-18.07523496 20.890891 -18.07523496 20.890891 -20 22 C-20.33 21.01 -20.66 20.02 -21 19 C-20.01 18.01 -19.02 17.02 -18 16 C-18 16.99 -18 17.98 -18 19 C-12.06 19 -6.12 19 0 19 C0 12.73 0 6.46 0 0 Z " fill="#F1F0F0" transform="translate(98,0)"/>
<path d="M0 0 C4.29 0 8.58 0 13 0 C13 0.99 13 1.98 13 3 C8.71 3.66 4.42 4.32 0 5 C0 3.35 0 1.7 0 0 Z " fill="#E9E8E7" transform="translate(99,20)"/>
<path d="M0 0 C2.09127499 3.13691248 2.93665084 5.71123545 4 9.3125 C5.26529673 13.56804876 6.5749933 17.79495791 8 22 C5.01829464 20.97182574 4.06874623 20.11322908 2.40625 17.375 C0.84649732 13.63159357 0.50298903 10.66336751 0.3125 6.625 C0.24675781 5.37976563 0.18101563 4.13453125 0.11328125 2.8515625 C0.07589844 1.91054687 0.03851562 0.96953125 0 0 Z " fill="#BBE1F5" transform="translate(27,138)"/>
<path d="M0 0 C-0.886875 0.4125 -1.77375 0.825 -2.6875 1.25 C-6.04349245 2.84114427 -6.04349245 2.84114427 -8.5 5.3125 C-9.7375 6.1478125 -9.7375 6.1478125 -11 7 C-14.3125 6.25 -14.3125 6.25 -17 5 C-11.58925612 0.89529775 -6.9942166 -2.33140553 0 0 Z " fill="#2BA7EA" transform="translate(91,32)"/>
<path d="M0 0 C0.8971875 -0.00128906 1.794375 -0.00257812 2.71875 -0.00390625 C4.12253906 0.00189453 4.12253906 0.00189453 5.5546875 0.0078125 C6.46734375 0.00394531 7.38 0.00007813 8.3203125 -0.00390625 C24.31575428 0.01887928 24.31575428 0.01887928 27.4296875 3.1328125 C26.39134766 3.02453125 26.39134766 3.02453125 25.33203125 2.9140625 C14.3903532 1.87611676 3.31592687 1.3554673 -7.5703125 3.1328125 C-7.5703125 2.4728125 -7.5703125 1.8128125 -7.5703125 1.1328125 C-4.72645868 0.18486123 -2.94853786 0.00412218 0 0 Z " fill="#2F98CF" transform="translate(131.5703125,59.8671875)"/>
<path d="M0 0 C1.7936743 1.1217963 3.5848773 2.24754483 5.375 3.375 C6.37273437 4.00148437 7.37046875 4.62796875 8.3984375 5.2734375 C11 7 11 7 13 9 C11.35 9.33 9.7 9.66 8 10 C7.67 9.34 7.34 8.68 7 8 C3.97065509 7.34227572 3.97065509 7.34227572 1 7 C0.67 4.69 0.34 2.38 0 0 Z " fill="#D4E9F6" transform="translate(59,190)"/>
<path d="M0 0 C3.54243452 1.36591169 6.92627929 2.90931484 10.3125 4.625 C11.63701172 5.29402344 11.63701172 5.29402344 12.98828125 5.9765625 C13.65214844 6.31429687 14.31601563 6.65203125 15 7 C14.38125 7.12375 13.7625 7.2475 13.125 7.375 C10.80879168 7.87197356 10.80879168 7.87197356 9 10 C6.375 10.125 6.375 10.125 4 10 C4.33 9.34 4.66 8.68 5 8 C6.32 8 7.64 8 9 8 C7.10244856 5.65026182 7.10244856 5.65026182 3.875 5.875 C2.92625 5.91625 1.9775 5.9575 1 6 C1.33 5.01 1.66 4.02 2 3 C1.34 2.01 0.68 1.02 0 0 Z " fill="#1AAAF6" transform="translate(151,33)"/>
<path d="M0 0 C1.875 0.1875 1.875 0.1875 4 1 C5.25 3.5625 5.25 3.5625 6 6 C5.01 6.495 5.01 6.495 4 7 C3.34 6.67 2.68 6.34 2 6 C2 7.65 2 9.3 2 11 C1.01 11 0.02 11 -1 11 C-0.67 8.36 -0.34 5.72 0 3 C-0.66 2.67 -1.32 2.34 -2 2 C-1.34 2 -0.68 2 0 2 C0 1.34 0 0.68 0 0 Z " fill="#056BE1" transform="translate(178,176)"/>
<path d="M0 0 C0.33 0 0.66 0 1 0 C1.22527296 3.45745022 1.42733544 6.91587025 1.625 10.375 C1.68945312 11.35984375 1.75390625 12.3446875 1.8203125 13.359375 C1.89765625 14.77089844 1.89765625 14.77089844 1.9765625 16.2109375 C2.02893066 17.08024902 2.08129883 17.94956055 2.13525391 18.84521484 C2 21 2 21 0 23 C0 22.01 0 21.02 0 20 C-6.27 20 -12.54 20 -19 20 C-19 19.67 -19 19.34 -19 19 C-12.73 19 -6.46 19 0 19 C0 12.73 0 6.46 0 0 Z " fill="#F0F0F0" transform="translate(19,0)"/>
<path d="M0 0 C1.32 0.33 2.64 0.66 4 1 C3.01 1.33 2.02 1.66 1 2 C-1.66196542 7.4506911 -1.44094981 13.43171267 -1.625 19.375 C-1.66367188 20.39722656 -1.70234375 21.41945313 -1.7421875 22.47265625 C-1.83597964 24.98159597 -1.92167879 27.49053764 -2 30 C-2.33 30 -2.66 30 -3 30 C-3.33 21.75 -3.66 13.5 -4 5 C-2.68 4.34 -1.36 3.68 0 3 C0 2.01 0 1.02 0 0 Z " fill="#E0FBFE" transform="translate(135,88)"/>
<path d="M0 0 C0.33 0.66 0.66 1.32 1 2 C6.61 2 12.22 2 18 2 C18 2.33 18 2.66 18 3 C12.39 3 6.78 3 1 3 C1 8.94 1 14.88 1 21 C0.67 21 0.34 21 0 21 C0 15.06 0 9.12 0 3 C-0.66 2.67 -1.32 2.34 -2 2 C-1.34 1.34 -0.68 0.68 0 0 Z " fill="#F2F1F1" transform="translate(138,215)"/>
<path d="M0 0 C0.33 1.32 0.66 2.64 1 4 C0.45730469 4.45890625 -0.08539063 4.9178125 -0.64453125 5.390625 C-1.35996094 6.00421875 -2.07539063 6.6178125 -2.8125 7.25 C-3.52019531 7.85328125 -4.22789062 8.4565625 -4.95703125 9.078125 C-7.05997556 10.93917218 -7.05997556 10.93917218 -8.63671875 13.234375 C-9.08660156 13.81703125 -9.53648437 14.3996875 -10 15 C-10.66 15 -11.32 15 -12 15 C-12 15.66 -12 16.32 -12 17 C-13.32 16.67 -14.64 16.34 -16 16 C-15.18015625 15.26394531 -14.3603125 14.52789062 -13.515625 13.76953125 C-12.42690461 12.78405158 -11.33837294 11.79836339 -10.25 10.8125 C-9.71117187 10.32974609 -9.17234375 9.84699219 -8.6171875 9.34960938 C-5.41287909 6.43837795 -2.6158121 3.47293499 0 0 Z " fill="#CCECF8" transform="translate(191,175)"/>
<path d="M0 0 C4.55384615 -0.36923077 4.55384615 -0.36923077 6.8125 1.5 C7.204375 1.995 7.59625 2.49 8 3 C7.67 3.99 7.34 4.98 7 6 C7.99 6.33 8.98 6.66 10 7 C9.67 7.66 9.34 8.32 9 9 C5.97757833 7.99252611 4.98533551 7.25679561 2.8125 5.0625 C2.28269531 4.53785156 1.75289062 4.01320312 1.20703125 3.47265625 C0 2 0 2 0 0 Z " fill="#066DE3" transform="translate(49,176)"/>
<path d="M0 0 C0.66 0.33 1.32 0.66 2 1 C1.32453125 1.72445312 0.6490625 2.44890625 -0.046875 3.1953125 C-1.38492188 4.64550781 -1.38492188 4.64550781 -2.75 6.125 C-3.63171875 7.07632813 -4.5134375 8.02765625 -5.421875 9.0078125 C-7.92271085 11.91029774 -9.95213096 14.77508474 -12 18 C-12.8125 16.375 -12.8125 16.375 -13 14 C-10.6875 10.75 -10.6875 10.75 -8 8 C-7.34 8 -6.68 8 -6 8 C-5.7525 7.4225 -5.505 6.845 -5.25 6.25 C-3.83316683 3.6997003 -2.12372463 1.98214299 0 0 Z " fill="#CBF0FC" transform="translate(53,49)"/>
<path d="M0 0 C-0.66 1.65 -1.32 3.3 -2 5 C-2.99 5 -3.98 5 -5 5 C-5.33 5.99 -5.66 6.98 -6 8 C-7.32 7.67 -8.64 7.34 -10 7 C-9.63206382 4.33246269 -9.18001672 3.18001672 -7.25 1.25 C-4.62056017 -0.21079991 -2.9625559 -0.24687966 0 0 Z " fill="#13A3FB" transform="translate(63,50)"/>
<path d="M0 0 C3.45101522 4.24740335 6.73279209 8.61105071 10 13 C9.01 13 8.02 13 7 13 C7 12.34 7 11.68 7 11 C5.35 11 3.7 11 2 11 C0.80712589 7.12315913 0 4.08378077 0 0 Z " fill="#D7E7F1" transform="translate(38,166)"/>
<path d="M0 0 C1.08784335 3.31395986 1.07262544 3.83580335 -0.4375 7.25 C-0.953125 8.1575 -1.46875 9.065 -2 10 C-2.66 10 -3.32 10 -4 10 C-3.9175 10.7425 -3.835 11.485 -3.75 12.25 C-4.07105184 15.78157027 -5.35265617 16.76630364 -8 19 C-6.21440518 12.04634211 -3.7441867 6.12685097 0 0 Z " fill="#419BD3" transform="translate(37,72)"/>
<path d="M0 0 C1.10844919 3.32534757 0.84454356 5.62182575 0 9 C-1.65 9 -3.3 9 -5 9 C-5 7.35 -5 5.7 -5 4 C-4.01 3.67 -3.02 3.34 -2 3 C-1.34 2.01 -0.68 1.02 0 0 Z " fill="#F0F9FA" transform="translate(197,169)"/>
<path d="M0 0 C1.65 0 3.3 0 5 0 C4.75 3.3125 4.75 3.3125 4 7 C2.68 7.99 1.36 8.98 0 10 C0 6.7 0 3.4 0 0 Z " fill="#ECE6E6" transform="translate(20,99)"/>
<path d="M0 0 C0 1.65 0 3.3 0 5 C-2.3125 5.625 -2.3125 5.625 -5 6 C-5.99 5.34 -6.98 4.68 -8 4 C-4.5 0 -4.5 0 0 0 Z " fill="#F0F9FC" transform="translate(178,192)"/>
<path d="M0 0 C0.33 0 0.66 0 1 0 C1.24661514 6.65860882 1.03719751 13.92560498 -2 20 C-2.66 20 -3.32 20 -4 20 C-2.68 13.4 -1.36 6.8 0 0 Z " fill="#C0E7FA" transform="translate(210,128)"/>
<path d="M0 0 C0.66 0.33 1.32 0.66 2 1 C1.401875 1.556875 0.80375 2.11375 0.1875 2.6875 C-2.09594756 4.93000022 -2.09594756 4.93000022 -3.625 7.75 C-4.07875 8.4925 -4.5325 9.235 -5 10 C-5.66 10 -6.32 10 -7 10 C-7.66 11.32 -8.32 12.64 -9 14 C-9.33 13.34 -9.66 12.68 -10 12 C-3.84965831 3.55353075 -3.84965831 3.55353075 0 0 Z " fill="#D4F6FE" transform="translate(116,67)"/>
<path d="M0 0 C0 0.33 0 0.66 0 1 C-2.22844214 1.6483289 -4.4577846 2.29356369 -6.6875 2.9375 C-8.54955078 3.47697266 -8.54955078 3.47697266 -10.44921875 4.02734375 C-13.29639862 4.80726431 -16.09802254 5.47287216 -19 6 C-18.328125 4.078125 -18.328125 4.078125 -17 2 C-14.609375 1.171875 -14.609375 1.171875 -11.75 0.75 C-10.76902344 0.60304688 -9.78804687 0.45609375 -8.77734375 0.3046875 C-5.82876044 -0.01878577 -2.96382255 -0.16020662 0 0 Z " fill="#D5F8FE" transform="translate(98,27)"/>
<path d="M0 0 C2.97 0.33 5.94 0.66 9 1 C8.34 2.32 7.68 3.64 7 5 C6.67 4.01 6.34 3.02 6 2 C5.443125 2.515625 4.88625 3.03125 4.3125 3.5625 C2 5 2 5 -0.75 4.6875 C-1.4925 4.460625 -2.235 4.23375 -3 4 C-3 3.34 -3 2.68 -3 2 C-2.01 2 -1.02 2 0 2 C0 1.34 0 0.68 0 0 Z " fill="#19ADF9" transform="translate(128,27)"/>
<path d="M0 0 C0.66 0 1.32 0 2 0 C2.680625 1.423125 2.680625 1.423125 3.375 2.875 C4.80238254 6.00313679 4.80238254 6.00313679 7 8 C6.67 8.66 6.34 9.32 6 10 C5.01 10 4.02 10 3 10 C-0.22265625 4.82421875 -0.22265625 4.82421875 -1 3 C-0.67 2.01 -0.34 1.02 0 0 Z " fill="#1975CE" transform="translate(38,161)"/>
<path d="M0 0 C1.79133978 -0.05391993 3.58313899 -0.09275571 5.375 -0.125 C6.37273437 -0.14820313 7.37046875 -0.17140625 8.3984375 -0.1953125 C11 0 11 0 13 2 C11.02 2.33 9.04 2.66 7 3 C7.99 4.485 7.99 4.485 9 6 C5.06326356 4.68775452 2.77280706 3.08089673 0 0 Z " fill="#1265C9" transform="translate(63,192)"/>
<path d="M0 0 C4.17762205 0.46418023 6.17682961 0.90795624 9 4 C9.99 4 10.98 4 12 4 C12.33 4.99 12.66 5.98 13 7 C12.34 7.66 11.68 8.32 11 9 C9.16384919 7.69144447 7.33114211 6.37805538 5.5 5.0625 C4.4790625 4.33160156 3.458125 3.60070313 2.40625 2.84765625 C1.6121875 2.23792969 0.818125 1.62820312 0 1 C0 0.67 0 0.34 0 0 Z " fill="#C3ECFA" transform="translate(166,38)"/>
<path d="M0 0 C-1.8903376 0.70246995 -3.78756828 1.38640849 -5.6875 2.0625 C-6.74324219 2.44535156 -7.79898438 2.82820312 -8.88671875 3.22265625 C-12.09333792 4.0233052 -13.8686307 3.9237249 -17 3 C-17 2.67 -17 2.34 -17 2 C-14.91952703 1.4678559 -12.83547707 0.94968214 -10.75 0.4375 C-9.58984375 0.14746094 -8.4296875 -0.14257812 -7.234375 -0.44140625 C-4.27909017 -0.95179964 -2.75565899 -1.02996165 0 0 Z " fill="#1F68BD" transform="translate(152,205)"/>
<path d="M0 0 C2 2 2 2 2.3125 5.5 C2.209375 6.655 2.10625 7.81 2 9 C1.01 9.66 0.02 10.32 -1 11 C-1.33 9.68 -1.66 8.36 -2 7 C-1.34 7 -0.68 7 0 7 C0 6.34 0 5.68 0 5 C-0.66 4.67 -1.32 4.34 -2 4 C-1.34 2.68 -0.68 1.36 0 0 Z " fill="#0774EC" transform="translate(195,156)"/>
<path d="M0 0 C0.66 0 1.32 0 2 0 C1.38461538 6.52307692 1.38461538 6.52307692 -0.5625 8.9375 C-1.036875 9.288125 -1.51125 9.63875 -2 10 C-1.67 8.68 -1.34 7.36 -1 6 C-1.66 6 -2.32 6 -3 6 C-2.42655063 3.13275314 -2.1385485 2.1385485 0 0 Z " fill="#1299F4" transform="translate(103,76)"/>
<path d="M0 0 C0 1.32 0 2.64 0 4 C-0.66 4 -1.32 4 -2 4 C-2.66 5.65 -3.32 7.3 -4 9 C-4.99 8.67 -5.98 8.34 -7 8 C-6.67 7.21625 -6.34 6.4325 -6 5.625 C-4.88133489 3.15667503 -4.88133489 3.15667503 -5 1 C-2 0 -2 0 0 0 Z " fill="#0466DC" transform="translate(174,185)"/>
<path d="M0 0 C2.9375 0.8125 2.9375 0.8125 6 2 C6.33 2.99 6.66 3.98 7 5 C6.67 5.66 6.34 6.32 6 7 C4 6 2 5 0 4 C0 2.68 0 1.36 0 0 Z " fill="#1667CB" transform="translate(57,185)"/>
<path d="M0 0 C1.65 0.33 3.3 0.66 5 1 C4.04578192 2.14926266 3.08647955 3.29430541 2.125 4.4375 C1.59132812 5.07558594 1.05765625 5.71367187 0.5078125 6.37109375 C-1 8 -1 8 -3 9 C-3 7.35 -3 5.7 -3 4 C-2.01 4 -1.02 4 0 4 C0 2.68 0 1.36 0 0 Z " fill="#2270D4" transform="translate(183,178)"/>
<path d="M0 0 C0.33 0.99 0.66 1.98 1 3 C-2.11771927 4.60339848 -3.39011689 5.18974141 -6.8125 4.125 C-7.534375 3.75375 -8.25625 3.3825 -9 3 C-5.93488101 -0.06511899 -4.25015687 -1.41671896 0 0 Z " fill="#0665DB" transform="translate(89,199)"/>
<path d="M0 0 C0.33 0.99 0.66 1.98 1 3 C-0.07421875 4.68359375 -0.07421875 4.68359375 -1.6875 6.4375 C-2.24050781 7.0459375 -2.79351562 7.654375 -3.36328125 8.28125 C-5.21090202 10.22147228 -7.06856563 12.14285157 -9 14 C-7.65070536 10.16336928 -5.92248975 7.34827431 -3.375 4.1875 C-2.42753906 3.00220703 -2.42753906 3.00220703 -1.4609375 1.79296875 C-0.97882812 1.20128906 -0.49671875 0.60960937 0 0 Z " fill="#3C9CD4" transform="translate(47,58)"/>
<path d="M0 0 C0.33 0.66 0.66 1.32 1 2 C1.99 2.33 2.98 2.66 4 3 C2.02 4.32 0.04 5.64 -2 7 C-2.66 6.67 -3.32 6.34 -4 6 C-4 5.34 -4 4.68 -4 4 C-3.34 4 -2.68 4 -2 4 C-2 3.01 -2 2.02 -2 1 C-1.34 0.67 -0.68 0.34 0 0 Z " fill="#196CD3" transform="translate(176,185)"/>
<path d="M0 0 C2.72426311 2.35277269 3.8141763 4.62496331 5 8 C4.01 7.34 3.02 6.68 2 6 C1.34 6.66 0.68 7.32 0 8 C-1 7 -1 7 -1.125 4 C-1 1 -1 1 0 0 Z " fill="#2A9BE1" transform="translate(193,64)"/>
<path d="M0 0 C-3.33960156 2.22640104 -6.08610984 3.16130925 -10 4 C-10.99 3.34 -11.98 2.68 -13 2 C-11.39935157 1.46845258 -9.79431126 0.95011647 -8.1875 0.4375 C-7.29417969 0.14746094 -6.40085938 -0.14257812 -5.48046875 -0.44140625 C-3 -1 -3 -1 0 0 Z " fill="#D6EEF8" transform="translate(153,206)"/>
<path d="M0 0 C3.465 1.485 3.465 1.485 7 3 C6.34 4.32 5.68 5.64 5 7 C3.0625 6.3125 3.0625 6.3125 1 5 C0.25 2.375 0.25 2.375 0 0 Z " fill="#E3F5FB" transform="translate(72,199)"/>
<path d="M0 0 C0.33 0 0.66 0 1 0 C1 2.97 1 5.94 1 9 C0.34 9 -0.32 9 -1 9 C-1.33 10.32 -1.66 11.64 -2 13 C-2.16682272 8.07872966 -2.24828052 4.49656104 0 0 Z " fill="#C6F1FC" transform="translate(105,81)"/>
<path d="M0 0 C0.66 0 1.32 0 2 0 C0.31326082 4.49797113 -1.81673892 8.72886302 -4 13 C-4.33 13 -4.66 13 -5 13 C-5.74304413 8.24451757 -3.73243053 5.43931262 -1.2890625 1.57421875 C-0.65097656 0.79498047 -0.65097656 0.79498047 0 0 Z " fill="#C2ECFC" transform="translate(38,67)"/>
<path d="M0 0 C3.27360452 0.94762236 4.67284007 1.44525055 6.4375 4.4375 C6.623125 5.283125 6.80875 6.12875 7 7 C6.01 8.485 6.01 8.485 5 10 C4.731875 9.05125 4.46375 8.1025 4.1875 7.125 C3.25013412 3.74732727 3.25013412 3.74732727 0 2 C0 1.34 0 0.68 0 0 Z " fill="#0678E6" transform="translate(33,151)"/>
<path d="M0 0 C3.465 1.98 3.465 1.98 7 4 C5.1875 5.0625 5.1875 5.0625 3 6 C2.01 5.67 1.02 5.34 0 5 C0 3.35 0 1.7 0 0 Z " fill="#16A9F7" transform="translate(168,42)"/>
<path d="M0 0 C0.99 0 1.98 0 3 0 C3 0.66 3 1.32 3 2 C3.66 2.33 4.32 2.66 5 3 C4.34 3.66 3.68 4.32 3 5 C0.875 4.625 0.875 4.625 -1 4 C-0.67 2.68 -0.34 1.36 0 0 Z " fill="#1B9FF6" transform="translate(145,50)"/>
<path d="M0 0 C-3.1254959 2.64465038 -6.08788267 3.84414715 -10 5 C-10 4.34 -10 3.68 -10 3 C-3.375 -1.125 -3.375 -1.125 0 0 Z " fill="#BCEAF9" transform="translate(80,33)"/>
<path d="M0 0 C0.66 0.33 1.32 0.66 2 1 C2 2.98 2 4.96 2 7 C1.01 7 0.02 7 -1 7 C-1.04254356 5.00045254 -1.04080783 2.99958364 -1 1 C-0.67 0.67 -0.34 0.34 0 0 Z " fill="#0A96FA" transform="translate(202,85)"/>
<path d="M0 0 C1.125 1.75 1.125 1.75 2 4 C1.125 6.25 1.125 6.25 0 8 C-0.33 7.34 -0.66 6.68 -1 6 C-1.66 6.66 -2.32 7.32 -3 8 C-3.36923077 3.44615385 -3.36923077 3.44615385 -1.5 1.1875 C-1.005 0.795625 -0.51 0.40375 0 0 Z " fill="#1693ED" transform="translate(200,82)"/>
<path d="M0 0 C2.12038635 2.61514317 4.13091744 5.19637616 6 8 C5.01 8.495 5.01 8.495 4 9 C1.43135272 7.71567636 1.053461 6.63365249 0 4 C0 2.68 0 1.36 0 0 Z " fill="#CCE9F9" transform="translate(38,166)"/>
<path d="M0 0 C3.125 -0.1875 3.125 -0.1875 6 0 C5.67 0.66 5.34 1.32 5 2 C4.34 2 3.68 2 3 2 C3 2.66 3 3.32 3 4 C1.35 3.67 -0.3 3.34 -2 3 C-1.34 2.01 -0.68 1.02 0 0 Z " fill="#19ADFB" transform="translate(109,27)"/>
<path d="M0 0 C0.66 0 1.32 0 2 0 C0.8141763 3.37503669 -0.27573689 5.64722731 -3 8 C-2.25 2.25 -2.25 2.25 0 0 Z " fill="#D8F8FD" transform="translate(43,59)"/>
<path d="M0 0 C1.98 1.65 3.96 3.3 6 5 C5.01 5.33 4.02 5.66 3 6 C0.8125 4.5625 0.8125 4.5625 -1 3 C-0.67 2.01 -0.34 1.02 0 0 Z " fill="#E0FAFE" transform="translate(47,179)"/>
<path d="M0 0 C0.99 0.33 1.98 0.66 3 1 C2.67 2.65 2.34 4.3 2 6 C1.34 6 0.68 6 0 6 C0 5.34 0 4.68 0 4 C-0.66 3.67 -1.32 3.34 -2 3 C-1.34 2.01 -0.68 1.02 0 0 Z " fill="#0A7ADD" transform="translate(194,148)"/>
<path d="M0 0 C1.65 0 3.3 0 5 0 C5.66 1.98 6.32 3.96 7 6 C5.83054208 5.19152271 4.66449539 4.37810888 3.5 3.5625 C2.8503125 3.11003906 2.200625 2.65757813 1.53125 2.19140625 C1.0259375 1.79824219 0.520625 1.40507813 0 1 C0 0.67 0 0.34 0 0 Z " fill="#D5F6FC" transform="translate(178,47)"/>
<path d="M0 0 C1.32 0.33 2.64 0.66 4 1 C1.69 2.65 -0.62 4.3 -3 6 C-2 2 -2 2 0 0 Z " fill="#C8F1FC" transform="translate(60,42)"/>
</svg>
