<?xml version="1.0" standalone="no"?>
<!DOCTYPE svg PUBLIC "-//W3C//DTD SVG 20010904//EN"
 "http://www.w3.org/TR/2001/REC-SVG-20010904/DTD/svg10.dtd">
<svg version="1.0" xmlns="http://www.w3.org/2000/svg"
 width="920.000000pt" height="400.000000pt" viewBox="0 0 920.000000 400.000000"
 preserveAspectRatio="xMidYMid meet">

<g transform="translate(0.000000,400.000000) scale(0.100000,-0.100000)"
fill="#000000" stroke="none">
<path d="M2615 2453 c-21 -32 -63 -95 -92 -140 l-53 -83 965 0 965 0 0 140 0
141 -502 -3 c-494 -3 -504 -3 -543 -25 -51 -27 -109 -87 -134 -138 l-20 -40
-1 103 0 102 -274 0 -273 0 -38 -57z"/>
<path d="M4440 2370 l0 -140 145 0 145 0 0 140 0 140 -145 0 -145 0 0 -140z"/>
<path d="M5340 2370 l0 -140 778 0 777 0 0 140 0 140 -516 0 c-572 0 -570 0
-647 -66 -51 -44 -82 -93 -98 -158 -12 -49 -12 -44 -13 87 l-1 137 -140 0
-140 0 0 -140z"/>
<path d="M7033 2480 c-41 -25 -53 -48 -53 -104 0 -117 158 -161 220 -61 51 82
-4 184 -100 185 -19 0 -49 -9 -67 -20z m118 -10 c25 -14 49 -62 49 -100 0 -47
-47 -90 -97 -90 -48 0 -81 22 -99 66 -12 29 -12 39 0 68 8 18 24 41 37 50 26
18 81 21 110 6z"/>
<path d="M7043 2433 c-8 -21 2 -113 12 -113 6 0 10 9 10 20 1 35 17 35 46 1
32 -39 50 -37 24 3 -16 23 -16 27 -1 41 25 26 4 52 -45 57 -27 2 -43 -1 -46
-9z m75 -25 c3 -14 -3 -18 -27 -18 -34 0 -34 0 -25 25 8 21 48 16 52 -7z"/>
<path d="M4443 2203 c-3 -6 -3 -75 -1 -152 2 -78 2 -141 1 -141 -2 0 -11 17
-22 39 -27 53 -103 117 -159 135 -31 10 -181 24 -442 41 -217 14 -491 32 -608
40 -117 8 -234 15 -260 15 l-47 0 0 -345 0 -345 660 1 c728 0 700 -2 782 63
40 32 93 111 93 139 0 27 16 12 23 -20 10 -52 72 -119 140 -153 l63 -31 380 3
c367 3 380 4 419 25 54 29 109 88 134 143 l21 45 0 -107 0 -108 518 0 c595 0
579 -2 668 85 63 63 84 119 84 229 0 64 -5 92 -24 132 -29 63 -79 114 -141
144 -44 21 -74 24 -513 46 -257 13 -493 24 -524 24 l-57 0 11 -32 c32 -94 119
-167 228 -193 38 -9 201 -23 398 -35 212 -12 339 -23 348 -31 19 -15 18 -54
-2 -73 -14 -14 -73 -16 -505 -16 l-489 0 0 195 0 195 -72 0 c-40 0 -103 3
-140 7 l-68 6 0 -171 c0 -183 -6 -212 -47 -231 -15 -7 -111 -11 -269 -11
l-245 0 -24 25 c-25 24 -25 25 -25 220 0 179 -1 195 -17 196 -244 13 -266 13
-270 2z m-1150 -208 c80 -68 114 -75 511 -101 222 -15 363 -28 372 -35 21 -17
18 -66 -5 -79 -13 -6 -187 -10 -495 -10 l-476 0 0 182 0 182 26 -52 c14 -29
44 -68 67 -87z"/>
<path d="M2315 1998 c-77 -117 -184 -279 -237 -360 l-98 -148 178 0 177 0 30
48 c17 26 89 138 160 249 72 112 158 247 192 300 l63 98 -38 6 c-20 4 -93 9
-162 13 l-125 7 -140 -213z"/>
</g>
</svg>
