<?xml version="1.0" encoding="UTF-8"?>
<svg version="1.1" xmlns="http://www.w3.org/2000/svg" width="736" height="678">
<path d="M0 0 C242.88 0 485.76 0 736 0 C736 223.74 736 447.48 736 678 C493.12 678 250.24 678 0 678 C0 454.26 0 230.52 0 0 Z " fill="#000000" transform="translate(0,0)"/>
<path d="M0 0 C242.88 0 485.76 0 736 0 C736 223.74 736 447.48 736 678 C493.12 678 250.24 678 0 678 C0 454.26 0 230.52 0 0 Z M298 45 C296.51184963 45.37808152 295.02216153 45.7501453 293.53125 46.1171875 C259.27949783 54.60681725 226.83666906 69.70085402 198 90 C197.00226563 90.69826904 197.00226563 90.69826904 195.984375 91.41064453 C173.55410929 107.19594403 151.8836186 126.32670236 135 148 C134.21109375 148.99515625 133.4221875 149.9903125 132.609375 151.015625 C121.06351302 165.68606446 110.23743433 181.23272763 101.98022461 198.01318359 C101.0537761 199.89100128 100.10256402 201.75344777 99.140625 203.61328125 C93.88275095 213.85861652 89.27623135 224.30942162 85 235 C84.54882812 236.12277344 84.09765625 237.24554688 83.6328125 238.40234375 C77.09168697 255.69571157 72.9223298 273.69706461 70.125 291.9375 C69.96994995 292.94789337 69.96994995 292.94789337 69.81176758 293.97869873 C68.08371852 305.39646509 66.87515343 316.72432629 66.69140625 328.2734375 C66.67614395 329.22324997 66.66088165 330.17306244 66.64515686 331.1516571 C66.21685885 363.98255843 69.70193143 394.44674853 79 426 C79.5129432 427.81606085 80.02465172 429.63247087 80.53515625 431.44921875 C82.75633309 439.23467744 85.02571951 446.8366576 88.6015625 454.125 C89.71883348 456.42195934 90.76126134 458.71896409 91.7734375 461.0625 C98.3795748 476.3498006 105.87634724 491.04421784 115 505 C115.46921875 505.71945801 115.9384375 506.43891602 116.421875 507.18017578 C123.60943792 518.12260506 131.2501361 528.26787664 140 538 C141.23113389 539.41495742 142.46063023 540.83134369 143.6875 542.25 C144.22761719 542.86101562 144.76773438 543.47203125 145.32421875 544.1015625 C146.52505758 545.46195334 147.71382294 546.83303873 148.89453125 548.2109375 C159.18423584 560.00878061 170.86773985 570.27600528 183.32226562 579.71630859 C184.96635427 580.97425652 186.58699446 582.25718106 188.203125 583.55078125 C195.7638756 589.56676216 203.67011579 594.78259013 211.94824219 599.75878906 C213.93910651 600.96316248 215.91156069 602.19354627 217.8828125 603.4296875 C237.64715582 615.65205141 258.93510588 624.25284212 281.08251953 631.09521484 C283.5735277 631.86774006 286.05144969 632.66903907 288.52734375 633.48828125 C304.79146096 638.74027664 322.40720628 642.24827813 339.49609375 642.859375 C342 643 342 643 343.87078857 643.49871826 C346.1702575 644.04008384 348.21029013 644.14070613 350.57128906 644.16113281 C351.47453918 644.17074036 352.37778931 644.1803479 353.30841064 644.19024658 C354.28429138 644.19449646 355.26017212 644.19874634 356.265625 644.203125 C357.29065125 644.20882507 358.31567749 644.21452515 359.37176514 644.22039795 C361.5539853 644.22985301 363.73621978 644.23638393 365.91845703 644.24023438 C369.16857311 644.24976132 372.41800605 644.28070095 375.66796875 644.3125 C395.33469675 644.41344105 414.52304091 642.33201526 433.75 638.1875 C434.96751953 637.92888184 436.18503906 637.67026367 437.43945312 637.40380859 C455.24799138 633.52493041 472.09931258 627.77024167 489 621 C489.65162109 620.74250977 490.30324219 620.48501953 490.97460938 620.21972656 C535.72491563 602.43184583 580.11569668 569.75514781 608.67089844 530.78662109 C610.14511857 528.80492694 611.66558204 526.8649209 613.1953125 524.92578125 C644.44227758 485.16850089 663.14339697 437.77724148 672.25 388.3125 C672.41314697 387.42868652 672.57629395 386.54487305 672.74438477 385.63427734 C674.51018686 375.68977617 675.1574989 365.93990401 675.16796875 355.84375 C675.17129715 354.70200317 675.17462555 353.56025635 675.17805481 352.38391113 C675.18309303 349.97697346 675.1854641 347.57002888 675.18530273 345.16308594 C675.18747703 341.53828978 675.20563296 337.91380449 675.22460938 334.2890625 C675.25586919 321.3699459 674.8057359 308.79341463 673 296 C672.80472627 294.46702925 672.61132233 292.9338193 672.41967773 291.40039062 C669.70484441 270.08337655 663.19756717 248.83182166 655 229 C654.60441895 228.04174316 654.20883789 227.08348633 653.80126953 226.09619141 C643.5794594 201.60924316 631.09910063 179.11194161 615 158 C614.10861328 156.83017578 614.10861328 156.83017578 613.19921875 155.63671875 C606.5252369 147.03124861 599.8719122 138.546925 592 131 C589.28372087 128.30677926 586.59776599 125.58802192 583.94140625 122.8359375 C576.68603255 115.37197719 569.1940318 108.6838288 560.87182617 102.43823242 C558.6200669 100.7080754 556.42541132 98.91319126 554.22265625 97.12109375 C531.45111674 78.87304931 504.35881126 64.9361357 477 55 C475.52061787 54.44458398 474.04144875 53.88860024 472.5625 53.33203125 C463.80937677 50.08980596 455.01761304 47.58028064 445.93115234 45.46777344 C444.08595742 45.02082104 442.25515882 44.51563971 440.42578125 44.0078125 C436.30483126 42.87794523 432.17596722 41.90171629 428 41 C427.15872559 40.81373047 426.31745117 40.62746094 425.45068359 40.43554688 C385.21481003 32.0099336 337.5153151 33.60135141 298 45 Z " fill="#F9F9F9" transform="translate(0,0)"/>
<path d="M0 0 C39.27 0 78.54 0 119 0 C119 0.66 119 1.32 119 2 C119.90298828 2.39131104 119.90298828 2.39131104 120.82421875 2.79052734 C123.16245973 4.09030807 124.22522593 5.22280841 125.8125 7.3515625 C126.32425781 8.02960938 126.83601563 8.70765625 127.36328125 9.40625 C127.90339844 10.1384375 128.44351563 10.870625 129 11.625 C129.57105469 12.38554687 130.14210938 13.14609375 130.73046875 13.9296875 C132.49411681 16.28121825 134.2473426 18.64027135 136 21 C137.51023237 23.01772317 139.02309946 25.03344914 140.53613281 27.04907227 C141.52079694 28.36135562 142.50450482 29.67435698 143.48730469 30.98803711 C147.04632285 35.74326148 150.6385853 40.47196905 154.25 45.1875 C155.04966187 46.23188232 155.04966187 46.23188232 155.86547852 47.29736328 C158.2124815 50.36180437 160.56004415 53.42581652 162.90771484 56.48974609 C170.15907826 65.95963668 177.37342692 75.45177214 184.4375 85.0625 C185.01137451 85.84262451 185.58524902 86.62274902 186.17651367 87.42651367 C188.72615987 90.89561931 191.26892131 94.36945789 193.80078125 97.8515625 C194.61696123 98.96370776 195.43335004 100.0756998 196.25 101.1875 C196.93578125 102.12980469 197.6215625 103.07210937 198.328125 104.04296875 C198.87984375 104.68878906 199.4315625 105.33460938 200 106 C200.66 106 201.32 106 202 106 C203.37212301 104.46804728 204.6715446 102.87078919 205.9375 101.25 C209.36601162 96.96021976 212.89077834 92.83812604 216.625 88.8125 C220.23006939 84.92231533 223.78283839 80.99921507 227.2578125 76.9921875 C230.07463262 73.77116001 232.95310146 70.60582364 235.8203125 67.4296875 C237.69145094 65.3439382 239.53924831 63.24182372 241.375 61.125 C243.8500354 58.27756344 246.38477943 55.4932511 248.94946289 52.72631836 C252.92100476 48.43917528 256.77538633 44.12186474 260.4375 39.5625 C264.79741306 34.14587552 269.47475879 29.08061704 274.21484375 24 C276.96721231 21.04794438 279.63506289 18.03083853 282.2734375 14.9765625 C285.15956544 11.67253368 288.1257437 8.44044968 291.08203125 5.19921875 C293.12519492 2.95177481 293.12519492 2.95177481 295 0 C297.44241333 -0.36076355 297.44241333 -0.36076355 300.55126953 -0.34057617 C301.71232208 -0.34034958 302.87337463 -0.34012299 304.0696106 -0.33988953 C305.32796722 -0.32440567 306.58632385 -0.30892181 307.8828125 -0.29296875 C309.80962357 -0.28660149 309.80962357 -0.28660149 311.77536011 -0.28010559 C315.19172641 -0.2686468 318.60771056 -0.23917143 322.02392578 -0.20599365 C325.50938751 -0.17531462 328.99491094 -0.16160494 332.48046875 -0.14648438 C339.32046957 -0.11430221 346.16021644 -0.06309376 353 0 C351.35611492 3.46743471 349.42784132 5.92309063 346.8125 8.75 C346.00039063 9.636875 345.18828125 10.52375 344.3515625 11.4375 C343.18753906 12.7059375 343.18753906 12.7059375 342 14 C338.70269803 17.70013977 335.46509914 21.45101387 332.25 25.22265625 C326.67025027 31.76549102 321.03075869 38.22443702 315.22265625 44.56640625 C311.12838698 49.04923534 307.16148705 53.63779399 303.21875 58.25390625 C297.88753246 64.49485293 292.5272598 70.69346944 287.01171875 76.7734375 C285.15265331 78.83104391 283.32071642 80.90846763 281.5 83 C278.86310364 86.02754767 276.18983431 89.01937279 273.5 92 C268.67878725 97.34789986 263.92105973 102.74302215 259.25 108.22265625 C253.68165751 114.75211485 248.05485177 121.19906455 242.2578125 127.52734375 C239.11584251 130.96829013 235.99654736 134.43116773 233 138 C232.42121094 138.65097656 231.84242188 139.30195313 231.24609375 139.97265625 C229.81684177 141.87677268 229.81684177 141.87677268 230.07421875 143.921875 C231.30946565 146.69466551 232.95137111 148.84897607 234.8125 151.25 C235.64098264 152.32915261 236.46908869 153.40859441 237.296875 154.48828125 C237.73837891 155.0601416 238.17988281 155.63200195 238.63476562 156.22119141 C240.48189305 158.62787425 242.29536011 161.05897461 244.10961914 163.49047852 C249.31649052 170.46826363 254.58736248 177.39580123 259.875 184.3125 C265.15505705 191.21966509 270.36303205 198.17329498 275.5 205.1875 C279.53871632 210.70142938 283.63318035 216.13129385 287.953125 221.4296875 C291.20651328 225.51504912 294.30824774 229.71292909 297.43139648 233.89819336 C300.65009145 238.20855602 303.8980709 242.49339599 307.1875 246.75 C311.42549607 252.23800437 315.59958876 257.77143463 319.74902344 263.32666016 C322.16190071 266.55418959 324.58154011 269.77665296 327 273 C329.77210817 276.69469838 332.54391945 280.38957748 335.30859375 284.08984375 C340.1552623 290.57281874 345.06111725 297.00830263 349.98535156 303.43237305 C354.25030032 309.00298165 358.46972647 314.60623354 362.66430664 320.22998047 C365.07081814 323.45076156 367.49672113 326.65248789 369.97265625 329.8203125 C370.44098877 330.42069336 370.90932129 331.02107422 371.3918457 331.63964844 C372.27544388 332.76864644 373.16309978 333.89448437 374.05541992 335.01660156 C377 338.78010296 377 338.78010296 377 341 C361.98829277 341.42210834 346.97704756 341.73866945 331.96065331 341.93261909 C324.98638945 342.02510904 318.01582934 342.15095578 311.04394531 342.35791016 C304.30664412 342.55780429 297.57396768 342.66129429 290.8335762 342.70779037 C288.2711517 342.74088872 285.70892251 342.80553433 283.14814377 342.90314102 C263.63194669 343.61699535 263.63194669 343.61699535 257.57001495 339.24907684 C253.3306193 335.0590971 250.20297321 330.33163875 247.27110672 325.16804123 C245.47562524 322.10560924 243.35315029 319.44856081 241.125 316.6875 C236.02670737 310.04962395 230.9597983 303.38783873 225.88989258 296.72827148 C221.43941618 290.8838981 216.97266827 285.05277295 212.48828125 279.234375 C208.91541395 274.59535123 205.36423577 269.93971023 201.80908203 265.28710938 C197.82520978 260.07500312 193.82593587 254.87509999 189.8203125 249.6796875 C187.51024875 246.67400904 185.21909793 243.65424697 182.9296875 240.6328125 C181.85037964 239.2101709 181.85037964 239.2101709 180.74926758 237.75878906 C179.31227864 235.86376692 177.87716163 233.96732356 176.4440918 232.06933594 C175.78320557 231.19825195 175.12231934 230.32716797 174.44140625 229.4296875 C173.85045166 228.64835449 173.25949707 227.86702148 172.65063477 227.06201172 C171.1920054 225.23985766 169.6885701 223.6073981 168 222 C162.69127755 227.68579059 157.43335818 233.36683484 152.5625 239.4375 C148.71954521 244.21541338 144.63168671 248.68994984 140.44384766 253.16162109 C136.52415468 257.37082976 132.88733712 261.75743963 129.28515625 266.2421875 C125.85652408 270.37998974 122.20107087 274.29671107 118.55078125 278.23828125 C114.3378403 282.79961242 110.28567106 287.49022292 106.2578125 292.21484375 C105.23455265 293.41421409 104.21110963 294.61342817 103.1875 295.8125 C102.67026367 296.41860107 102.15302734 297.02470215 101.62011719 297.64916992 C98.4151062 301.39051541 95.14798497 305.0610693 91.8125 308.6875 C87.79295185 313.06605085 84.03140701 317.60138172 80.30078125 322.2265625 C77.08460929 326.10344211 73.68529427 329.79847478 70.26171875 333.4921875 C67.96219242 335.92568494 67.96219242 335.92568494 66.2255249 338.6212616 C64 341 64 341 61.27911377 341.60127258 C60.23986755 341.59016953 59.20062134 341.57906647 58.12988281 341.56762695 C56.94896057 341.5672493 55.76803833 341.56687164 54.55133057 341.56648254 C52.64646881 341.5277729 52.64646881 341.5277729 50.703125 341.48828125 C49.39921814 341.48120651 48.09531128 341.47413177 46.75189209 341.46684265 C43.29249802 341.44779075 39.83416081 341.39870871 36.37518311 341.34332275 C32.84271542 341.29208934 29.31007622 341.26932008 25.77734375 341.24414062 C18.85112952 341.1905859 11.92561555 341.10529679 5 341 C5.93778202 339.73271135 6.87794902 338.46718739 7.8190918 337.20239258 C8.34238571 336.4974617 8.86567963 335.79253082 9.40483093 335.0662384 C11.69689423 332.09730595 14.22518356 329.39804235 16.8125 326.6875 C21.34049489 321.86841472 25.58190357 316.90518705 29.72265625 311.74609375 C32.21826469 308.73680948 34.83765143 305.86061346 37.5 303 C40.97419243 299.26672745 44.3006871 295.47628889 47.5 291.5 C51.1356405 286.98141824 54.96836402 282.72016671 58.91625977 278.47827148 C61.88715628 275.2670095 64.69961077 271.97372185 67.4375 268.5625 C70.80346662 264.37762201 74.33179641 260.41689536 78 256.5 C82.49637731 251.69801618 86.72436977 246.7548754 90.84765625 241.625 C93.74693447 238.08903818 96.8054149 234.71290924 99.8828125 231.33203125 C101.78051169 229.24176111 103.64733415 227.13013885 105.5 225 C108.08653312 222.02608289 110.72194125 219.10219257 113.375 216.1875 C117.25417265 211.89620614 120.89651152 207.4555993 124.51171875 202.94140625 C126.37930119 200.73373031 128.25848527 198.65902925 130.26953125 196.58984375 C130.82535889 196.01339111 131.38118652 195.43693848 131.95385742 194.84301758 C133.04923164 193.71691847 134.15717578 192.60288158 135.27856445 191.50268555 C138.20499233 188.506161 138.20499233 188.506161 139.1796875 184.55859375 C137.483455 180.8796789 135.10171838 178.02104743 132.5 174.9375 C131.39696881 173.59625858 130.29542012 172.25379667 129.1953125 170.91015625 C128.37788574 169.91653076 128.37788574 169.91653076 127.54394531 168.90283203 C125.41381048 166.277552 123.39141147 163.58884411 121.375 160.875 C118.03148511 156.37526071 114.64033773 151.91716643 111.21557617 147.47900391 C106.488099 141.34639812 101.80094356 135.18317873 97.11083984 129.02197266 C92.77002692 123.32049954 88.41987032 117.62632504 84.0625 111.9375 C80.45477042 107.2261654 76.86594691 102.50242463 73.3125 97.75 C67.52330965 90.01010421 61.62303395 82.35708398 55.67578125 74.73828125 C49.46387334 66.77865422 43.30282071 58.78961199 37.26489258 50.69702148 C33.74487291 45.98143437 30.17489209 41.30757031 26.57714844 36.65112305 C23.85445317 33.12289988 21.16796851 29.56975121 18.5 26 C10.29163971 14.97512097 10.29163971 14.97512097 1.70703125 4.24609375 C0 2 0 2 0 0 Z " fill="#FCFCFC" transform="translate(183,170)"/>
<path d="M0 0 C4.67685552 -0.27411687 9.34895074 -0.47244642 14.03198242 -0.60424805 C15.62037637 -0.65922037 17.20822239 -0.7340387 18.79467773 -0.82983398 C31.89073979 -1.60019058 31.89073979 -1.60019058 36.85766602 2.16796875 C39.18735943 4.9947789 41.10070739 7.87060217 43 11 C44.18188804 12.58339749 45.38026752 14.154669 46.59765625 15.7109375 C47.7548424 17.26395976 48.90973804 18.81869097 50.0625 20.375 C51.3573493 22.11251866 52.65294844 23.84947872 53.94921875 25.5859375 C54.61099121 26.47249023 55.27276367 27.35904297 55.95458984 28.27246094 C59.40133653 32.86867173 62.88806106 37.43424954 66.375 42 C71.2571597 48.39450787 76.11429565 54.8050649 80.9296875 61.25 C83.68110396 64.90471168 86.47566107 68.52532813 89.27099609 72.14648438 C92.043395 75.74276161 94.78154055 79.36262469 97.5 83 C100.57122158 87.10930523 103.67599877 91.19041455 106.8125 95.25 C111.10659571 100.80944053 115.32554806 106.42269674 119.53173828 112.04882812 C122.71924473 116.30703346 125.9361778 120.54034645 129.1875 124.75 C133.85102476 130.78942081 138.43377092 136.88678333 143 143 C149.5789965 151.80653075 156.19879003 160.57936478 162.875 169.3125 C168.09162197 176.13710406 173.23869086 183.00610126 178.3125 189.9375 C182.70425673 195.93678922 187.18534188 201.83902005 191.81762695 207.65405273 C195.66780713 212.51400112 199.33967588 217.49607513 203 222.5 C207.45330153 228.58445965 211.97361446 234.59198874 216.66259766 240.49633789 C220.96650726 245.92611504 225.17488788 251.42717381 229.375 256.9375 C230.05353027 257.82614746 230.73206055 258.71479492 231.43115234 259.63037109 C233.29616946 262.08049162 235.15207581 264.53696767 237 267 C237.52368164 267.69754395 238.04736328 268.39508789 238.58691406 269.11376953 C242 273.75609408 242 273.75609408 242 276 C237.60805472 276.2992677 233.2216503 276.51546389 228.82250977 276.65917969 C227.33089824 276.7191213 225.83998006 276.80072554 224.35083008 276.90527344 C212.02576415 277.74815425 212.02576415 277.74815425 207.17626953 273.56323242 C204.86565812 270.47844708 202.91708543 267.34087362 201 264 C199.93865117 262.54872718 198.85309234 261.1145559 197.734375 259.70703125 C197.24364502 259.06604492 196.75291504 258.42505859 196.24731445 257.76464844 C195.75320068 257.12043945 195.25908691 256.47623047 194.75 255.8125 C193.63409158 254.35548637 192.51820687 252.89845458 191.40234375 251.44140625 C190.84144043 250.70937988 190.28053711 249.97735352 189.70263672 249.22314453 C187.45422199 246.28737388 185.20908946 243.3491011 182.96386719 240.41088867 C177.84768256 233.71612963 172.71947174 227.03092701 167.578125 220.35546875 C165.70815857 217.92465826 163.84478955 215.48890965 161.984375 213.05078125 C156.33784551 205.6511963 150.66568333 198.27412059 144.9375 190.9375 C140.01262044 184.62974575 135.18297843 178.25981376 130.40698242 171.83886719 C126.46014615 166.55708128 122.35645402 161.41449886 118.21386719 156.28564453 C114.7473134 151.97805882 111.46997274 147.56877711 108.25390625 143.0703125 C105.26947348 139.00486335 102.16794788 135.03589966 99.0625 131.0625 C94.35435195 125.03845626 89.70522171 118.98230769 85.13671875 112.8515625 C81.55465427 108.07111081 77.89868007 103.34764183 74.24853516 98.61914062 C72.24457744 96.02034369 70.24820272 93.41572318 68.25 90.8125 C64.77463716 86.28797102 61.27504878 81.78279718 57.7668457 77.28369141 C52.42409818 70.43145549 47.12957761 63.55324752 41.9375 56.5859375 C39.61617906 53.48772286 37.24288602 50.43326927 34.859375 47.3828125 C28.32613386 39.01038163 21.90341405 30.56028153 15.55883789 22.04418945 C11.58015769 16.72317971 7.48853719 11.49845331 3.30102539 6.34008789 C0 2.21640755 0 2.21640755 0 0 Z " fill="#040404" transform="translate(250,201)"/>
<path d="M0 0 C0.76953125 1.640625 0.76953125 1.640625 1 4 C-0.80078125 6.796875 -0.80078125 6.796875 -3.3125 9.75 C-4.54419922 11.22726562 -4.54419922 11.22726562 -5.80078125 12.734375 C-6.52652344 13.48203125 -7.25226563 14.2296875 -8 15 C-8.66 15 -9.32 15 -10 15 C-10.37125 15.9075 -10.7425 16.815 -11.125 17.75 C-13.26026255 21.45112176 -15.34208252 22.88653657 -19 25 C-19.66 24.67 -20.32 24.34 -21 24 C-20.59910156 23.62230469 -20.19820312 23.24460937 -19.78515625 22.85546875 C-14.37399145 17.61608696 -9.71174583 11.86546303 -5 6 C-3.34227956 3.99227362 -1.67212163 1.99575807 0 0 Z " fill="#E5E5E5" transform="translate(235,456)"/>
<path d="M0 0 C0.99 0.99 1.98 1.98 3 3 C2.34 4.65 1.68 6.3 1 8 C-1.31 8.33 -3.62 8.66 -6 9 C-6.33 10.98 -6.66 12.96 -7 15 C-8.32 15.33 -9.64 15.66 -11 16 C-11 11.61381654 -8.26543217 9.44824189 -5.5 6.3125 C-4.97535156 5.70599609 -4.45070313 5.09949219 -3.91015625 4.47460938 C-2.61333098 2.97736565 -1.30750638 1.48792528 0 0 Z " fill="#F4F4F4" transform="translate(611,527)"/>
<path d="M0 0 C0.66 0 1.32 0 2 0 C2.33 0.33 2.66 0.66 3 1 C3.66 0.67 4.32 0.34 5 0 C7.52588702 2.36292656 8.88820837 3.66462511 10 7 C10.66 7.66 11.32 8.32 12 9 C12 9.66 12 10.32 12 11 C7.52761347 9.58192622 3.28853694 7.88695626 -1 6 C-0.67 4.02 -0.34 2.04 0 0 Z " fill="#EFEFEF" transform="translate(493,56)"/>
<path d="M0 0 C0 3.10551666 -0.5393715 4.35261084 -2 7 C-2.66 7 -3.32 7 -4 7 C-4 8.65 -4 10.3 -4 12 C-9.2734375 15.22265625 -9.2734375 15.22265625 -11 16 C-11.66 15.67 -12.32 15.34 -13 15 C-12.56429688 14.50371094 -12.12859375 14.00742187 -11.6796875 13.49609375 C-7.75726021 9.02180981 -3.86455714 4.52435958 0 0 Z " fill="#E1E1E1" transform="translate(298,384)"/>
<path d="M0 0 C2 3 2 3 2.875 5.5 C4.15941612 8.35425803 5.52800505 9.1872037 8 11 C8 11.99 8 12.98 8 14 C8.66 14 9.32 14 10 14 C10.33 15.32 10.66 16.64 11 18 C10.34 18.33 9.68 18.66 9 19 C8.62488281 18.49210937 8.24976563 17.98421875 7.86328125 17.4609375 C5.36612807 14.10204632 2.86184612 10.79315424 0.125 7.625 C-2 5 -2 5 -2 3 C-1.34 3 -0.68 3 0 3 C0 2.01 0 1.02 0 0 Z " fill="#E7E7E7" transform="translate(604,138)"/>
<path d="M0 0 C0.66 0 1.32 0 2 0 C2.33 0.66 2.66 1.32 3 2 C4.32 1.67 5.64 1.34 7 1 C7 1.99 7 2.98 7 4 C8.65 4.33 10.3 4.66 12 5 C9 7 9 7 6.80859375 6.828125 C6.02613281 6.63734375 5.24367188 6.4465625 4.4375 6.25 C3.65246094 6.06953125 2.86742187 5.8890625 2.05859375 5.703125 C0 5 0 5 -2 3 C-1.34 2.01 -0.68 1.02 0 0 Z " fill="#DDDDDD" transform="translate(468,48)"/>
<path d="M0 0 C0 3.52032428 -0.70351351 4.4385343 -3 7 C-3.66 7 -4.32 7 -5 7 C-4.67 7.99 -4.34 8.98 -4 10 C-4.9375 12.6875 -4.9375 12.6875 -6 15 C-6.33 14.34 -6.66 13.68 -7 13 C-8.98 13.66 -10.96 14.32 -13 15 C-9.09489511 9.49280079 -4.90282356 4.64172645 0 0 Z " fill="#191919" transform="translate(276,477)"/>
<path d="M0 0 C1.32 1.32 2.64 2.64 4 4 C3.34 4.66 2.68 5.32 2 6 C1.01 5.34 0.02 4.68 -1 4 C-1 4.99 -1 5.98 -1 7 C-1.8353125 7.3403125 -1.8353125 7.3403125 -2.6875 7.6875 C-5.63246684 9.35896766 -7.68156544 11.55276352 -10 14 C-10.66 13.67 -11.32 13.34 -12 13 C-11.55269531 12.56429688 -11.10539062 12.12859375 -10.64453125 11.6796875 C-6.85478464 7.94650427 -3.33540417 4.143987 0 0 Z " fill="#232323" transform="translate(351,391)"/>
<path d="M0 0 C-0.33 2.31 -0.66 4.62 -1 7 C-3.49064888 7.68707555 -5.37886292 8 -8 8 C-8.66 6.68 -9.32 5.36 -10 4 C-8.71086513 3.32845067 -7.41859796 2.66291141 -6.125 2 C-5.40570313 1.62875 -4.68640625 1.2575 -3.9453125 0.875 C-2 0 -2 0 0 0 Z " fill="#111111" transform="translate(245,64)"/>
<path d="M0 0 C2.31 1.65 4.62 3.3 7 5 C6.67 6.65 6.34 8.3 6 10 C6.66 10.33 7.32 10.66 8 11 C7.01 11 6.02 11 5 11 C3.359375 9.35546875 3.359375 9.35546875 1.75 7.1875 C1.20859375 6.47980469 0.6671875 5.77210938 0.109375 5.04296875 C-0.25671875 4.36878906 -0.6228125 3.69460938 -1 3 C-0.67 2.01 -0.34 1.02 0 0 Z " fill="#131313" transform="translate(320,290)"/>
<path d="M0 0 C2.96404505 2.80804268 5.44499019 5.18315774 7 9 C6.01 9.495 6.01 9.495 5 10 C4.34 9.67 3.68 9.34 3 9 C3 8.34 3 7.68 3 7 C2.01 7.33 1.02 7.66 0 8 C-0.79953138 4.71303767 -1.09658936 3.28976808 0 0 Z " fill="#1A1A1A" transform="translate(194,186)"/>
<path d="M0 0 C2.31 1.98 4.62 3.96 7 6 C6.34 7.32 5.68 8.64 5 10 C4.34 8.35 3.68 6.7 3 5 C2.01 5.33 1.02 5.66 0 6 C-0.99 4.68 -1.98 3.36 -3 2 C-2.01 1.34 -1.02 0.68 0 0 Z " fill="#191919" transform="translate(595,135)"/>
<path d="M0 0 C1.32 0.66 2.64 1.32 4 2 C4 3.32 4 4.64 4 6 C4.66 6.66 5.32 7.32 6 8 C4.1875 8.6875 4.1875 8.6875 2 9 C0.25 7.875 0.25 7.875 -1 6 C-1.25 3.375 -1.25 3.375 -1 1 C-0.67 0.67 -0.34 0.34 0 0 Z " fill="#F3F3F3" transform="translate(225,607)"/>
<path d="M0 0 C0.66 0.33 1.32 0.66 2 1 C0.66666667 2.33333333 -0.66666667 3.66666667 -2 5 C-2.61875 5.721875 -3.2375 6.44375 -3.875 7.1875 C-6.53166371 9.45347787 -8.57286991 9.68844272 -12 10 C-8.40945767 6.11024581 -4.26101118 3.10267805 0 0 Z " fill="#E1E1E1" transform="translate(560,578)"/>
<path d="M0 0 C1.79398267 0.95399078 3.58511655 1.91334026 5.375 2.875 C6.37273437 3.40867187 7.37046875 3.94234375 8.3984375 4.4921875 C11 6 11 6 13 8 C11.1875 8.6875 11.1875 8.6875 9 9 C7.5 7.6875 7.5 7.6875 6 6 C5.319375 5.690625 4.63875 5.38125 3.9375 5.0625 C1.5274317 3.74084964 1.11408388 2.45098454 0 0 Z " fill="#E3E3E3" transform="translate(206,596)"/>
<path d="M0 0 C2 0.25 2 0.25 4 1 C4.33 1.99 4.66 2.98 5 4 C2.525 5.485 2.525 5.485 0 7 C-0.66 6.34 -1.32 5.68 -2 5 C-1.46428571 1.46428571 -1.46428571 1.46428571 0 0 Z " fill="#0E0E0E" transform="translate(571,562)"/>
<path d="M0 0 C0.99 0.99 1.98 1.98 3 3 C2.01 4.485 2.01 4.485 1 6 C0.01 6 -0.98 6 -2 6 C-3.88669495 7.30576503 -3.88669495 7.30576503 -5.6875 9 C-6.62142578 9.8353125 -6.62142578 9.8353125 -7.57421875 10.6875 C-8.04472656 11.120625 -8.51523437 11.55375 -9 12 C-7.55575365 8.76138697 -5.74227753 6.38030837 -3.375 3.75 C-2.74335938 3.04359375 -2.11171875 2.3371875 -1.4609375 1.609375 C-0.97882813 1.07828125 -0.49671875 0.5471875 0 0 Z " fill="#1F1F1F" transform="translate(292,458)"/>
<path d="M0 0 C0.33 0.66 0.66 1.32 1 2 C0.34 2.66 -0.32 3.32 -1 4 C-1.495 4.53625 -1.99 5.0725 -2.5 5.625 C-4 7 -4 7 -6 7 C-6.33 7.66 -6.66 8.32 -7 9 C-8.65 9 -10.3 9 -12 9 C-8.11327187 5.81994972 -4.10047867 2.89445553 0 0 Z " fill="#171717" transform="translate(204,86)"/>
<path d="M0 0 C3.465 1.98 3.465 1.98 7 4 C4.85446026 6.14553974 3.97397616 6.72963853 1 7 C-0.75 5.5625 -0.75 5.5625 -2 4 C-1.34 2.68 -0.68 1.36 0 0 Z " fill="#100E0F" transform="translate(530,81)"/>
<path d="M0 0 C0.66 0.33 1.32 0.66 2 1 C0.63842622 6.29500913 -2.60343955 8.23745533 -7 11 C-7.66 10.67 -8.32 10.34 -9 10 C-6.03 6.7 -3.06 3.4 0 0 Z " fill="#191919" transform="translate(483,231)"/>
<path d="M0 0 C0.99 1.32 1.98 2.64 3 4 C1.35 5.65 -0.3 7.3 -2 9 C-3.0625 6.625 -3.0625 6.625 -4 4 C-3.67 3.34 -3.34 2.68 -3 2 C-2.01 2 -1.02 2 0 2 C0 1.34 0 0.68 0 0 Z " fill="#EFEFEF" transform="translate(525,177)"/>
<path d="M0 0 C3.26460973 1.80412643 4.88929795 2.83394693 7 6 C5.35 6.33 3.7 6.66 2 7 C2 6.34 2 5.68 2 5 C1.01 5 0.02 5 -1 5 C-0.67 3.35 -0.34 1.7 0 0 Z " fill="#141414" transform="translate(570,111)"/>
<path d="M0 0 C4 0 4 0 6 1 C5.67 2.98 5.34 4.96 5 7 C3.02 5.68 1.04 4.36 -1 3 C-0.67 2.01 -0.34 1.02 0 0 Z " fill="#101010" transform="translate(186,578)"/>
<path d="M0 0 C0.66 0.66 1.32 1.32 2 2 C1.01 2.99 0.02 3.98 -1 5 C2.3 5.33 5.6 5.66 9 6 C9 6.33 9 6.66 9 7 C7.04196493 7.05389087 5.08351091 7.09274217 3.125 7.125 C2.03445312 7.14820313 0.94390625 7.17140625 -0.1796875 7.1953125 C-3 7 -3 7 -5 5 C-3.35 3.35 -1.7 1.7 0 0 Z " fill="#161616" transform="translate(190,505)"/>
<path d="M0 0 C1.65 1.65 3.3 3.3 5 5 C4.34 6.65 3.68 8.3 3 10 C1.68 9.34 0.36 8.68 -1 8 C-1 7.34 -1 6.68 -1 6 C-0.34 6 0.32 6 1 6 C0.67 4.02 0.34 2.04 0 0 Z " fill="#0E0E0E" transform="translate(386,437)"/>
<path d="M0 0 C0.66 1.32 1.32 2.64 2 4 C2.66 4 3.32 4 4 4 C3.34 5.98 2.68 7.96 2 10 C1.34 9.34 0.68 8.68 0 8 C-0.99 8.66 -1.98 9.32 -3 10 C-2.01 6.7 -1.02 3.4 0 0 Z " fill="#292728" transform="translate(83,241)"/>
<path d="M0 0 C1.32 0.66 2.64 1.32 4 2 C3.34 3.32 2.68 4.64 2 6 C2.61875 6.12375 3.2375 6.2475 3.875 6.375 C6 7 6 7 8 9 C7.01 9.33 6.02 9.66 5 10 C2.7363436 8.59554165 0.9791315 6.8032087 -1 5 C-0.67 3.35 -0.34 1.7 0 0 Z " fill="#161616" transform="translate(177,569)"/>
<path d="M0 0 C0.66 0.99 1.32 1.98 2 3 C1.2884375 3.6496875 1.2884375 3.6496875 0.5625 4.3125 C-1.23686957 6.02309613 -1.23686957 6.02309613 -2 9 C-3.65 9 -5.3 9 -7 9 C-6.02180976 7.68677212 -5.0424189 6.37443848 -4.0625 5.0625 C-3.51722656 4.33160156 -2.97195312 3.60070312 -2.41015625 2.84765625 C-1 1 -1 1 0 0 Z " fill="#DFDFDF" transform="translate(195,502)"/>
<path d="M0 0 C0 3.92823101 -1.51754449 5.06618894 -4 8 C-4.33 8.66 -4.66 9.32 -5 10 C-5.66 10 -6.32 10 -7 10 C-7.33 10.99 -7.66 11.98 -8 13 C-8.66 12.34 -9.32 11.68 -10 11 C-6.7 7.37 -3.4 3.74 0 0 Z " fill="#DDDDDD" transform="translate(206,490)"/>
<path d="M0 0 C3.16115776 1.36983503 3.9927092 1.9890638 6 5 C5.01 6.485 5.01 6.485 4 8 C2.68 7.34 1.36 6.68 0 6 C0 4.02 0 2.04 0 0 Z " fill="#111111" transform="translate(347,287)"/>
<path d="M0 0 C0.33 0.66 0.66 1.32 1 2 C-0.2739589 4.03833424 -1.61061923 6.03852126 -3 8 C-3.66 8 -4.32 8 -5 8 C-5 8.66 -5 9.32 -5 10 C-6.32 10.33 -7.64 10.66 -9 11 C-8.06558465 9.72689688 -7.12732889 8.456612 -6.1875 7.1875 C-5.66542969 6.47980469 -5.14335937 5.77210938 -4.60546875 5.04296875 C-3.16871123 3.21468607 -1.68184237 1.60103312 0 0 Z " fill="#DFDFDF" transform="translate(395,264)"/>
<path d="M0 0 C0 3.29223784 -0.50518132 5.08510357 -2 8 C-3.875 9.1875 -3.875 9.1875 -6 10 C-7.33722892 10.65881791 -8.6711444 11.32445207 -10 12 C-3.84965831 3.55353075 -3.84965831 3.55353075 0 0 Z " fill="#DADADA" transform="translate(265,422)"/>
<path d="M0 0 C1.32 0 2.64 0 4 0 C4.625 2.875 4.625 2.875 5 6 C4.34 6.66 3.68 7.32 3 8 C0.9375 5.6875 0.9375 5.6875 -1 3 C-0.67 2.01 -0.34 1.02 0 0 Z " fill="#131313" transform="translate(418,418)"/>
<path d="M0 0 C1.32 0.33 2.64 0.66 4 1 C1.525 4.465 1.525 4.465 -1 8 C-1.66 7.34 -2.32 6.68 -3 6 C-3 4.68 -3 3.36 -3 2 C-2.01 2 -1.02 2 0 2 C0 1.34 0 0.68 0 0 Z " fill="#111111" transform="translate(269,412)"/>
<path d="M0 0 C3.35435922 1.38801071 5.11290303 2.88629 7 6 C7 6.99 7 7.98 7 9 C3.64564078 7.61198929 1.88709697 6.11371 0 3 C0 2.01 0 1.02 0 0 Z " fill="#EBEBEB" transform="translate(264,275)"/>
<path d="M0 0 C5.57142857 5.14285714 5.57142857 5.14285714 6 9 C-0.57142857 5 -0.57142857 5 -2 1 C-1.34 0.67 -0.68 0.34 0 0 Z " fill="#1B1B1B" transform="translate(437,503)"/>
<path d="M0 0 C1.65 1.65 3.3 3.3 5 5 C2.50935112 5.68707555 0.62113708 6 -2 6 C-2 4.35 -2 2.7 -2 1 C-1.34 0.67 -0.68 0.34 0 0 Z " fill="#141414" transform="translate(380,429)"/>
<path d="M0 0 C0 3.86695678 -1.41909971 6.5088452 -3 10 C-4.32 9.67 -5.64 9.34 -7 9 C-6.02180976 7.68677212 -5.0424189 6.37443848 -4.0625 5.0625 C-3.51722656 4.33160156 -2.97195313 3.60070312 -2.41015625 2.84765625 C-1 1 -1 1 0 0 Z " fill="#DDDDDD" transform="translate(606,533)"/>
<path d="M0 0 C1.5 1.1875 1.5 1.1875 3 3 C3.1875 5.6875 3.1875 5.6875 3 8 C2.01 8.495 2.01 8.495 1 9 C-0.65 6.69 -2.3 4.38 -4 2 C-3.01 2 -2.02 2 -1 2 C-0.67 1.34 -0.34 0.68 0 0 Z " fill="#EAEAEA" transform="translate(405,454)"/>
<path d="M0 0 C1.32 0 2.64 0 4 0 C4.33 0.99 4.66 1.98 5 3 C3.68 3.99 2.36 4.98 1 6 C0.01 5.01 -0.98 4.02 -2 3 C-1.34 2.01 -0.68 1.02 0 0 Z " fill="#101010" transform="translate(275,403)"/>
<path d="M0 0 C0.33 0.66 0.66 1.32 1 2 C-1.80627778 6.74908547 -4.25091453 9.19372222 -9 12 C-7.55575365 8.76138697 -5.74227753 6.38030837 -3.375 3.75 C-2.74335938 3.04359375 -2.11171875 2.3371875 -1.4609375 1.609375 C-0.97882813 1.07828125 -0.49671875 0.5471875 0 0 Z " fill="#272727" transform="translate(431,290)"/>
<path d="M0 0 C-0.3125 1.9375 -0.3125 1.9375 -1 4 C-1.99 4.33 -2.98 4.66 -4 5 C-6.6875 3.0625 -6.6875 3.0625 -9 1 C-5.8035914 -0.06546953 -3.34252724 -0.07427838 0 0 Z " fill="#E3E1E2" transform="translate(544,83)"/>
<path d="M0 0 C0.66 0.33 1.32 0.66 2 1 C1.67 1.66 1.34 2.32 1 3 C0.34 3 -0.32 3 -1 3 C-1.28875 3.78375 -1.5775 4.5675 -1.875 5.375 C-3 8 -3 8 -5 10 C-4.67 8.35 -4.34 6.7 -4 5 C-4.66 4.67 -5.32 4.34 -6 4 C-4.02 2.68 -2.04 1.36 0 0 Z " fill="#1B1B1B" transform="translate(211,81)"/>
<path d="M0 0 C0 3.58912412 -0.66436554 4.10857029 -3 6.6875 C-3.556875 7.31011719 -4.11375 7.93273437 -4.6875 8.57421875 C-5.120625 9.04472656 -5.55375 9.51523437 -6 10 C-6.99 9.67 -7.98 9.34 -9 9 C-6.03 6.03 -3.06 3.06 0 0 Z " fill="#DBDBDB" transform="translate(589,552)"/>
<path d="M0 0 C0.66 0.33 1.32 0.66 2 1 C1.375 3.375 1.375 3.375 0 6 C-3.125 7.3125 -3.125 7.3125 -6 8 C-4.02 5.36 -2.04 2.72 0 0 Z " fill="#DCDCDC" transform="translate(228,464)"/>
<path d="M0 0 C2.99324263 1.0975223 3.84610901 1.67682892 5.25 4.625 C5.4975 5.40875 5.745 6.1925 6 7 C5.34 7.66 4.68 8.32 4 9 C0 2.25 0 2.25 0 0 Z " fill="#141414" transform="translate(512,444)"/>
<path d="M0 0 C4.875 4.75 4.875 4.75 6 7 C5.34 7.66 4.68 8.32 4 9 C-0.00390625 4.60546875 -0.00390625 4.60546875 -1 3 C-0.67 2.01 -0.34 1.02 0 0 Z " fill="#E8E8E8" transform="translate(306,276)"/>
<path d="M0 0 C1.9451 2.91765 2.45276317 4.62537285 3 8 C2.01 8 1.02 8 0 8 C-1.6875 5.5 -1.6875 5.5 -3 3 C-2.01 2.01 -1.02 1.02 0 0 Z " fill="#111111" transform="translate(436,339)"/>
<path d="M0 0 C0.66 0.66 1.32 1.32 2 2 C0.02 4.31 -1.96 6.62 -4 9 C-4.33 8.01 -4.66 7.02 -5 6 C-2.66666667 1.33333333 -2.66666667 1.33333333 0 0 Z " fill="#121212" transform="translate(392,264)"/>
<path d="M0 0 C2.62187494 1.04874998 3.79371361 1.64931313 5.25 4.125 C5.4975 4.74375 5.745 5.3625 6 6 C4.35 6.33 2.7 6.66 1 7 C0.67 4.69 0.34 2.38 0 0 Z " fill="#141414" transform="translate(324,256)"/>
<path d="M0 0 C0.66 0 1.32 0 2 0 C5.11450382 4.15267176 5.11450382 4.15267176 4.6875 7.3125 C4.460625 7.869375 4.23375 8.42625 4 9 C-0.00390625 4.60546875 -0.00390625 4.60546875 -1 3 C-0.67 2.01 -0.34 1.02 0 0 Z " fill="#0E0E0E" transform="translate(180,168)"/>
<path d="M0 0 C0.66 0.33 1.32 0.66 2 1 C0.8125 3.875 0.8125 3.875 -1 7 C-2.65 7.66 -4.3 8.32 -6 9 C-4.02 6.03 -2.04 3.06 0 0 Z " fill="#DBDBDB" transform="translate(619,516)"/>
<path d="M0 0 C0.99 0.66 1.98 1.32 3 2 C2.34 3.32 1.68 4.64 1 6 C0.01 6 -0.98 6 -2 6 C-2.33 5.01 -2.66 4.02 -3 3 C-2.01 2.01 -1.02 1.02 0 0 Z " fill="#141414" transform="translate(206,202)"/>
<path d="M0 0 C0.33 0 0.66 0 1 0 C1.22036864 3.85645121 0.60355101 6.49223216 -1 10 C-2.5 8.625 -2.5 8.625 -4 7 C-4 6.34 -4 5.68 -4 5 C-3.01 4.34 -2.02 3.68 -1 3 C-0.67 2.01 -0.34 1.02 0 0 Z " fill="#EEEEEE" transform="translate(630,168)"/>
<path d="M0 0 C0.33 0.66 0.66 1.32 1 2 C2.65 1.34 4.3 0.68 6 0 C5.75 1.875 5.75 1.875 5 4 C2.9375 5.25 2.9375 5.25 1 6 C0 5 0 5 -0.0625 2.4375 C-0.041875 1.633125 -0.02125 0.82875 0 0 Z " fill="#EAEAEA" transform="translate(185,93)"/>
<path d="M0 0 C1.32 0.66 2.64 1.32 4 2 C3.67 3.32 3.34 4.64 3 6 C1.68 6 0.36 6 -1 6 C-0.67 4.02 -0.34 2.04 0 0 Z " fill="#060606" transform="translate(180,569)"/>
<path d="M0 0 C2.66735273 2.48952921 4.55746343 4.63408134 6 8 C5.34 8.66 4.68 9.32 4 10 C0 3.375 0 3.375 0 0 Z " fill="#DCDCDC" transform="translate(122,515)"/>
<path d="M0 0 C0.66 0.99 1.32 1.98 2 3 C1.34 4.32 0.68 5.64 0 7 C-1.65 7 -3.3 7 -5 7 C-3.35 4.69 -1.7 2.38 0 0 Z " fill="#212121" transform="translate(255,500)"/>
<path d="M0 0 C2.35964273 0.40683495 3.85934088 0.89814339 5.8125 2.3125 C7 4 7 4 6.6875 6.1875 C6.460625 6.785625 6.23375 7.38375 6 8 C3.33264727 5.51047079 1.44253657 3.36591866 0 0 Z " fill="#EAEAEA" transform="translate(476,454)"/>
<path d="M0 0 C0.66 0.33 1.32 0.66 2 1 C0.61918777 5.1424367 -1.59825558 6.32203099 -5 9 C-5.66 8.67 -6.32 8.34 -7 8 C-4.69 5.36 -2.38 2.72 0 0 Z " fill="#242424" transform="translate(305,443)"/>
<path d="M0 0 C1.32 1.32 2.64 2.64 4 4 C3.01 4.99 2.02 5.98 1 7 C0.01 5.35 -0.98 3.7 -2 2 C-1.34 1.34 -0.68 0.68 0 0 Z " fill="#E7E7E7" transform="translate(451,417)"/>
<path d="M0 0 C2 0.25 2 0.25 4 1 C4.33 1.99 4.66 2.98 5 4 C4.01 4.66 3.02 5.32 2 6 C1.01 4.35 0.02 2.7 -1 1 C-0.67 0.67 -0.34 0.34 0 0 Z " fill="#121212" transform="translate(312,280)"/>
<path d="M0 0 C1.65 1.65 3.3 3.3 5 5 C4.34 5.66 3.68 6.32 3 7 C2.01 6.67 1.02 6.34 0 6 C-0.38218767 4.34385343 -0.71395102 2.67542976 -1 1 C-0.67 0.67 -0.34 0.34 0 0 Z " fill="#222222" transform="translate(252,262)"/>
<path d="M0 0 C0.99 0.33 1.98 0.66 3 1 C1.68 3.31 0.36 5.62 -1 8 C-1.66 7.67 -2.32 7.34 -3 7 C-2.38722388 4.03824877 -1.74627478 2.61941217 0 0 Z " fill="#EAEAEA" transform="translate(107,184)"/>
<path d="M0 0 C1.67542976 0.28604898 3.34385343 0.61781233 5 1 C5 1.66 5 2.32 5 3 C5.66 3.33 6.32 3.66 7 4 C6.34 4 5.68 4 5 4 C4.67 4.66 4.34 5.32 4 6 C2.35 4.35 0.7 2.7 -1 1 C-0.67 0.67 -0.34 0.34 0 0 Z " fill="#DCDCDC" transform="translate(556,97)"/>
<path d="M0 0 C2.64 1.65 5.28 3.3 8 5 C7.34 5.66 6.68 6.32 6 7 C3 5.1875 3 5.1875 0 3 C0 2.01 0 1.02 0 0 Z " fill="#171616" transform="translate(542,89)"/>
<path d="M0 0 C-1.6875 1.5625 -1.6875 1.5625 -4 3 C-6.75 2.6875 -6.75 2.6875 -9 2 C-4 -1.33333333 -4 -1.33333333 0 0 Z M-6 3 C-5.34 3 -4.68 3 -4 3 C-4.33 3.66 -4.66 4.32 -5 5 C-5.33 4.34 -5.66 3.68 -6 3 Z " fill="#DEDEDE" transform="translate(485,624)"/>
<path d="M0 0 C1.98 0.66 3.96 1.32 6 2 C6 2.99 6 3.98 6 5 C3.36 4.01 0.72 3.02 -2 2 C-1.34 1.34 -0.68 0.68 0 0 Z " fill="#202020" transform="translate(231,608)"/>
<path d="M0 0 C0.66 0 1.32 0 2 0 C1.60196439 2.88575819 1.20990931 3.82189513 -1.0625 5.75 C-1.701875 6.1625 -2.34125 6.575 -3 7 C-3.33 6.34 -3.66 5.68 -4 5 C-3.67 4.34 -3.34 3.68 -3 3 C-2.34 3 -1.68 3 -1 3 C-0.67 2.01 -0.34 1.02 0 0 Z " fill="#161616" transform="translate(581,556)"/>
<path d="M0 0 C1.98 0 3.96 0 6 0 C6 0.99 6 1.98 6 3 C5.01 3.66 4.02 4.32 3 5 C2.01 3.35 1.02 1.7 0 0 Z " fill="#111111" transform="translate(127,521)"/>
<path d="M0 0 C0.98726527 2.66561622 1.0275526 3.90126985 0.25 6.6875 C-1 9 -1 9 -4 10 C-2.8905928 6.51329166 -1.73662334 3.22515763 0 0 Z " fill="#DFDEDF" transform="translate(644,474)"/>
<path d="M0 0 C0.66 0.33 1.32 0.66 2 1 C1.34 2.32 0.68 3.64 0 5 C-1.65 4.67 -3.3 4.34 -5 4 C-3.73293765 1.46587529 -2.59334288 1.02161992 0 0 Z " fill="#E8E8E8" transform="translate(503,435)"/>
<path d="M0 0 C0.33 0.66 0.66 1.32 1 2 C0.0625 4.625 0.0625 4.625 -1 7 C-2.65 7 -4.3 7 -6 7 C-4.02 4.69 -2.04 2.38 0 0 Z " fill="#DFDFDF" transform="translate(405,253)"/>
<path d="M0 0 C0 2.64779693 -0.17195931 4.51587793 -1 7 C-1.99 7.495 -1.99 7.495 -3 8 C-3 7.34 -3 6.68 -3 6 C-3.66 5.67 -4.32 5.34 -5 5 C-3.35 3.35 -1.7 1.7 0 0 Z " fill="#E5E5E5" transform="translate(452,200)"/>
<path d="M0 0 C0.33 1.32 0.66 2.64 1 4 C0.01 4.33 -0.98 4.66 -2 5 C-2 5.66 -2 6.32 -2 7 C-3.65 7.66 -5.3 8.32 -7 9 C-6.02180976 7.68677212 -5.0424189 6.37443848 -4.0625 5.0625 C-3.51722656 4.33160156 -2.97195313 3.60070312 -2.41015625 2.84765625 C-1 1 -1 1 0 0 Z " fill="#292929" transform="translate(531,176)"/>
<path d="M0 0 C-0.625 1.875 -0.625 1.875 -2 4 C-5.125 5.25 -5.125 5.25 -8 6 C-3.375 0 -3.375 0 0 0 Z " fill="#1C1C1C" transform="translate(167,117)"/>
<path d="M0 0 C0.66 0 1.32 0 2 0 C2 0.66 2 1.32 2 2 C2.66 2 3.32 2 4 2 C3.67 3.65 3.34 5.3 3 7 C1.68 6.34 0.36 5.68 -1 5 C-0.67 3.35 -0.34 1.7 0 0 Z " fill="#E3E3E3" transform="translate(493,56)"/>
<path d="M0 0 C0.66 0 1.32 0 2 0 C2 0.99 2 1.98 2 3 C3.65 3.33 5.3 3.66 7 4 C4 6 4 6 1 6 C0.34 4.35 -0.32 2.7 -1 1 C-0.67 0.67 -0.34 0.34 0 0 Z " fill="#E7E7E7" transform="translate(473,49)"/>
<path d="M0 0 C1.32 0.33 2.64 0.66 4 1 C4 1.66 4 2.32 4 3 C3.360625 3.12375 2.72125 3.2475 2.0625 3.375 C1.381875 3.58125 0.70125 3.7875 0 4 C-0.33 4.66 -0.66 5.32 -1 6 C-1.33 5.01 -1.66 4.02 -2 3 C-1.34 2.01 -0.68 1.02 0 0 Z " fill="#EAEAEA" transform="translate(286,632)"/>
<path d="M0 0 C0.33 1.32 0.66 2.64 1 4 C0.01 4.66 -0.98 5.32 -2 6 C-2.99 5.67 -3.98 5.34 -5 5 C-3.35 3.35 -1.7 1.7 0 0 Z " fill="#ECECEC" transform="translate(541,592)"/>
<path d="M0 0 C0.66 0.33 1.32 0.66 2 1 C2 1.66 2 2.32 2 3 C2.99 3.33 3.98 3.66 5 4 C2.525 5.485 2.525 5.485 0 7 C-0.66 6.34 -1.32 5.68 -2 5 C-1.34 5 -0.68 5 0 5 C0 3.35 0 1.7 0 0 Z " fill="#131313" transform="translate(564,568)"/>
<path d="M0 0 C1.65 1.65 3.3 3.3 5 5 C4.34 5.66 3.68 6.32 3 7 C1.68 5.35 0.36 3.7 -1 2 C-0.67 1.34 -0.34 0.68 0 0 Z " fill="#131313" transform="translate(136,530)"/>
<path d="M0 0 C0.66 1.32 1.32 2.64 2 4 C1.34 4 0.68 4 0 4 C-0.33 4.66 -0.66 5.32 -1 6 C-1.99 6 -2.98 6 -4 6 C-1.125 1.125 -1.125 1.125 0 0 Z " fill="#DEDEDE" transform="translate(611,527)"/>
<path d="M0 0 C0.66 0.99 1.32 1.98 2 3 C-0.97 5.475 -0.97 5.475 -4 8 C-4.66 7.67 -5.32 7.34 -6 7 C-4.02 4.69 -2.04 2.38 0 0 Z " fill="#232323" transform="translate(312,435)"/>
<path d="M0 0 C0 1.98 0 3.96 0 6 C-0.99 6.495 -0.99 6.495 -2 7 C-2.99 5.35 -3.98 3.7 -5 2 C-2 0 -2 0 0 0 Z " fill="#0C0C0C" transform="translate(479,394)"/>
<path d="M0 0 C0 3.15081975 -0.27898465 4.41847698 -2 7 C-4.125 7.75 -4.125 7.75 -6 8 C-2.25 2.25 -2.25 2.25 0 0 Z " fill="#DBDBDB" transform="translate(298,384)"/>
<path d="M0 0 C1.65 1.65 3.3 3.3 5 5 C3.125 5.625 3.125 5.625 1 6 C0.34 5.34 -0.32 4.68 -1 4 C-0.625 1.875 -0.625 1.875 0 0 Z " fill="#E5E5E5" transform="translate(275,235)"/>
<path d="M0 0 C1.0625 1.875 1.0625 1.875 2 4 C1.67 4.66 1.34 5.32 1 6 C0.01 5.67 -0.98 5.34 -2 5 C-2.6875 2.9375 -2.6875 2.9375 -3 1 C-2.01 0.67 -1.02 0.34 0 0 Z " fill="#F0F0F0" transform="translate(86,226)"/>
<path d="M0 0 C0.66 0.33 1.32 0.66 2 1 C1.25 3.9375 1.25 3.9375 0 7 C-2.125 7.875 -2.125 7.875 -4 8 C-2.66666667 5.33333333 -1.33333333 2.66666667 0 0 Z " fill="#E6E6E6" transform="translate(93,211)"/>
<path d="M0 0 C2.52588702 2.36292656 3.88820837 3.66462511 5 7 C4.01 7 3.02 7 2 7 C0.5393715 4.35261084 0 3.10551666 0 0 Z " fill="#1F1F1F" transform="translate(620,166)"/>
<path d="M0 0 C0.66 0.33 1.32 0.66 2 1 C0.515 3.475 0.515 3.475 -1 6 C-1.99 5.67 -2.98 5.34 -4 5 C-3 2 -3 2 0 0 Z " fill="#E1E1E1" transform="translate(528,600)"/>
<path d="M0 0 C0.66 0.66 1.32 1.32 2 2 C0.35 3.65 -1.3 5.3 -3 7 C-3.33 5.68 -3.66 4.36 -4 3 C-2.68 2.01 -1.36 1.02 0 0 Z " fill="#171717" transform="translate(601,536)"/>
<path d="M0 0 C0.66 0.33 1.32 0.66 2 1 C1.67 1.66 1.34 2.32 1 3 C1.99 2.67 2.98 2.34 4 2 C4 3.32 4 4.64 4 6 C1.03 5.505 1.03 5.505 -2 5 C-1.34 3.35 -0.68 1.7 0 0 Z " fill="#F1F1F1" transform="translate(619,519)"/>
<path d="M0 0 C0.66 0.66 1.32 1.32 2 2 C0.35 3.65 -1.3 5.3 -3 7 C-3.66 6.01 -4.32 5.02 -5 4 C-3.68 4 -2.36 4 -1 4 C-0.67 2.68 -0.34 1.36 0 0 Z " fill="#E3E3E3" transform="translate(262,489)"/>
<path d="M0 0 C0.99 0 1.98 0 3 0 C3.33 1.65 3.66 3.3 4 5 C1 5 1 5 -2 4 C-1.34 2.68 -0.68 1.36 0 0 Z " fill="#E2E0E1" transform="translate(84,447)"/>
<path d="M0 0 C0.99 0.99 1.98 1.98 3 3 C2.01 3.99 1.02 4.98 0 6 C-0.99 5.67 -1.98 5.34 -3 5 C-2.01 3.35 -1.02 1.7 0 0 Z " fill="#141414" transform="translate(244,441)"/>
<path d="M0 0 C0.99 0.33 1.98 0.66 3 1 C1.768606 3.46278801 0.21935077 4.42497687 -2 6 C-2.33 5.01 -2.66 4.02 -3 3 C-2.01 2.01 -1.02 1.02 0 0 Z " fill="#0C0C0C" transform="translate(507,432)"/>
<path d="M0 0 C2.475 0.495 2.475 0.495 5 1 C5 1.99 5 2.98 5 4 C4.01 4 3.02 4 2 4 C1.34 2.68 0.68 1.36 0 0 Z " fill="#EAEAEA" transform="translate(474,233)"/>
<path d="M0 0 C0.99 0.33 1.98 0.66 3 1 C2.67 2.65 2.34 4.3 2 6 C0.68 5.34 -0.64 4.68 -2 4 C-2 3.34 -2 2.68 -2 2 C-1.34 2 -0.68 2 0 2 C0 1.34 0 0.68 0 0 Z " fill="#F2F2F2" transform="translate(516,186)"/>
<path d="M0 0 C0.99 0.66 1.98 1.32 3 2 C2.34 3.32 1.68 4.64 1 6 C0.01 5.01 -0.98 4.02 -2 3 C-1.34 2.01 -0.68 1.02 0 0 Z " fill="#141414" transform="translate(305,168)"/>
<path d="M0 0 C2.64 0.33 5.28 0.66 8 1 C5 3 5 3 2.875 2.75 C1 2 1 2 0 0 Z M1 3 C1.33 3.66 1.66 4.32 2 5 C1.34 4.67 0.68 4.34 0 4 C0.33 3.67 0.66 3.34 1 3 Z " fill="#272727" transform="translate(424,41)"/>
</svg>
