<?xml version="1.0" standalone="no"?>
<!DOCTYPE svg PUBLIC "-//W3C//DTD SVG 20010904//EN"
 "http://www.w3.org/TR/2001/REC-SVG-20010904/DTD/svg10.dtd">
<svg version="1.0" xmlns="http://www.w3.org/2000/svg"
 width="920.000000pt" height="656.000000pt" viewBox="0 0 920.000000 656.000000"
 preserveAspectRatio="xMidYMid meet">

<g transform="translate(0.000000,656.000000) scale(0.100000,-0.100000)"
fill="#000000" stroke="none">
<path d="M4445 6203 c-880 -75 -1586 -428 -2134 -1066 -400 -466 -631 -1037
-694 -1718 -56 -592 110 -1278 434 -1797 340 -547 845 -975 1424 -1207 773
-311 1645 -296 2395 39 363 163 741 439 997 729 512 581 775 1260 776 2007 1
746 -266 1452 -756 2001 -529 593 -1186 921 -2008 1004 -137 14 -329 17 -434
8z m563 -363 c590 -86 1095 -340 1512 -759 448 -451 692 -958 765 -1586 41
-358 10 -719 -92 -1054 -187 -621 -555 -1116 -1088 -1467 -365 -240 -698 -363
-1155 -425 -149 -21 -568 -18 -710 4 -776 122 -1440 546 -1859 1187 -293 449
-432 924 -432 1480 0 424 81 767 272 1150 142 283 278 478 478 683 241 248
504 432 831 581 437 201 989 278 1478 206z"/>
<path d="M4145 3848 c-380 -245 -577 -370 -580 -366 -2 2 -15 29 -29 62 -55
125 -156 235 -266 291 -123 62 -245 76 -597 68 l-263 -6 0 -624 0 -623 178 -2
c354 -5 454 -2 535 16 185 42 318 148 405 325 l49 100 387 -260 c236 -159 391
-257 399 -253 6 4 143 91 302 194 330 212 439 280 448 280 4 0 7 -90 7 -200
l0 -200 425 0 425 0 0 198 0 197 -162 -1 c-90 -1 -180 1 -200 3 l-38 5 0 424
0 424 -225 0 -225 0 0 -212 0 -213 -276 -175 c-151 -96 -292 -184 -313 -196
l-37 -23 -47 30 c-26 16 -47 32 -46 37 0 5 519 348 578 382 7 4 11 12 7 18 -9
14 -238 165 -251 165 -5 0 -146 -86 -312 -192 l-302 -192 -51 34 -51 34 301
193 c165 106 300 196 300 199 0 5 -176 127 -250 173 -24 15 -30 13 -225 -114z
m-1124 -348 c94 -26 149 -102 151 -207 1 -109 -41 -191 -118 -225 -31 -13 -70
-20 -131 -21 l-88 -2 -3 233 -2 232 77 0 c43 0 94 -5 114 -10z"/>
<path d="M6090 3275 l0 -625 425 0 425 0 0 198 0 197 -200 -1 -200 -1 0 428 0
429 -225 0 -225 0 0 -625z"/>
</g>
</svg>
