<?xml version="1.0" standalone="no"?>
<!DOCTYPE svg PUBLIC "-//W3C//DTD SVG 20010904//EN"
 "http://www.w3.org/TR/2001/REC-SVG-20010904/DTD/svg10.dtd">
<svg version="1.0" xmlns="http://www.w3.org/2000/svg"
 width="1024.000000pt" height="1024.000000pt" viewBox="0 0 1024.000000 1024.000000"
 preserveAspectRatio="xMidYMid meet">

<g transform="translate(0.000000,1024.000000) scale(0.100000,-0.100000)"
fill="#000000" stroke="none">
<path d="M5193 7362 c-22 -62 -35 -84 -53 -89 -15 -4 -20 -14 -20 -38 0 -18
-3 -46 -6 -62 -5 -25 3 -38 70 -111 77 -84 84 -98 65 -133 -9 -19 -19 -20
-102 -17 l-92 3 -3 -41 -3 -41 -75 -5 c-72 -5 -121 -25 -131 -54 -2 -5 106 -8
279 -6 l282 4 98 -104 98 -103 -6 45 c-10 79 -33 145 -58 169 -13 13 -29 20
-35 16 -6 -3 -11 -2 -11 3 0 16 -50 32 -100 32 -42 0 -50 3 -50 19 0 10 -7 21
-15 25 -22 8 -54 66 -47 85 3 8 26 44 50 78 l44 63 117 0 118 0 42 -71 c22
-40 41 -76 41 -80 0 -5 20 -9 45 -9 36 0 47 -4 61 -25 9 -14 26 -25 38 -25 53
0 84 -67 49 -107 -28 -32 -56 -36 -86 -12 -29 22 -37 75 -16 96 8 8 5 17 -10
32 -26 26 -51 27 -84 1 l-25 -20 32 -65 c29 -60 33 -64 58 -59 39 8 43 -12 8
-46 l-31 -30 228 0 228 0 98 98 c67 68 97 104 97 121 0 18 4 22 20 18 15 -4
20 0 20 15 0 11 5 16 10 13 11 -7 40 12 40 26 0 8 -83 69 -93 69 -3 0 -15 -16
-27 -35 l-22 -36 -71 3 c-58 3 -72 6 -81 23 -5 11 -18 32 -28 47 -23 35 -23
54 2 85 l20 26 -42 20 c-153 69 -216 87 -308 87 -49 0 -90 -4 -90 -9 0 -19
-32 -41 -60 -41 -16 0 -36 7 -44 16 -18 17 -22 79 -6 89 6 3 10 10 10 14 0 10
-214 38 -343 45 -77 4 -89 3 -94 -12z"/>
<path d="M5060 7336 c0 -36 12 -46 55 -46 26 0 45 25 45 59 0 18 -6 21 -50 21
l-50 0 0 -34z"/>
<path d="M4920 7354 c-8 -2 -68 -13 -132 -25 -113 -20 -116 -22 -108 -43 8
-22 -3 -54 -24 -68 -20 -14 -50 -8 -85 17 -31 21 -41 23 -77 15 -22 -5 -69
-23 -105 -39 l-64 -30 50 1 49 1 119 -123 118 -123 137 8 c137 9 221 10 277 4
17 -1 58 -2 93 -1 49 2 63 5 60 16 -3 16 -126 146 -137 146 -4 0 -14 -13 -24
-29 -13 -22 -15 -35 -7 -55 15 -42 -6 -40 -41 4 l-32 40 -88 0 c-81 0 -90 -2
-113 -25 -31 -31 -70 -32 -90 -3 -21 30 -20 50 5 82 26 33 53 33 85 1 23 -23
32 -25 118 -25 81 0 95 -3 111 -20 19 -21 19 -21 38 10 10 16 23 30 28 30 5 0
9 34 9 75 0 56 -3 75 -13 75 -22 0 -47 34 -47 63 0 26 -2 27 -47 26 -27 -1
-55 -3 -63 -5z"/>
<path d="M5719 7306 c8 -10 28 -16 50 -15 39 0 27 8 -33 23 -26 6 -28 5 -17
-8z"/>
<path d="M5644 7296 c-10 -26 1 -51 23 -54 17 -3 24 3 29 22 3 14 3 30 -1 35
-9 16 -45 13 -51 -3z"/>
<path d="M4612 7284 c-18 -13 -21 -19 -11 -30 25 -31 67 -6 53 31 -8 19 -14
19 -42 -1z"/>
<path d="M4218 7130 c-31 -16 -59 -34 -63 -40 -4 -6 31 -10 103 -10 l109 0
103 -112 c68 -73 99 -113 90 -116 -9 -3 -54 37 -110 96 l-95 100 -80 7 -80 6
-35 -48 c-30 -42 -41 -48 -75 -51 -22 -2 -49 -12 -61 -23 -18 -17 -27 -18 -61
-11 -46 11 -44 12 -192 -112 -112 -94 -233 -231 -327 -370 -65 -98 -74 -116
-65 -134 15 -28 14 -74 -2 -96 -8 -12 -26 -18 -49 -18 l-36 0 -52 -111 c-249
-530 -251 -1216 -6 -1757 94 -209 86 -263 86 549 0 393 2 716 4 718 2 2 74
-68 160 -155 121 -123 162 -159 177 -155 14 4 19 0 19 -13 0 -16 -2 -17 -10
-4 -5 8 -10 11 -10 6 0 -5 34 -44 75 -87 l75 -79 0 -369 0 -369 -67 -63 c-38
-35 -125 -123 -195 -194 l-126 -130 46 -63 46 -63 197 204 197 203 178 3 c169
2 180 3 202 24 13 12 78 79 143 148 111 118 119 129 110 153 -7 16 -7 27 -1
31 6 4 10 19 10 36 0 21 -5 29 -17 29 -15 0 -16 2 -3 10 12 8 13 11 1 19 -11
7 -11 9 0 13 9 3 13 26 12 81 0 83 -13 112 -45 101 -17 -5 -19 -2 -14 14 5 16
-13 41 -85 116 -50 53 -97 96 -104 96 -7 0 -15 9 -18 20 -5 18 -39 30 -36 13
3 -19 -2 -33 -11 -33 -6 0 -9 3 -9 8 4 21 -3 32 -18 32 -15 0 -16 -2 -3 -10
13 -9 13 -11 0 -20 -11 -7 -16 -5 -18 10 -4 24 -39 27 -44 3 -3 -16 -4 -16
-20 0 -25 25 -58 22 -58 -5 0 -19 -2 -20 -10 -8 -6 9 -13 11 -17 5 -11 -14
-46 -16 -55 -2 -6 9 -11 8 -18 -3 -8 -12 -10 -10 -10 9 l0 24 -20 -23 -20 -23
0 25 c0 30 -53 83 -83 83 -17 0 -22 6 -21 24 1 18 -41 67 -170 200 l-171 176
456 3 c390 2 459 4 469 17 8 10 31 15 71 15 33 0 59 4 59 9 0 18 31 41 55 41
53 0 76 -74 33 -104 -32 -23 -55 -20 -80 9 -18 21 -31 25 -72 25 l-51 0 190
-190 c104 -104 198 -190 207 -190 11 0 18 -7 18 -18 0 -10 20 -38 45 -62 25
-24 45 -39 45 -32 0 7 5 12 11 12 6 0 9 -9 6 -19 -5 -21 56 -97 70 -88 4 3 7
-70 6 -162 l-2 -167 27 2 c15 1 35 3 45 3 15 1 17 14 16 139 0 75 -4 146 -9
157 -7 17 -9 17 -9 3 -1 -28 -21 -21 -21 8 0 21 3 24 21 19 16 -5 30 1 55 26
32 31 47 58 24 44 -5 -3 -10 2 -11 12 0 16 -1 16 -9 -2 -5 -12 -9 -15 -9 -6
-1 12 -4 12 -13 3 -19 -19 -28 -14 -28 13 0 25 14 33 25 15 3 -5 13 -6 21 -3
9 3 20 0 25 -8 7 -12 9 -12 9 0 0 8 6 11 17 7 23 -9 445 418 436 441 -3 8 11
48 32 89 l39 75 85 -3 c83 -3 86 -4 99 -31 12 -24 16 -26 35 -16 12 7 50 38
84 71 l62 59 68 -3 c58 -3 69 0 78 16 35 67 130 27 112 -47 -7 -27 -50 -50
-78 -42 -11 4 -24 16 -30 27 -10 19 -18 20 -80 16 -68 -5 -70 -6 -120 -57 -29
-30 -63 -54 -80 -58 -25 -5 -28 -9 -23 -27 4 -11 7 -22 8 -23 1 -1 159 -3 351
-4 193 -2 354 -5 359 -7 4 -3 -27 -40 -70 -83 l-78 -79 20 -27 21 -28 224 -2
224 -3 95 105 95 105 78 0 c92 0 89 -7 52 140 -39 153 -37 150 -89 150 -36 0
-47 -5 -60 -25 -20 -31 -67 -34 -96 -5 -25 25 -25 51 -2 78 29 34 58 37 87 8
19 -19 36 -26 65 -26 22 0 40 1 40 3 0 8 -74 186 -93 222 -22 44 -164 284
-178 301 -6 8 -25 8 -61 2 -73 -14 -92 -6 -111 44 -16 46 -19 80 -5 72 4 -3 8
0 8 5 0 20 3 26 19 38 14 11 14 13 -6 19 -13 3 -23 11 -23 16 0 5 6 6 13 2 8
-5 8 -2 -2 9 -15 18 -26 23 -16 7 3 -5 1 -10 -5 -10 -6 0 -8 -6 -5 -12 4 -7
-2 -3 -13 9 -11 12 -23 19 -28 15 -5 -4 -1 2 8 13 12 15 14 25 7 38 -8 14 -24
17 -84 17 -67 0 -77 -3 -100 -26 -18 -18 -24 -31 -19 -43 12 -26 8 -71 -7 -86
-29 -28 -66 -29 -93 -1 -15 14 -26 34 -26 46 0 28 43 70 73 70 14 0 32 11 45
30 13 17 29 30 37 30 8 0 23 10 35 22 16 17 20 18 20 6 0 -9 7 -19 16 -22 18
-7 54 -8 54 -1 0 7 -95 94 -137 126 l-38 28 -153 -152 -152 -152 -230 3 c-262
3 -243 10 -215 -86 l16 -52 105 0 c101 0 107 1 126 25 37 48 111 21 111 -41 0
-31 -18 -50 -55 -59 -21 -6 -32 -1 -51 19 -23 24 -30 26 -113 26 l-89 -1 24
-19 c14 -12 38 -20 62 -20 21 0 41 -5 44 -10 4 -6 3 -35 0 -65 l-7 -55 -40 0
c-48 0 -89 -20 -112 -55 -15 -23 -46 -152 -46 -191 0 -11 24 -14 125 -14 l124
0 38 45 37 45 142 0 142 0 65 -67 c36 -38 62 -72 58 -76 -14 -14 -43 7 -89 62
l-43 51 -128 0 -127 0 -39 -40 -39 -40 -138 0 -137 0 -11 -38 c-17 -65 -65
-121 -128 -150 -46 -21 -72 -26 -142 -26 l-85 -1 -3 56 -3 57 81 4 c78 3 83 5
111 36 40 44 37 57 -11 56 -26 -1 -45 -8 -57 -22 -30 -34 -59 -37 -88 -7 -30
29 -27 58 7 88 27 23 41 22 76 -8 21 -18 42 -25 70 -25 40 0 41 1 48 38 25
149 47 206 97 259 l30 32 -24 19 c-13 11 -42 46 -64 78 -22 33 -82 105 -133
162 l-94 102 -288 0 -287 0 -7 -31 c-3 -17 -6 -42 -6 -55 l0 -24 243 0 242 0
98 -100 c54 -55 104 -100 110 -100 30 0 57 -31 57 -65 0 -24 -7 -39 -22 -49
-62 -44 -121 14 -94 92 7 20 -4 35 -76 107 l-83 84 -214 5 c-118 2 -227 2
-242 -1 -22 -4 -29 -13 -39 -50 -15 -62 -42 -112 -79 -147 l-30 -29 24 -19
c51 -40 82 -117 100 -248 12 -81 28 -120 62 -150 31 -28 40 -30 108 -30 73 0
75 -1 75 -25 0 -24 3 -25 55 -25 l55 0 75 -77 c74 -77 74 -79 75 -132 0 -44 4
-58 25 -77 30 -28 32 -67 5 -94 -25 -25 -41 -25 -74 1 -31 25 -33 47 -6 82 15
19 20 40 20 84 -1 58 -1 58 -65 126 -63 65 -66 67 -114 67 -44 0 -50 -3 -53
-22 -3 -21 -9 -23 -70 -26 -45 -2 -84 3 -125 17 -45 14 -101 21 -246 26 l-187
7 -21 -26 c-24 -30 -59 -34 -82 -8 -23 25 -21 58 3 82 26 26 46 25 76 -5 25
-25 27 -25 189 -25 l164 0 -29 48 c-20 32 -36 80 -50 152 -26 135 -35 162 -64
189 l-24 22 -22 -30 c-20 -29 -25 -31 -85 -31 l-64 0 -40 -74 c-23 -40 -47
-79 -55 -85 -9 -8 -48 -11 -111 -9 l-97 3 -46 80 c-25 44 -50 83 -56 87 -6 4
-66 8 -134 8 l-123 0 -49 -48 c-50 -49 -50 -49 -50 -113 0 -53 3 -66 20 -77
11 -7 20 -16 20 -22 0 -5 -11 1 -25 14 -22 21 -25 31 -25 96 l0 72 47 42 47
41 135 5 136 5 50 87 50 88 110 0 110 0 49 -90 48 -91 50 2 c56 3 111 35 86
50 -7 5 -30 9 -50 9 l-38 0 0 66 0 67 94 96 c85 87 95 101 101 144 l7 47 -31
0 c-20 0 -40 9 -54 23 -21 21 -31 23 -173 26 l-150 3 -17 -26 c-22 -34 -69
-36 -91 -4 -21 30 -20 54 4 78 27 27 56 25 84 -5 23 -25 26 -25 173 -25 137 0
151 2 168 20 23 25 79 27 97 2 12 -16 18 -12 69 40 l55 58 -85 0 -86 1 -110
119 -110 120 -70 -1 c-57 0 -80 -5 -127 -29z m-442 -465 l16 -25 247 0 248 0
23 25 c27 29 56 32 82 8 27 -24 23 -68 -8 -92 -35 -27 -41 -27 -74 9 l-28 30
-246 0 c-232 0 -246 -1 -256 -19 -25 -48 -100 -27 -100 29 0 58 65 82 96 35z
m2901 -173 c14 -18 10 -66 -7 -88 -6 -6 -23 -15 -38 -19 -15 -3 -55 -34 -89
-67 l-62 -61 -261 7 c-228 7 -264 5 -285 -8 -20 -13 -23 -21 -18 -51 11 -71
-68 -103 -122 -49 -25 25 -25 26 -8 54 20 34 55 55 79 46 11 -4 25 1 39 14 20
19 34 20 298 20 l276 1 46 53 c42 50 45 56 34 80 -31 68 71 127 118 68z
m-1531 -70 c6 -4 32 -45 58 -92 l48 -85 -28 -53 c-15 -29 -40 -71 -56 -93
l-29 -40 -102 3 -101 3 -50 90 -49 89 43 81 c24 44 47 86 53 93 10 13 194 17
213 4z m1909 -172 l26 -41 -31 -43 c-20 -29 -36 -43 -47 -41 -10 2 -31 4 -46
4 -17 1 -30 8 -34 19 -3 9 -13 25 -21 34 -13 15 -12 22 7 63 21 45 22 45 71
45 47 0 51 -2 75 -40z m-350 -221 l36 -62 -28 -54 c-30 -60 -51 -73 -116 -73
-53 0 -57 3 -95 74 l-32 59 36 58 35 59 64 0 64 0 36 -61z m-3145 -95 c0 -8
-5 -12 -10 -9 -6 4 -8 11 -5 16 9 14 15 11 15 -7z m141 -17 c-10 -9 -11 -8 -5
6 3 10 9 15 12 12 3 -3 0 -11 -7 -18z m-21 -37 c-6 -11 -13 -20 -16 -20 -2 0
0 9 6 20 6 11 13 20 16 20 2 0 0 -9 -6 -20z m-69 -18 c-7 -2 -18 1 -23 6 -8 8
-4 9 13 5 13 -4 18 -8 10 -11z m3266 -21 c6 -1 15 -11 19 -23 3 -13 13 -30 20
-39 13 -14 11 -21 -12 -58 -26 -38 -31 -41 -73 -41 -44 0 -47 2 -69 43 l-23
44 23 36 c22 34 49 46 88 41 8 -2 20 -3 27 -3z m-3354 -28 c-7 -2 -19 -2 -25
0 -7 3 -2 5 12 5 14 0 19 -2 13 -5z m1577 -201 l26 -48 -25 -47 -24 -47 -58 0
-59 0 -25 50 -25 50 22 45 23 44 60 1 60 0 25 -48z m-1910 -352 c0 -16 -4 -30
-9 -30 -4 0 -8 13 -7 30 1 39 16 39 16 0z m60 9 c0 -13 -4 -18 -12 -13 -8 5
-9 2 -5 -9 3 -10 2 -17 -3 -17 -6 0 -10 14 -10 30 0 20 5 30 15 30 8 0 15 -9
15 -21z m55 -6 c2 -28 -32 -39 -40 -12 -4 10 -3 24 0 29 11 18 38 6 40 -17z
m435 16 c0 -5 -4 -7 -10 -4 -5 3 -10 1 -10 -4 0 -6 5 -11 10 -11 6 0 10 -4 10
-10 0 -12 -10 -13 -29 -1 -8 5 -11 16 -8 25 7 18 37 22 37 5z m1167 -31 c-3
-7 -5 -2 -5 12 0 14 2 19 5 13 2 -7 2 -19 0 -25z m53 28 c0 -3 -4 -8 -10 -11
-5 -3 -10 -1 -10 4 0 6 5 11 10 11 6 0 10 -2 10 -4z m97 -18 c-1 -21 -21 -19
-25 4 -2 8 4 15 12 15 8 0 14 -9 13 -19z m53 7 c0 -8 6 -15 13 -16 6 0 3 -4
-8 -8 -12 -5 -24 -3 -32 5 -15 15 -17 28 -3 19 6 -3 10 -1 10 4 0 6 5 11 10
11 6 0 10 -7 10 -15z m60 4 c0 -5 -4 -7 -10 -4 -5 3 -10 1 -10 -4 0 -6 5 -11
12 -11 6 0 8 -3 5 -6 -9 -9 -38 16 -31 27 7 13 34 11 34 -2z m-205 -19 c-3 -5
-12 -10 -18 -10 -7 0 -6 4 3 10 19 12 23 12 15 0z m-1838 -97 c-3 -10 -5 -2
-5 17 0 19 2 27 5 18 2 -10 2 -26 0 -35z m1925 17 c3 -17 1 -33 -4 -36 -4 -3
-8 11 -8 30 0 44 6 47 12 6z m-1868 11 c3 -4 17 -6 31 -3 20 3 25 0 25 -17 0
-14 -6 -21 -20 -21 -11 0 -20 6 -21 13 0 10 -2 10 -6 0 -5 -15 -29 -17 -37 -4
-7 11 3 41 14 41 5 0 11 -4 14 -9z m686 -12 c0 -6 -4 -7 -10 -4 -6 3 -7 -1 -4
-9 3 -9 1 -16 -5 -16 -6 0 -11 6 -11 13 0 8 -3 8 -9 -2 -11 -18 -41 -7 -41 15
0 12 7 15 25 12 14 -3 28 -1 31 4 6 10 24 1 24 -13z m1115 11 c11 18 25 11 25
-15 0 -16 -6 -25 -15 -25 -8 0 -15 5 -15 11 0 6 -7 3 -16 -5 -8 -9 -20 -13
-26 -10 -7 4 -6 9 1 14 7 4 11 11 10 16 -4 20 2 26 15 15 10 -8 16 -9 21 -1z
m-1696 -42 c1 -5 -3 -8 -9 -8 -5 0 -10 12 -9 28 0 24 1 25 9 7 5 -11 9 -23 9
-27z m961 -93 c0 -13 -4 -27 -10 -30 -6 -4 -10 8 -10 30 0 22 4 34 10 30 6 -3
10 -17 10 -30z m-400 15 c0 -5 -4 -10 -10 -10 -5 0 -10 5 -10 10 0 6 5 10 10
10 6 0 10 -4 10 -10z m139 -12 c-1 -18 -2 -19 -6 -5 -2 9 -9 15 -14 12 -5 -4
-9 -1 -9 4 0 6 7 11 15 11 9 0 15 -9 14 -22z m44 2 c3 -12 0 -20 -7 -20 -6 0
-12 9 -12 20 0 11 3 20 7 20 4 0 9 -9 12 -20z m67 9 c0 -8 4 -8 13 -1 14 12
67 13 67 2 0 -5 3 -17 7 -27 6 -17 6 -17 -14 0 -19 16 -21 17 -27 1 -5 -12
-10 -14 -19 -5 -10 8 -17 7 -25 -1 -7 -7 -12 -10 -13 -7 -5 28 -4 49 3 49 4 0
8 -5 8 -11z m200 -26 c0 -7 -4 -13 -9 -13 -10 0 -21 36 -13 45 7 7 22 -15 22
-32z m53 17 c3 -11 4 -20 2 -20 -2 0 -10 -3 -19 -6 -11 -4 -16 0 -16 13 0 36
24 45 33 13z m47 -22 c0 -4 -7 -8 -15 -8 -8 0 -15 4 -15 9 0 5 -3 18 -7 28 -6
17 -5 17 15 -1 12 -11 22 -23 22 -28z m-200 -78 c0 -22 -4 -28 -15 -24 -15 6
-20 35 -8 47 14 15 23 6 23 -23z m93 -21 c-4 -4 -9 6 -10 24 -1 30 -1 31 8 8
5 -14 6 -28 2 -32z m164 16 c2 -16 -1 -25 -10 -25 -11 0 -16 35 -8 59 3 11 15
-12 18 -34z m-1222 15 c3 -5 1 -10 -4 -10 -6 0 -11 5 -11 10 0 6 2 10 4 10 3
0 8 -4 11 -10z m688 3 c-7 -2 -13 -11 -13 -19 0 -9 5 -12 10 -9 6 3 10 1 10
-4 0 -6 -7 -11 -15 -11 -9 0 -15 9 -15 25 0 17 5 25 18 24 10 0 12 -3 5 -6z
m53 -5 c4 -6 2 -14 -4 -16 -7 -2 -10 -8 -6 -13 3 -5 1 -9 -4 -9 -6 0 -13 7
-16 16 -11 28 15 47 30 22z m29 2 c-3 -5 0 -10 7 -11 10 0 10 -2 0 -6 -6 -2
-10 -9 -6 -14 3 -5 0 -9 -5 -9 -6 0 -11 11 -11 25 0 14 5 25 11 25 5 0 7 -4 4
-10z m40 -15 c0 -14 -3 -25 -7 -25 -5 0 -8 11 -8 25 0 14 3 25 8 25 4 0 7 -11
7 -25z m63 -3 c3 -17 -2 -22 -17 -22 -23 0 -28 14 -10 26 8 4 7 9 -2 16 -11 7
-9 8 6 6 12 -2 21 -12 23 -26z m42 12 c0 -8 -4 -12 -10 -9 -5 3 -10 2 -10 -4
0 -5 6 -12 13 -14 7 -3 5 -6 -5 -6 -13 -1 -18 7 -18 24 0 16 6 25 15 25 8 0
15 -7 15 -16z m189 -26 c1 -5 -3 -8 -9 -8 -5 0 -10 12 -9 28 0 24 1 25 9 7 5
-11 9 -23 9 -27z m58 29 c0 -7 -6 -18 -14 -25 -14 -14 -17 -4 -7 22 7 19 21
21 21 3z m-1109 -22 c-1 -14 -6 -25 -10 -25 -4 0 -8 11 -8 25 0 14 4 25 10 25
5 0 9 -11 8 -25z m1752 -111 c0 -8 -8 -14 -17 -14 -14 0 -15 2 -4 9 8 5 10 14
6 21 -5 9 -4 11 3 6 7 -4 12 -14 12 -22z m30 -4 c0 -5 -4 -10 -10 -10 -5 0
-10 5 -10 10 0 6 5 10 10 10 6 0 10 -4 10 -10z m-740 -100 c0 -16 -4 -30 -10
-30 -11 0 -14 43 -3 53 11 12 13 8 13 -23z m-243 -12 c-3 -7 -5 -2 -5 12 0 14
2 19 5 13 2 -7 2 -19 0 -25z m377 13 c3 -5 -1 -11 -9 -14 -9 -4 -12 -1 -8 9 6
16 10 17 17 5z m41 -1 c3 -5 1 -10 -4 -10 -6 0 -11 5 -11 10 0 6 2 10 4 10 3
0 8 -4 11 -10z m-130 -20 c3 -5 1 -10 -4 -10 -6 0 -11 5 -11 10 0 6 2 10 4 10
3 0 8 -4 11 -10z m40 -8 c-3 -3 -11 0 -18 7 -9 10 -8 11 6 5 10 -3 15 -9 12
-12z m18 -87 c-3 -9 -8 -14 -10 -11 -3 3 -2 9 2 15 9 16 15 13 8 -4z"/>
<path d="M3707 6663 c-12 -11 -7 -50 7 -62 19 -16 56 2 56 27 0 32 -43 56 -63
35z"/>
<path d="M4327 6654 c-23 -23 7 -69 37 -58 25 10 17 58 -9 62 -12 2 -24 0 -28
-4z"/>
<path d="M6597 6473 c-13 -13 -7 -51 9 -57 21 -8 44 11 44 35 0 13 -5 17 -17
12 -11 -4 -14 -3 -9 5 8 13 -16 17 -27 5z"/>
<path d="M5827 6212 c-21 -23 -5 -52 28 -52 26 0 27 1 29 39 1 30 -34 38 -57
13z"/>
<path d="M4912 6327 c-23 -40 -42 -78 -42 -84 0 -6 19 -43 41 -82 l42 -72 91
3 91 3 43 72 43 72 -22 43 c-12 24 -33 60 -46 81 l-23 37 -88 0 -88 0 -42 -73z"/>
<path d="M6950 6242 c-30 -24 -21 -68 16 -83 46 -17 87 35 59 77 -19 29 -44
31 -75 6z"/>
<path d="M6797 5802 c-20 -22 -22 -63 -5 -80 21 -21 66 -14 83 12 15 22 15 27
0 55 -18 36 -53 41 -78 13z"/>
<path d="M6176 7109 c-13 -19 -12 -25 4 -62 19 -42 19 -42 79 -45 58 -3 61 -2
75 27 17 33 15 36 -71 80 -53 26 -68 26 -87 0z"/>
<path d="M4714 7106 c-11 -29 0 -51 26 -51 21 0 25 5 25 30 0 24 -5 31 -23 33
-13 2 -24 -3 -28 -12z"/>
<path d="M4039 7019 c-41 -28 -81 -57 -89 -65 -12 -12 -10 -14 18 -14 25 0 33
5 38 25 6 23 11 25 58 25 47 0 55 3 75 31 19 25 21 33 10 40 -23 15 -33 11
-110 -42z"/>
<path d="M5343 7010 c-41 -59 -42 -60 -23 -82 l19 -23 1 22 c0 29 33 38 112
29 70 -8 151 -36 180 -63 16 -15 21 -15 28 -3 16 25 11 42 -25 100 -19 30 -35
60 -35 67 0 10 -26 13 -108 13 l-108 0 -41 -60z"/>
<path d="M5807 6843 c-15 -14 -6 -25 10 -12 15 12 16 12 10 -4 -4 -10 -7 -21
-7 -23 0 -3 -5 -2 -12 2 -7 4 -8 3 -4 -5 6 -9 14 -6 30 11 12 13 21 26 19 31
-5 9 -37 9 -46 0z"/>
<path d="M4182 6818 c-17 -17 -15 -58 3 -64 20 -8 45 13 45 37 0 24 -33 42
-48 27z"/>
<path d="M4612 6808 c-28 -28 6 -78 44 -64 28 11 10 76 -21 76 -6 0 -16 -5
-23 -12z"/>
<path d="M6453 6693 c-7 -2 -13 -18 -13 -34 0 -26 4 -29 30 -29 26 0 30 3 30
29 0 17 -6 31 -16 35 -9 3 -16 6 -17 5 -1 0 -8 -3 -14 -6z"/>
<path d="M6817 6607 c-32 -50 -15 -97 36 -97 18 0 38 4 46 9 16 10 9 24 -41
85 l-24 28 -17 -25z"/>
<path d="M4596 6541 c-42 -42 -47 -52 -37 -65 19 -23 45 -5 71 49 32 66 21 72
-34 16z"/>
<path d="M6027 6524 c-13 -13 -7 -55 8 -60 21 -9 47 15 43 40 -3 21 -37 34
-51 20z"/>
<path d="M4504 6455 c-18 -14 -18 -14 9 -15 15 0 27 4 27 9 0 18 -17 20 -36 6z"/>
<path d="M5472 6387 c-6 -7 -9 -23 -5 -36 4 -17 12 -21 32 -19 22 2 26 8 26
33 0 23 -5 31 -21 33 -11 2 -26 -3 -32 -11z"/>
<path d="M3326 6261 l-27 -51 30 0 c45 0 66 46 38 84 -12 16 -16 13 -41 -33z"/>
<path d="M5394 6056 c-11 -28 1 -51 25 -51 32 0 49 28 32 49 -17 20 -50 21
-57 2z"/>
<path d="M7051 5966 c-17 -20 -4 -56 18 -56 28 0 47 28 34 48 -14 23 -37 26
-52 8z"/>
<path d="M4330 5895 c-20 -24 -4 -65 25 -65 18 0 26 7 31 25 7 27 -9 55 -31
55 -7 0 -18 -7 -25 -15z"/>
<path d="M6219 5864 c-16 -20 -1 -48 29 -52 25 -4 39 32 22 53 -16 19 -34 19
-51 -1z"/>
<path d="M4546 5689 c-19 -28 -4 -62 26 -57 29 4 46 33 32 56 -16 25 -40 26
-58 1z"/>
<path d="M7067 5505 l-98 -105 -232 0 -231 0 -34 33 -34 32 -134 -139 c-74
-76 -134 -142 -134 -147 0 -5 62 -9 138 -9 l137 0 80 85 81 85 197 0 c125 0
197 4 197 10 0 20 41 50 68 50 22 0 40 15 91 75 l63 76 47 -3 c45 -3 46 -2 46
27 l0 30 -75 3 -75 3 -98 -106z"/>
<path d="M5271 5562 c-13 -24 4 -52 33 -52 28 0 40 24 26 51 -13 24 -46 25
-59 1z"/>
<path d="M7181 5452 c-55 -63 -60 -72 -55 -104 11 -64 -61 -103 -106 -58 -19
19 -33 20 -212 20 l-193 0 -78 -85 -78 -85 -85 0 c-80 0 -86 -2 -109 -27 -28
-32 -31 -55 -10 -73 8 -7 15 -10 15 -6 0 3 9 -2 19 -11 11 -9 18 -20 15 -25
-3 -5 -2 -7 3 -6 16 4 53 -14 48 -23 -3 -5 2 -6 11 -2 11 4 15 2 11 -4 -4 -6
3 -9 16 -8 34 4 92 -26 130 -66 18 -19 41 -40 52 -47 11 -7 14 -10 8 -7 -7 3
-13 4 -13 1 0 -7 114 -71 123 -68 4 1 7 -3 7 -10 0 -6 3 -9 6 -5 3 3 22 -3 42
-13 19 -11 39 -17 44 -14 4 3 8 -2 8 -10 0 -8 8 -17 18 -21 30 -9 84 -82 80
-108 -3 -22 -28 -34 -125 -57 -45 -11 -64 -40 -43 -64 6 -8 9 -18 8 -22 -4
-11 62 -104 74 -104 14 0 37 -68 31 -92 -15 -56 -65 -98 -118 -98 -39 0 -59
14 -98 68 -30 42 -41 50 -78 57 -94 16 -95 16 -129 -31 -47 -65 -83 -55 -110
31 -7 22 -17 46 -23 53 -5 6 -7 12 -3 12 4 0 0 10 -8 23 -8 12 -18 39 -21 60
-7 34 -30 60 -52 56 -35 -6 -53 3 -53 25 0 23 3 24 35 19 36 -6 42 3 27 37 -7
15 -14 17 -92 22 -25 1 -48 7 -52 13 -14 18 -8 36 10 34 54 -5 72 1 72 25 0
25 -22 38 -70 40 -19 1 -24 6 -24 26 0 22 4 25 34 27 19 1 41 2 48 2 9 1 13
13 11 39 -4 53 -14 69 -51 77 -18 4 -39 12 -47 19 -8 6 -16 10 -18 9 -1 -2
-21 -3 -43 -3 -39 0 -40 1 -75 70 l-35 70 24 49 c14 27 23 58 20 72 -2 13 -2
18 2 11 6 -13 24 -7 24 9 0 5 -14 9 -31 9 -26 0 -29 -3 -24 -20 5 -16 2 -20
-15 -20 -17 0 -20 4 -15 20 5 17 2 20 -23 20 -24 0 -46 -18 -122 -96 -66 -68
-89 -98 -80 -104 7 -4 10 -15 7 -23 -3 -8 0 -20 6 -27 10 -10 2 -11 -35 -7
-66 6 -78 -9 -78 -105 l0 -75 33 1 c26 1 33 -3 35 -21 2 -13 -1 -23 -7 -23 -6
0 -8 8 -5 18 5 16 4 16 -8 1 -7 -9 -22 -18 -33 -20 -17 -4 -20 -13 -21 -76
l-1 -71 137 -144 137 -143 178 1 179 2 64 -61 c35 -34 62 -55 60 -47 -2 8 -10
18 -18 21 -12 6 -12 8 4 14 23 10 38 -11 32 -45 -4 -21 18 -48 152 -182 l157
-158 -100 -1 c-146 -2 -380 -2 -623 0 l-213 1 -294 298 -294 297 -1 148 c0
110 -3 147 -12 148 -7 1 -28 2 -45 4 l-33 3 -1 -137 c-1 -75 -4 -146 -7 -157
-4 -12 -136 -153 -294 -313 l-286 -291 -415 0 c-293 0 -418 -3 -423 -11 -18
-30 316 -322 489 -428 399 -244 889 -357 1348 -311 389 40 807 209 1103 448
60 48 67 57 50 63 -15 6 -12 8 13 8 63 2 328 292 452 494 139 227 255 553 298
832 18 122 23 388 10 528 l-9 87 -43 0 c-41 0 -46 -4 -104 -68z m-514 -250 c5
-4 19 -24 32 -44 l22 -37 -23 -40 c-22 -39 -25 -41 -73 -41 -49 1 -50 1 -73
46 l-23 45 23 32 c29 41 35 45 73 45 18 0 36 -3 42 -6z m-837 -52 c0 -5 -7
-10 -16 -10 -8 0 -12 5 -9 10 3 6 10 10 16 10 5 0 9 -4 9 -10z m1323 -92 c19
-25 19 -31 7 -69 -13 -37 -12 -43 3 -54 9 -6 14 -15 11 -18 -3 -3 -6 -35 -7
-71 -1 -36 -5 -66 -9 -66 -4 0 -8 -9 -8 -21 0 -11 -4 -17 -10 -14 -6 4 -10
-18 -10 -59 0 -46 4 -66 13 -67 10 0 10 -2 0 -6 -7 -2 -13 -13 -13 -24 0 -10
6 -19 13 -20 8 0 8 -2 -2 -6 -8 -4 -10 -8 -3 -12 12 -7 19 -112 9 -128 -4 -5
-23 -10 -44 -9 l-38 1 -3 195 c-1 112 -7 197 -12 200 -6 3 -11 39 -11 78 -1
40 -4 74 -8 76 -4 3 -8 23 -9 45 -2 30 3 46 18 61 30 30 86 24 113 -12z
m-1335 -106 c3 -26 0 -32 -16 -32 -16 0 -19 6 -16 33 1 17 3 34 3 35 1 2 7 2
14 0 6 -3 13 -19 15 -36z m63 31 c9 -56 7 -63 -12 -63 -16 0 -18 3 -9 19 5 11
7 27 4 35 -3 9 -1 16 5 16 6 0 12 -3 12 -7z m-185 -33 c1 -19 -4 -30 -12 -30
-9 0 -14 11 -14 30 0 40 25 40 26 0z m46 0 c3 -16 1 -30 -4 -30 -8 0 -9 2 -13
38 -3 33 12 27 17 -8z m-92 -223 c0 -14 -6 -24 -14 -24 -12 0 -13 5 -4 20 7
14 7 17 -1 13 -6 -4 -11 -2 -11 3 0 6 7 11 15 11 9 0 15 -9 15 -23z m47 -14
c-3 -10 -5 -4 -5 12 0 17 2 24 5 18 2 -7 2 -21 0 -30z m198 27 c10 16 25 2 25
-25 0 -22 -3 -23 -57 -20 -32 1 -68 3 -80 4 l-23 1 21 21 c14 14 29 19 45 16
14 -2 27 0 30 5 3 5 11 4 19 -2 9 -8 15 -8 20 0z m-145 -20 c0 -11 -7 -20 -15
-20 -8 0 -15 9 -15 20 0 11 7 20 15 20 8 0 15 -9 15 -20z m30 10 c0 -5 -4 -10
-10 -10 -5 0 -10 5 -10 10 0 6 5 10 10 10 6 0 10 -4 10 -10z m239 -17 c0 -16
-3 -22 -6 -15 -2 6 -9 10 -14 6 -5 -3 -9 0 -9 6 0 6 -4 8 -10 5 -6 -3 -7 1 -4
9 3 9 15 16 25 16 14 0 19 -7 18 -27z m-318 -116 c-8 -8 -11 -3 -11 19 1 25 2
27 11 11 8 -14 8 -22 0 -30z m52 30 c7 -20 -6 -37 -21 -28 -7 4 -10 15 -6 24
7 20 20 22 27 4z m55 -12 c-1 -14 -6 -25 -10 -25 -4 0 -8 11 -8 25 0 14 4 25
10 25 5 0 9 -11 8 -25z m47 -3 c-8 -8 -25 10 -19 20 4 6 9 5 15 -3 4 -7 6 -15
4 -17z m131 -7 c1 -14 -2 -25 -7 -25 -5 0 -9 14 -9 32 0 36 12 31 16 -7z
m-386 5 c6 -11 8 -20 6 -20 -3 0 -10 9 -16 20 -6 11 -8 20 -6 20 3 0 10 -9 16
-20z m417 -12 c-3 -7 -5 -2 -5 12 0 14 2 19 5 13 2 -7 2 -19 0 -25z m-60 0
c-3 -8 -6 -5 -6 6 -1 11 2 17 5 13 3 -3 4 -12 1 -19z m90 0 c-3 -8 -6 -5 -6 6
-1 11 2 17 5 13 3 -3 4 -12 1 -19z m-127 -88 c0 -16 -2 -30 -4 -30 -2 0 -6 14
-8 30 -3 17 -1 30 4 30 4 0 8 -13 8 -30z m-315 10 c3 -5 1 -10 -4 -10 -6 0
-11 5 -11 10 0 6 2 10 4 10 3 0 8 -4 11 -10z m35 -15 c0 -14 -4 -25 -10 -25
-5 0 -10 11 -10 25 0 14 5 25 10 25 6 0 10 -11 10 -25z m33 9 c-3 -9 0 -20 8
-25 11 -7 11 -9 -3 -9 -9 0 -20 5 -23 10 -9 14 1 40 14 40 6 0 8 -7 4 -16z
m197 -9 c0 -17 -5 -25 -17 -24 -11 0 -13 3 -5 6 6 2 12 12 12 20 0 10 -6 13
-16 9 -8 -3 -12 -2 -9 4 12 20 35 10 35 -15z m250 1 c0 -28 -14 -41 -32 -30
-7 4 -31 7 -55 5 -24 -1 -43 2 -43 7 0 6 -7 13 -16 16 -12 4 -15 2 -10 -9 3
-8 1 -15 -4 -15 -6 0 -10 9 -10 19 0 15 7 19 30 19 16 -1 27 -5 24 -9 -2 -4 0
-10 6 -14 5 -3 10 1 10 9 0 23 56 21 70 -1 10 -15 11 -15 6 -1 -5 17 1 28 16
28 4 0 8 -11 8 -24z m-270 -216 c0 -5 -2 -10 -4 -10 -3 0 -8 5 -11 10 -3 6 -1
10 4 10 6 0 11 -4 11 -10z m-1023 -122 c-3 -7 -5 -2 -5 12 0 14 2 19 5 13 2
-7 2 -19 0 -25z m1601 -4 c-2 -15 -13 -19 -46 -21 -39 -2 -42 0 -42 24 0 21 4
24 23 20 12 -4 29 -2 37 3 19 11 33 -2 28 -26z m51 20 c4 3 7 -5 6 -17 -1 -12
-9 -23 -19 -25 -13 -3 -16 2 -12 25 6 38 7 40 13 25 2 -6 8 -10 12 -8z m57 4
c5 -7 3 -8 -5 -4 -15 10 -11 -25 4 -36 6 -4 2 -8 -7 -8 -13 0 -18 8 -18 30 0
30 13 40 26 18z m-1669 -20 c-3 -8 -6 -5 -6 6 -1 11 2 17 5 13 3 -3 4 -12 1
-19z m47 7 c3 -8 1 -15 -4 -15 -6 0 -10 7 -10 15 0 8 2 15 4 15 2 0 6 -7 10
-15z m472 -327 c4 -7 3 -8 -4 -4 -7 4 -12 2 -12 -5 0 -7 -3 -10 -6 -6 -6 5 3
27 11 27 2 0 7 -5 11 -12z m-49 -24 c2 -13 1 -15 -4 -4 -3 8 -11 19 -17 23 -7
6 -6 7 4 4 8 -2 16 -12 17 -23z m110 9 c0 -14 -25 -26 -37 -18 -5 3 -7 11 -4
18 6 16 41 17 41 0z m-57 -19 c0 -8 -19 -13 -24 -6 -3 5 1 9 9 9 8 0 15 -2 15
-3z m-95 -103 c-6 -5 -25 10 -25 20 0 5 6 4 14 -3 8 -7 12 -15 11 -17z m452
-3 c-3 -7 -5 -2 -5 12 0 14 2 19 5 13 2 -7 2 -19 0 -25z m777 -86 c2 -4 -4 -8
-14 -8 -10 0 -16 4 -14 8 3 4 9 8 14 8 5 0 11 -4 14 -8z m-484 -6 c0 -2 -7 -7
-16 -10 -8 -3 -12 -2 -9 4 6 10 25 14 25 6z m140 0 c0 -3 -4 -8 -10 -11 -5 -3
-10 -1 -10 4 0 6 5 11 10 11 6 0 10 -2 10 -4z m58 -18 c10 -12 10 -18 1 -24
-7 -4 -9 -3 -5 4 3 6 2 13 -4 17 -5 3 -10 11 -10 17 0 6 1 9 3 7 1 -2 8 -11
15 -21z m366 7 c3 -8 1 -15 -4 -15 -6 0 -10 7 -10 15 0 8 2 15 4 15 2 0 6 -7
10 -15z m-531 -20 c-3 -9 -8 -14 -10 -11 -3 3 -2 9 2 15 9 16 15 13 8 -4z m67
-9 c-7 -7 -13 -7 -20 0 -6 6 -3 10 10 10 13 0 16 -4 10 -10z m57 -82 c2 -13 1
-15 -4 -4 -3 8 -11 19 -17 23 -7 6 -6 7 4 4 8 -2 16 -12 17 -23z"/>
<path d="M6580 5170 c-24 -24 -25 -41 -5 -80 12 -22 23 -30 43 -30 33 0 45 8
61 37 16 31 14 41 -14 68 -29 30 -58 32 -85 5z"/>
<path d="M6356 4171 c-4 -7 -5 -15 -2 -18 9 -9 19 4 14 18 -4 11 -6 11 -12 0z"/>
<path d="M6400 4165 c0 -8 5 -15 10 -15 6 0 10 7 10 15 0 8 -4 15 -10 15 -5 0
-10 -7 -10 -15z"/>
<path d="M7040 5355 c-17 -21 -8 -50 17 -53 28 -4 50 32 32 54 -15 18 -33 18
-49 -1z"/>
<path d="M6160 5125 c0 -10 6 -12 18 -8 14 6 15 4 4 -9 -10 -13 -9 -15 13 -11
13 3 30 11 36 19 9 11 7 14 -10 14 -15 0 -20 -4 -15 -12 4 -7 -2 -5 -13 5 -24
21 -33 22 -33 2z"/>
<path d="M5606 4945 c4 -8 8 -15 10 -15 2 0 4 7 4 15 0 8 -4 15 -10 15 -5 0
-7 -7 -4 -15z"/>
<path d="M6215 4920 c-4 -6 -10 -8 -15 -5 -17 10 23 -101 42 -117 11 -10 17
-18 13 -18 -3 0 1 -7 10 -16 9 -9 19 -14 22 -11 12 13 43 -15 43 -38 0 -20 -5
-25 -25 -25 -21 0 -25 -5 -25 -30 0 -20 5 -30 15 -30 8 0 15 -5 15 -11 0 -5 5
-7 12 -3 24 15 70 9 85 -11 12 -15 14 -16 10 -3 -9 27 10 31 27 6 13 -18 16
-19 16 -5 0 9 5 17 10 17 6 0 10 -9 10 -20 0 -22 -35 -28 -43 -7 -4 10 -6 10
-6 0 -1 -15 -51 -18 -51 -3 0 6 -4 10 -10 10 -5 0 -6 -7 -3 -17 4 -11 3 -14
-6 -9 -7 4 -23 5 -36 2 -21 -5 -23 -9 -14 -29 9 -20 18 -23 61 -24 29 0 53 -5
58 -12 5 -10 8 -9 13 1 4 11 16 13 49 9 40 -6 43 -8 41 -36 -2 -21 6 -40 27
-65 17 -19 30 -29 30 -22 0 7 7 12 15 12 20 0 19 24 -2 83 -17 47 -17 49 2 63
10 8 27 14 38 14 10 0 15 5 12 11 -11 17 -13 59 -3 59 5 0 -6 19 -26 41 -19
23 -33 45 -31 49 3 4 -3 7 -13 6 -9 0 -16 5 -14 12 1 8 -2 11 -8 7 -13 -8 -52
19 -42 30 4 5 1 5 -6 1 -7 -4 -23 -1 -35 7 -12 8 -41 18 -65 22 -24 4 -54 18
-71 34 -43 40 -98 81 -110 81 -5 0 -13 -5 -16 -10z"/>
<path d="M6341 4454 c0 -11 3 -14 6 -6 3 7 2 16 -1 19 -3 4 -6 -2 -5 -13z"/>
<path d="M6356 4445 c-15 -23 -15 -30 1 -90 l17 -65 27 43 c15 23 24 46 21 51
-3 5 0 6 5 3 19 -12 37 48 23 72 -8 14 -9 14 -10 1 0 -13 -1 -13 -10 0 -9 13
-11 13 -21 0 -8 -11 -12 -12 -16 -2 -7 18 -19 15 -37 -13z"/>
<path d="M6635 4400 c-3 -5 -13 -6 -22 -3 -14 5 -14 3 1 -19 9 -14 15 -30 14
-36 -4 -15 81 -132 96 -132 16 0 61 48 53 57 -4 3 -7 1 -7 -6 0 -7 -4 -10 -8
-7 -5 3 -19 -4 -30 -15 l-22 -20 2 25 c2 16 7 22 16 18 11 -4 13 1 7 19 -9 33
-41 75 -54 72 -6 -2 -11 2 -11 8 0 6 -8 8 -19 4 -20 -6 -23 8 -8 33 5 6 6 12
3 12 -3 0 -7 -4 -11 -10z m125 -154 c0 -2 -8 -10 -17 -17 -16 -13 -17 -12 -4
4 13 16 21 21 21 13z"/>
</g>
</svg>
