<?xml version="1.0" encoding="UTF-8"?>
<svg version="1.1" xmlns="http://www.w3.org/2000/svg" width="512" height="512">
<path d="M0 0 C1.01790619 0.00215515 2.03581238 0.0043103 3.08456421 0.00653076 C17.69363523 0.05620146 32.02575853 0.30709809 46.375 3.3125 C47.34985352 3.51117676 48.32470703 3.70985352 49.32910156 3.91455078 C97.7109774 14.03517194 141.69928269 35.9516877 177.375 70.3125 C178.3640332 71.26068604 178.3640332 71.26068604 179.37304688 72.22802734 C188.86130305 81.37247479 197.6012044 90.66984009 205.375 101.3125 C206.23306152 102.46355017 207.09113451 103.61459177 207.94921875 104.765625 C213.98736829 112.95680614 219.34595521 121.47054105 224.375 130.3125 C224.73948242 130.94430176 225.10396484 131.57610352 225.47949219 132.22705078 C247.08534998 169.97532572 256.85198095 212.74189997 256.6875 255.9375 C256.68534485 256.95540619 256.6831897 257.97331238 256.68096924 259.02206421 C256.63129854 273.63113523 256.38040191 287.96325853 253.375 302.3125 C253.07698486 303.77478027 253.07698486 303.77478027 252.77294922 305.26660156 C242.65232806 353.6484774 220.7358123 397.63678269 186.375 433.3125 C185.74287598 433.97185547 185.11075195 434.63121094 184.45947266 435.31054688 C175.31502521 444.79880305 166.01765991 453.5387044 155.375 461.3125 C154.22394983 462.17056152 153.07290823 463.02863451 151.921875 463.88671875 C143.73224019 469.92427396 135.22961724 475.30707302 126.375 480.3125 C125.66778809 480.7146875 124.96057617 481.116875 124.23193359 481.53125 C101.09654164 494.5566741 75.92537591 503.30551461 49.9375 508.625 C49.21860596 508.77235596 48.49971191 508.91971191 47.7590332 509.0715332 C33.08339502 511.86090125 18.55831162 512.66142619 3.64770508 512.62817383 C0.70811513 512.6250221 -2.2304558 512.64854926 -5.16992188 512.67382812 C-18.54306192 512.71848737 -31.43916711 511.51301542 -44.625 509.3125 C-46.33055054 509.03031616 -46.33055054 509.03031616 -48.07055664 508.74243164 C-91.33802759 500.97044532 -132.38793216 480.98345309 -165.625 452.3125 C-166.37007813 451.67828125 -167.11515625 451.0440625 -167.8828125 450.390625 C-181.38779833 438.57948485 -194.05918743 425.82889772 -204.625 411.3125 C-205.48149066 410.16255169 -206.33826433 409.01281411 -207.1953125 407.86328125 C-213.23534209 399.67315742 -218.61867614 391.16870382 -223.625 382.3125 C-224.0271875 381.60528809 -224.429375 380.89807617 -224.84375 380.16943359 C-237.8691741 357.03404164 -246.61801461 331.86287591 -251.9375 305.875 C-252.08485596 305.15610596 -252.23221191 304.43721191 -252.3840332 303.6965332 C-255.35789088 288.05024391 -255.99800362 272.57681954 -255.9375 256.6875 C-255.93534485 255.66959381 -255.9331897 254.65168762 -255.93096924 253.60293579 C-255.88129854 238.99386477 -255.63040191 224.66174147 -252.625 210.3125 C-252.42632324 209.33764648 -252.22764648 208.36279297 -252.02294922 207.35839844 C-241.90232806 158.9765226 -219.9858123 114.98821731 -185.625 79.3125 C-184.99287598 78.65314453 -184.36075195 77.99378906 -183.70947266 77.31445312 C-174.56502521 67.82619695 -165.26765991 59.0862956 -154.625 51.3125 C-153.47394983 50.45443848 -152.32290823 49.59636549 -151.171875 48.73828125 C-142.98224019 42.70072604 -134.47961724 37.31792698 -125.625 32.3125 C-124.91778809 31.9103125 -124.21057617 31.508125 -123.48193359 31.09375 C-100.34654164 18.0683259 -75.17537591 9.31948539 -49.1875 4 C-48.46860596 3.85264404 -47.74971191 3.70528809 -47.0090332 3.5534668 C-31.36274391 0.57960912 -15.88931954 -0.06050362 0 0 Z M-86.625 164.3125 C-87.47191406 165.15296875 -88.31882813 165.9934375 -89.19140625 166.859375 C-112.76223074 190.61937143 -125.67537409 221.86106348 -126 255.375 C-125.81114067 274.85541029 -121.383879 294.35220799 -112.12817383 311.51806641 C-111.78939209 312.17468262 -111.45061035 312.83129883 -111.1015625 313.5078125 C-110.79299316 314.07516113 -110.48442383 314.64250977 -110.16650391 315.22705078 C-108.40958067 321.99334397 -112.19532038 330.42185966 -114.00390625 336.88671875 C-114.684262 339.35220879 -115.36460002 341.81770373 -116.04492188 344.28320312 C-116.93889566 347.50573355 -117.83371331 350.72802418 -118.7298584 353.94995117 C-119.95180675 358.34400581 -121.16625325 362.74008736 -122.37890625 367.13671875 C-122.70387589 368.29717209 -123.02884552 369.45762543 -123.36366272 370.65324402 C-123.66074631 371.73148941 -123.9578299 372.8097348 -124.26391602 373.9206543 C-124.5273732 374.86772751 -124.79083038 375.81480072 -125.06227112 376.79057312 C-125.7701859 379.53250769 -125.7701859 379.53250769 -125.625 383.3125 C-116.07885353 381.15392504 -106.59864664 378.80892526 -97.1484375 376.26171875 C-95.66431366 375.86401779 -95.66431366 375.86401779 -94.15020752 375.45828247 C-90.05562135 374.36093932 -85.96135559 373.2630407 -81.87255859 372.14428711 C-78.84266458 371.31702284 -75.80864456 370.50673805 -72.7734375 369.69921875 C-71.85670258 369.44412033 -70.93996765 369.18902191 -69.99545288 368.92619324 C-64.04980621 367.36404889 -59.26903774 366.63731049 -53.4921875 369.29296875 C-52.50605469 369.89044922 -52.50605469 369.89044922 -51.5 370.5 C-46.2808683 373.25365231 -40.89953464 374.88463456 -35.25 376.5 C-34.38874512 376.74967529 -33.52749023 376.99935059 -32.64013672 377.2565918 C-21.58953166 380.33196668 -10.90419659 381.68270029 0.5625 381.625 C1.74577881 381.61936035 2.92905762 381.6137207 4.14819336 381.60791016 C37.47350278 381.14862705 66.58775241 367.24162177 90.375 344.3125 C91.09300781 343.65765625 91.81101562 343.0028125 92.55078125 342.328125 C114.86670904 321.39855746 126.18016364 289.46674215 127.65234375 259.50390625 C128.55593486 229.50406656 118.91981467 197.30359674 98.625 174.75 C97.20916708 173.27003527 95.79259836 171.79077378 94.375 170.3125 C93.40897599 169.13124785 92.4499471 167.94421921 91.5 166.75 C87.39907996 161.93538393 82.36305613 158.16003641 77.375 154.3125 C76.60414063 153.714375 75.83328125 153.11625 75.0390625 152.5 C26.35437537 116.60958219 -43.86332896 121.68179886 -86.625 164.3125 Z " fill="#66D448" transform="translate(255.625,-0.3125)"/>
<path d="M0 0 C19.98534697 17.08133897 32.79548151 40.33269296 36.62304688 66.38720703 C37.37984277 80.97158121 37.99360528 96.31533339 33.62304688 110.38720703 C33.33300781 111.3254834 33.33300781 111.3254834 33.03710938 112.28271484 C23.64237952 141.78622605 3.86368398 163.11004299 -23.18945312 177.63720703 C-48.18297958 189.61812517 -76.93379513 190.35307336 -103.12695312 182.13720703 C-109.5299753 179.87650598 -115.46529206 177.01623136 -121.45117188 173.84033203 C-126.97156101 171.09856333 -130.19175404 171.58847881 -136.06445312 173.25830078 C-136.80397217 173.45948013 -137.54349121 173.66065948 -138.30541992 173.86793518 C-140.665207 174.51109045 -143.02118757 175.16698768 -145.37695312 175.82470703 C-147.73310448 176.47724262 -150.08994419 177.12692466 -152.44848633 177.77076721 C-153.9146656 178.17152461 -155.37942586 178.57751942 -156.8425293 178.98936462 C-160.19112543 179.90949599 -162.86963943 180.38720703 -166.37695312 180.38720703 C-165.70535948 171.85146844 -163.06937799 163.81766016 -160.66455078 155.63964844 C-160.0992859 153.70900026 -159.54653492 151.77470203 -158.99414062 149.84033203 C-158.6601123 148.69725586 -158.32608398 147.55417969 -157.98193359 146.37646484 C-156.98331276 141.44219789 -158.55344685 138.89760684 -161.00537109 134.61669922 C-164.59738929 128.32694121 -167.46448108 122.01201151 -169.75195312 115.13720703 C-169.99002686 114.42999512 -170.22810059 113.7227832 -170.47338867 112.99414062 C-173.78775739 102.60282377 -174.74125471 92.51553995 -174.68945312 81.63720703 C-174.68381348 80.39874023 -174.67817383 79.16027344 -174.67236328 77.88427734 C-174.30215199 49.99013917 -162.74753864 25.29359 -143.62695312 5.19970703 C-129.16356677 -8.70046334 -111.684114 -17.58764151 -92.37695312 -22.61279297 C-91.43207031 -22.85900391 -90.4871875 -23.10521484 -89.51367188 -23.35888672 C-57.92954423 -29.98652566 -24.49159796 -20.37811614 0 0 Z M-126.90039062 32.42236328 C-133.22247419 41.90548862 -133.84553474 52.64462168 -131.75976562 63.64111328 C-123.60354219 90.74431593 -96.67235123 117.15773641 -72.47998047 130.42773438 C-68.20546793 132.64468495 -63.8324588 134.56630178 -59.37695312 136.38720703 C-57.55550781 137.14904297 -57.55550781 137.14904297 -55.69726562 137.92626953 C-45.29697471 141.86210901 -32.99814995 144.12027269 -22.31445312 139.76220703 C-20.28308208 138.67880069 -20.28308208 138.67880069 -18.37695312 137.38720703 C-17.301875 136.69884766 -17.301875 136.69884766 -16.20507812 135.99658203 C-10.80114724 132.24933069 -6.63852687 128.05899127 -5.37695312 121.38720703 C-5.31070806 119.63833722 -5.29142717 117.88717955 -5.31445312 116.13720703 C-5.32347656 115.24517578 -5.3325 114.35314453 -5.34179688 113.43408203 C-5.35339844 112.75861328 -5.365 112.08314453 -5.37695312 111.38720703 C-8.35348145 109.79887815 -11.33365084 108.21749834 -14.31445312 106.63720703 C-15.14525391 106.19376953 -15.97605469 105.75033203 -16.83203125 105.29345703 C-19.33596217 103.96841966 -21.85095879 102.66965765 -24.37695312 101.38720703 C-25.18922363 100.97277344 -26.00149414 100.55833984 -26.83837891 100.13134766 C-29.98937761 98.61301447 -32.57394804 97.44522763 -36.08007812 97.19189453 C-40.3444827 99.41112548 -42.83692691 103.6858384 -45.56445312 107.54736328 C-49.19120383 112.21441879 -49.19120383 112.21441879 -52.54492188 112.703125 C-63.60142262 111.79184933 -73.14770636 104.28241575 -81.37695312 97.38720703 C-82.20324219 96.75427734 -83.02953125 96.12134766 -83.88085938 95.46923828 C-90.50636285 89.94280111 -97.14727518 81.42761865 -100.37695312 73.38720703 C-100.16155347 69.26927251 -98.74005251 67.25340036 -95.93945312 64.32470703 C-92.52500753 60.75696442 -92.52500753 60.75696442 -90.37695312 56.38720703 C-90.85267634 52.2265398 -91.89007405 48.73986875 -93.55664062 44.91064453 C-93.99105469 43.91033203 -94.42546875 42.91001953 -94.87304688 41.87939453 C-95.55560547 40.33638672 -95.55560547 40.33638672 -96.25195312 38.76220703 C-96.69925781 37.72580078 -97.1465625 36.68939453 -97.60742188 35.62158203 C-100.34641529 29.11914398 -100.34641529 29.11914398 -104.37695312 23.38720703 C-114.758006 21.07241686 -120.82979651 24.31267217 -126.90039062 32.42236328 Z " fill="#66D448" transform="translate(325.376953125,173.61279296875)"/>
</svg>
